<?xml version="1.0" standalone="no"?>
<!DOCTYPE svg PUBLIC "-//W3C//DTD SVG 1.1//EN" "http://www.w3.org/Graphics/SVG/1.1/DTD/svg11.dtd" >
<svg xmlns="http://www.w3.org/2000/svg">
<metadata></metadata>
<defs>
<font id="klimaheavy_italic" horiz-adv-x="576" >
<font-face units-per-em="1000" ascent="764" descent="-236" />
<missing-glyph horiz-adv-x="176" />
<glyph horiz-adv-x="0" />
<glyph unicode="&#xd;" horiz-adv-x="224" />
<glyph unicode=" "  horiz-adv-x="176" />
<glyph unicode="&#x09;" horiz-adv-x="176" />
<glyph unicode="&#xa0;" horiz-adv-x="176" />
<glyph unicode="!" horiz-adv-x="299" d="M82 196l-19 251l36 235h201l-36 -235l-97 -251h-85zM96.5 -7q-35.5 0 -54.5 21t-13 57q5 37 27.5 57.5t57.5 20.5q36 0 55.5 -20.5t14.5 -57.5t-28.5 -57.5t-59 -20.5z" />
<glyph unicode="&#x22;" horiz-adv-x="438" d="M258 446l36 236h134l-36 -236h-134zM62 446l36 236h134l-36 -236h-134z" />
<glyph unicode="#" horiz-adv-x="737" d="M344 0l36 145h-128l-36 -145h-132l36 145h-94l19 135h110l30 123h-123l18 126h138l38 153h133l-39 -153h128l38 153h132l-38 -153h99l-17 -126h-115l-31 -123h129l-19 -135h-144l-37 -145h-131zM287 280h128l30 123h-127z" />
<glyph unicode="$" horiz-adv-x="592" d="M542 206q-11 -84 -70.5 -138.5t-146.5 -72.5l-17 -92h-147l18 92q-61 11 -114 37t-84 63l134 130q29 -30 73 -49.5t96 -19.5q19 0 34 5t24.5 15t11.5 23q4 26 -12.5 41t-67.5 19q-46 4 -84.5 18t-70 39t-46.5 65.5t-8 92.5q12 83 67.5 138.5t145.5 71.5l14 86h147 l-15 -86q98 -20 159 -89l-134 -117q-19 22 -56 37.5t-71 15.5q-75 0 -80 -49q-2 -16 6.5 -26.5t29.5 -16t57 -7.5q51 -3 90.5 -16.5t69.5 -39t42.5 -69t4.5 -101.5z" />
<glyph unicode="%" horiz-adv-x="834" d="M212 352q-44 0 -81 20.5t-59.5 60t-22.5 89.5q0 77 47 123.5t115 46.5q45 0 81.5 -19.5t58.5 -58t22 -89.5q0 -84 -45.5 -128.5t-115.5 -44.5zM199 0h-145l575 682h144zM213 459q24 0 40 18t16 46q0 26 -15 43.5t-41 17.5q-24 0 -40 -18t-16 -46q0 -15 4.5 -26.5 t11.5 -19t17.5 -11.5t22.5 -4zM625 -5q-68 0 -115.5 47.5t-47.5 123.5t47 123.5t115 47.5q69 0 116 -46t47 -123q0 -83 -46 -128t-116 -45zM626 103q24 0 40 17.5t16 45.5q0 27 -15 44.5t-41 17.5q-24 0 -40 -18.5t-16 -45.5q0 -30 15.5 -45.5t40.5 -15.5z" />
<glyph unicode="&#x26;" horiz-adv-x="662" d="M207 -10q-97 0 -156.5 59t-49.5 147q16 126 151 193q-1 1 -12.5 26t-16.5 51t-1 54q11 71 73.5 121t156.5 50q85 0 134 -53t38 -122q-9 -62 -51.5 -106t-100.5 -67q-1 0 13.5 -21.5t29.5 -42.5l14 -21l39 42h179l-144 -154l91 -146h-180l-29 45q-67 -55 -178 -55z M299 447q64 21 70 62q3 22 -8 35.5t-33 13.5q-12 0 -23.5 -6.5t-19.5 -17.5t-10 -25q-5 -30 24 -62zM234 137q21 0 41.5 8.5t31.5 19.5l-4.5 6.5t-11.5 16.5t-15.5 22t-17 24.5t-15.5 22.5t-11.5 16t-3.5 6q-1 0 -4 -1q-10 -6 -16.5 -10t-16.5 -12.5t-16.5 -21.5t-8.5 -29 q-3 -19 5.5 -34.5t25 -24.5t37.5 -9z" />
<glyph unicode="'" horiz-adv-x="233" d="M62 446l36 236h134l-36 -236h-134z" />
<glyph unicode="(" horiz-adv-x="330" d="M127 -132q-69 98 -95 225t-10 257q11 90 39 173.5t76.5 160.5t113.5 135l110 -106q-54 -53 -91 -115t-56 -120t-30 -128q-15 -104 4.5 -204.5t70.5 -184.5z" />
<glyph unicode=")" horiz-adv-x="336" d="M187 799q69 -98 95 -225.5t10 -257.5q-17 -137 -75 -259.5t-154 -209.5l-110 106q79 78 119.5 167t57.5 196q15 104 -4.5 205t-70.5 185z" />
<glyph unicode="*" horiz-adv-x="423" d="M160 356l-79 64l60 72l-86 26l33 99l82 -33v98h103l-8 -98l90 33l28 -99l-90 -26l54 -75l-84 -61l-47 78z" />
<glyph unicode="+" horiz-adv-x="600" d="M190 99l22 155h-151l21 142h150l22 155h150l-22 -155h152l-20 -142h-152l-22 -155h-150z" />
<glyph unicode="," horiz-adv-x="262" d="M47 115h157l-105 -235h-132z" />
<glyph unicode="-" horiz-adv-x="409" d="M36 239l22 160h311l-22 -160h-311z" />
<glyph unicode="." horiz-adv-x="251" d="M83 -10q-41 0 -62 22.5t-18 64.5q2 27 13.5 46.5t31 29t46.5 9.5q40 0 62 -22t19 -63q-4 -42 -28.5 -64.5t-63.5 -22.5z" />
<glyph unicode="/" horiz-adv-x="504" d="M10 0l310 681h174l-311 -681h-173z" />
<glyph unicode="0" horiz-adv-x="647" d="M275 -10q-56 0 -104 21.5t-83.5 63t-50 110.5t-1.5 156q23 169 115.5 259.5t220.5 90.5q57 0 105 -22t83 -64t49.5 -110t2.5 -153q-13 -89 -44.5 -157.5t-77 -110t-100 -63t-115.5 -21.5zM297 156q45 0 82.5 42t51.5 143q27 187 -83 187q-50 0 -83.5 -42t-47.5 -146 q-26 -184 80 -184z" />
<glyph unicode="1" horiz-adv-x="364" d="M74 0l72 508l-104 -6l18 129l146 51h144l-96 -682h-180z" />
<glyph unicode="2" horiz-adv-x="566" d="M-10 0l17 111l274 261q2 2 20 19t23.5 22.5t17.5 18.5t16.5 23t6.5 20q3 26 -13.5 41t-49.5 15q-62 0 -81 -53h-171q10 42 33 79.5t57 67.5t82 47.5t103 17.5q110 0 172 -58.5t49 -151.5q-2 -15 -5.5 -29t-10.5 -28t-11 -23t-16.5 -24t-16 -20.5t-20.5 -21.5t-19.5 -19 t-23 -21.5t-22.5 -19.5l-116 -106h223l-24 -168h-494z" />
<glyph unicode="3" horiz-adv-x="584" d="M235 -12q-29 0 -61 7.5t-63.5 25t-56.5 41.5t-40 61.5t-13 80.5h178q0 -21 22 -35.5t52 -14.5q36 0 61 17t29 48q3 22 -8 36t-38 20.5t-71 6.5l19 133q115 0 124 60q2 17 -5 29t-23 18.5t-41 6.5q-65 0 -89 -51h-158q21 101 100.5 156.5t178.5 55.5q64 0 115.5 -21.5 t80.5 -66.5t21 -104q-3 -26 -12.5 -48.5t-21 -37.5t-26 -27t-26.5 -18t-23 -11q42 -13 69.5 -51t19.5 -97q-14 -100 -90 -160t-204 -60z" />
<glyph unicode="4" horiz-adv-x="601" d="M279 0l18 122h-305l20 131l318 429h225l-59 -414h71l-21 -145h-68l-17 -123h-182zM174 270h145l31 231z" />
<glyph unicode="5" horiz-adv-x="579" d="M243 -12q-103 0 -172 63.5t-67 147.5h180q5 -21 24.5 -35t49.5 -14q39 0 63.5 22t29.5 58q6 36 -15 57t-53 21q-53 0 -84 -44l-163 28l91 390h421l-21 -151h-286l-17 -93q0 2 12 8.5t37.5 13t53.5 6.5q44 0 83 -14t70.5 -41t46.5 -73t7 -105q-17 -118 -96 -181.5 t-195 -63.5z" />
<glyph unicode="6" horiz-adv-x="608" d="M261 -10q-48 0 -94 16t-84 46t-57.5 78t-11.5 106q4 22 9.5 43.5t17.5 44.5t19 37t25 39.5t23 32.5t27 35t23 29l146 187h207l-187 -240q13 16 60 16q30 0 63.5 -14.5t63.5 -41t46 -71t7 -98.5q-7 -50 -27.5 -91t-50 -69t-66.5 -47.5t-77 -28.5t-82 -9zM277 156 q39 2 65.5 24t31.5 60t-16.5 60t-57.5 22q-22 0 -42.5 -9.5t-35 -28.5t-18.5 -44q-5 -37 16 -60.5t57 -23.5z" />
<glyph unicode="7" horiz-adv-x="529" d="M26 0l302 523h-282l22 159h484l-19 -138l-309 -544h-198z" />
<glyph unicode="8" horiz-adv-x="600" d="M256 -11q-120 0 -190 61t-59 147q8 60 44.5 101.5t74.5 59.5q-59 57 -49 130q12 88 87.5 145.5t184.5 57.5q100 0 163.5 -58.5t51.5 -145.5q-7 -42 -32.5 -76.5t-56.5 -51.5q32 -14 60.5 -57.5t19.5 -105.5q-12 -88 -92 -147.5t-207 -59.5zM312 413q16 2 32.5 12t29 27 t15.5 37q2 16 -4 30t-20.5 23t-34.5 9q-30 0 -51.5 -19t-25.5 -44q-2 -19 4.5 -34.5t20.5 -25.5t34 -15zM274 141q35 0 60.5 19t29.5 48q5 33 -14 49.5t-64 33.5q-27 -10 -44.5 -22t-28 -27.5t-13.5 -34.5q-3 -17 5.5 -32.5t26.5 -24.5t42 -9z" />
<glyph unicode="9" horiz-adv-x="612" d="M446 166l-136 -166h-212l183 218q-10 -13 -58 -13q-30 0 -63 14t-62.5 40.5t-44.5 72t-7 101.5q16 117 102.5 188t209.5 71q111 0 181 -71t54 -182q-5 -34 -16.5 -67t-22.5 -55.5t-33.5 -54.5t-34 -47t-40.5 -49zM301.5 349q34.5 0 62.5 26t33 65q6 41 -13.5 65.5 t-56.5 24.5q-35 0 -62 -24t-33 -65q-5 -40 15 -66t54.5 -26z" />
<glyph unicode=":" horiz-adv-x="297" d="M157 325q-25 0 -44.5 10.5t-29.5 30.5t-9 47q1 40 25 62.5t63 22.5t62 -23t22 -62q-2 -40 -27 -64t-62 -24zM110 4q-39 0 -61 22.5t-20 62.5q2 41 25.5 63.5t61.5 22.5q40 0 63 -22.5t21 -63.5q-2 -40 -26 -62.5t-64 -22.5z" />
<glyph unicode=";" horiz-adv-x="290" d="M134 321q-40 0 -61 22.5t-18 63.5q2 21 8.5 37t18.5 26.5t28 16t36 5.5q40 0 61.5 -22t19.5 -63q-4 -41 -28.5 -63.5t-64.5 -22.5zM50 115h157l-105 -235h-132z" />
<glyph unicode="&#x3c;" horiz-adv-x="468" d="M365 -10l-335 205l17 124l393 207l-25 -177l-191 -93l166 -88z" />
<glyph unicode="=" horiz-adv-x="635" d="M106 363l20 142h430l-20 -142h-430zM71 118l20 142h430l-20 -142h-430z" />
<glyph unicode="&#x3e;" horiz-adv-x="468" d="M81 526l335 -204l-18 -124l-392 -208l25 177l191 93l-166 88z" />
<glyph unicode="?" horiz-adv-x="547" d="M143 192q8 111 133 192q34 22 50 41.5t21 47.5q2 15 -4.5 28t-21 21.5t-34.5 8.5q-65 0 -83 -58l-158 -1q16 100 91.5 157t178.5 57q86 0 141.5 -55t52.5 -137q-1 -26 -6.5 -49t-16.5 -41.5t-22 -33t-28 -29t-28 -23t-30 -21t-26 -17.5q-62 -45 -66 -88h-144zM193 -10 q-37 0 -57 20.5t-18 57.5q1 25 12 42.5t29.5 26.5t42.5 9q35 0 54.5 -20.5t17 -57.5t-23.5 -57.5t-57 -20.5z" />
<glyph unicode="@" horiz-adv-x="888" d="M380 -65q-105 0 -185 48t-117 134t-20 191q17 109 82 196.5t161.5 135t204.5 47.5q167 0 255 -105t62 -270q-17 -112 -78.5 -181.5t-134.5 -69.5q-99 0 -125 93q-11 -11 -33 -19t-43 -8q-72 0 -108.5 54t-24.5 129q7 48 33 87.5t64.5 62.5t81.5 23q25 0 42.5 -11.5 t23.5 -28.5l25 31h72l-27 -174q-10 -60 -4.5 -90t30.5 -30q29 0 48.5 31t29.5 102q18 114 -37.5 187t-168.5 73q-111 0 -198 -76t-105 -189q-5 -31 -1.5 -62t12 -59.5t27 -53t42.5 -43t57.5 -29t72.5 -10.5q29 0 51.5 3.5t30.5 7.5l8 3q1 -7 4 -18.5t9 -35.5t9.5 -39.5 l3.5 -15.5q-21 -10 -54 -15t-55 -6h-23zM436 228q48 0 58 75q7 41 -3.5 62t-33.5 21q-22 0 -39 -21.5t-22 -60.5q-7 -37 4.5 -56t35.5 -20z" />
<glyph unicode="A" horiz-adv-x="685" d="M446 0l-19 103h-230l-47 -103h-186l332 682h185l145 -682h-180zM360 460l-99 -217h139z" />
<glyph unicode="B" horiz-adv-x="618" d="M12 0l96 682h238q62 0 110.5 -17.5t76.5 -46t40 -63.5t7 -73q-5 -39 -29.5 -75t-58.5 -47q34 -11 55 -38t26.5 -56.5t1.5 -59.5q-5 -32 -15.5 -59.5t-33 -55.5t-54 -47.5t-81.5 -31.5t-113 -12h-266zM244 404h69q78 0 86 65q4 20 -3 34.5t-24 23t-44 8.5h-65zM208 147h81 q51 0 75 17t29 52q5 33 -15.5 50t-68.5 17h-81z" />
<glyph unicode="C" horiz-adv-x="688" d="M300 -11q-46 0 -88.5 12.5t-80.5 40.5t-63.5 68.5t-36.5 102t0 135.5q12 84 46.5 150.5t84.5 108.5t110 64t126 22q122 0 200 -72.5t72 -186.5h-178q0 46 -32 73.5t-82 27.5q-26 0 -51.5 -9.5t-50 -30t-42.5 -58.5t-26 -89q-14 -106 20 -153.5t98 -47.5q51 0 90 29t52 73 h178q-14 -69 -45.5 -120t-78 -81t-101.5 -44.5t-121 -14.5z" />
<glyph unicode="D" horiz-adv-x="656" d="M11 0l96 682h231q72 0 131 -23t98.5 -65t57 -106t6.5 -142q-25 -178 -122 -262t-267 -84h-231zM209 163h55q166 0 191 183q24 172 -140 172h-56z" />
<glyph unicode="E" horiz-adv-x="585" d="M12 0l96 682h479l-23 -159h-303l-14 -106h236l-22 -151h-236l-15 -108h304l-22 -158h-480z" />
<glyph unicode="F" horiz-adv-x="565" d="M12 0l96 681h477l-23 -164h-302l-17 -119h215l-21 -155h-215l-35 -243h-175z" />
<glyph unicode="G" horiz-adv-x="692" d="M302 -11q-61 0 -114 21t-94 62t-58.5 110t-5.5 157q16 111 70.5 192t132 121t168.5 40q119 0 196 -69.5t72 -179.5h-177q-2 35 -31.5 63.5t-80.5 28.5q-64 0 -112.5 -51.5t-62.5 -143.5q-13 -96 20 -144t100 -48q57 0 94 25.5t45 71.5h-98l18 133h277l-9 -74 q-23 -165 -112.5 -240t-237.5 -75z" />
<glyph unicode="H" horiz-adv-x="662" d="M12 0l96 682h175l-36 -257h192l36 257h177l-96 -682h-177l38 262h-192l-38 -262h-175z" />
<glyph unicode="I" horiz-adv-x="295" d="M12 0l96 682h175l-96 -682h-175z" />
<glyph unicode="J" horiz-adv-x="523" d="M164 -10q-59 0 -115.5 29t-81.5 74l143 102q33 -44 77 -44q35 0 60.5 24.5t32.5 74.5l61 432h175l-60 -431q-9 -69 -35.5 -120t-66 -81.5t-87 -45t-103.5 -14.5z" />
<glyph unicode="K" horiz-adv-x="673" d="M12 0l96 682h175l-33 -242l218 242h231l-272 -297l197 -385h-210l-132 265l-66 -66l-29 -199h-175z" />
<glyph unicode="L" horiz-adv-x="560" d="M12 0l96 682h175l-73 -526h291l-22 -156h-467z" />
<glyph unicode="M" horiz-adv-x="823" d="M12 0l96 682h162l141 -318l234 318h167l-96 -682h-176l48 362l-178 -265h-73l-98 261l-52 -358h-175z" />
<glyph unicode="N" horiz-adv-x="694" d="M12 0l96 682h168l175 -363l56 363h176l-96 -682h-172l-179 359l-49 -359h-175z" />
<glyph unicode="O" horiz-adv-x="699" d="M300 -11q-68 0 -122.5 24t-91.5 68t-52.5 111.5t-3.5 151.5q24 167 124 258.5t245 91.5q68 0 123 -23t92.5 -66.5t53 -110.5t3.5 -150q-24 -171 -122 -263t-249 -92zM323 148q64 0 109.5 46.5t59.5 149.5q8 51 1 89.5t-25.5 60t-41.5 31.5t-50 10q-59 0 -107 -46 t-62 -145q-6 -55 -0.5 -92t23.5 -60.5t41 -33.5t52 -10z" />
<glyph unicode="P" horiz-adv-x="613" d="M12 0l96 682h256q68 0 118.5 -19.5t78 -53t38 -74.5t4.5 -88q-7 -45 -26.5 -85.5t-53.5 -75t-88.5 -54.5t-122.5 -20h-95l-30 -212h-175zM260 518l-20 -143h76q99 0 109 73q3 22 -3.5 36.5t-21.5 21.5t-30 9.5t-34 2.5h-76z" />
<glyph unicode="Q" horiz-adv-x="684" d="M623 52l-144 -115l-59 70q-56 -18 -120 -18q-68 0 -122.5 24t-91.5 68t-52.5 111.5t-3.5 151.5q24 167 124 258.5t245 91.5q68 0 123 -23t92.5 -66.5t53 -110.5t3.5 -150q-20 -143 -95 -234zM323 148q64 0 109.5 46.5t59.5 149.5q8 51 1 89.5t-25.5 60t-41.5 31.5t-50 10 q-59 0 -107 -46t-62 -145q-6 -55 -0.5 -92t23.5 -60.5t41 -33.5t52 -10z" />
<glyph unicode="R" horiz-adv-x="648" d="M12 0l96 682h251q141 0 206.5 -66.5t50.5 -169.5q-17 -129 -139 -183l93 -263h-195l-65 220h-92l-31 -220h-175zM240 375h76q98 0 110 77q3 22 -3.5 37.5t-21.5 22.5t-30 10t-34 3h-76z" />
<glyph unicode="S" horiz-adv-x="585" d="M250 -12q-82 0 -150 30t-112 77l122 122q27 -28 71.5 -47.5t87.5 -19.5q86 0 93 48q2 18 -5 29.5t-26.5 19.5t-57.5 14q-46 7 -84 23t-69 42t-46 66t-8 90q13 92 89 150.5t194 58.5q72 0 131 -24t98 -64l-117 -120q-20 19 -64.5 37t-77.5 18q-39 0 -62 -14t-26 -36 q-2 -27 19.5 -38t83.5 -19q106 -13 167 -71t44 -154q-18 -106 -95 -162t-200 -56z" />
<glyph unicode="T" horiz-adv-x="595" d="M162 0l74 529h-185l21 152h548l-21 -152h-187l-74 -529h-176z" />
<glyph unicode="U" horiz-adv-x="654" d="M277 -10q-57 0 -105 18t-82.5 53t-49.5 93t-4 131l55 397h177l-56 -396q-10 -65 18 -96.5t71 -31.5q45 0 81 31.5t45 96.5l56 396h177l-56 -397q-9 -59 -31 -108.5t-53 -83.5t-70.5 -57.5t-82.5 -34.5t-90 -11z" />
<glyph unicode="V" horiz-adv-x="653" d="M188 0l-124 681h188l65 -405l179 405h189l-315 -681h-182z" />
<glyph unicode="W" horiz-adv-x="904" d="M147 0l-89 682h183l36 -383l167 372h120l55 -373l137 384h188l-278 -682h-168l-52 289l-133 -289h-166z" />
<glyph unicode="X" horiz-adv-x="672" d="M-35 0l261 344l-163 338h209l81 -198l139 198h207l-257 -339l165 -343h-204l-90 194l-144 -194h-204z" />
<glyph unicode="Y" horiz-adv-x="635" d="M179 0l34 249l-156 433h198l75 -248l142 248h203l-286 -433l-35 -249h-175z" />
<glyph unicode="Z" horiz-adv-x="577" d="M-22 0l24 169l329 344h-271l24 169h497l-24 -169l-329 -344h290l-24 -169h-516z" />
<glyph unicode="[" horiz-adv-x="347" d="M-10 -102l122 869h260l-22 -156h-86l-79 -555h88l-22 -158h-261z" />
<glyph unicode="\" horiz-adv-x="504" d="M261 0l-191 681h173l191 -681h-173z" />
<glyph unicode="]" horiz-adv-x="347" d="M343 766l-122 -869h-259l21 157h86l79 555h-88l23 157h260z" />
<glyph unicode="^" horiz-adv-x="459" d="M29 449l172 233h162l99 -233h-161l-37 108l-73 -108h-162z" />
<glyph unicode="_" horiz-adv-x="591" d="M-63 -147l21 147h581l-22 -147h-580z" />
<glyph unicode="`" horiz-adv-x="270" d="M137 554l-79 106l184 98l38 -204h-143z" />
<glyph unicode="a" horiz-adv-x="606" d="M226 -7q-43 0 -82.5 16.5t-71 48t-47 84.5t-6.5 118q10 70 39.5 123.5t69 84t81 45.5t82.5 15q39 0 77 -16.5t48 -36.5l29 43h141l-80 -518h-134l-9 50q-21 -27 -59.5 -42t-77.5 -15zM269.5 141q39.5 0 70 30.5t39.5 89.5q8 63 -13.5 91.5t-62.5 28.5q-36 0 -67.5 -29 t-39.5 -91q-9 -59 12.5 -89.5t61 -30.5z" />
<glyph unicode="b" horiz-adv-x="604" d="M2 0l96 682h184l-28 -204q12 20 51 35t73 15q42 0 78 -15t65 -45.5t41.5 -84t2.5 -123.5q-18 -131 -91 -199t-178 -68q-40 0 -78.5 17.5t-54.5 39.5l-21 -50h-140zM284 140q25 0 46.5 12.5t38.5 40.5t23 68q8 64 -13 92.5t-62 28.5q-37 0 -68.5 -30t-40.5 -91 q-8 -58 13 -89.5t63 -31.5z" />
<glyph unicode="c" horiz-adv-x="564" d="M238 -10q-48 0 -91.5 18.5t-76 51.5t-47.5 84.5t-7 111.5q18 128 102 202t195 74q96 0 160 -53.5t62 -154.5h-174q1 29 -17.5 44.5t-51.5 15.5q-37 0 -66 -31t-39 -97q-8 -62 13.5 -91t57.5 -29q67 0 84 54h174q-54 -200 -278 -200z" />
<glyph unicode="d" horiz-adv-x="605" d="M223 -7q-43 0 -83 16.5t-71.5 48t-46.5 84.5t-6 118q8 56 29 102.5t48.5 76.5t61.5 50.5t67 29.5t66 9q35 0 64.5 -13t37.5 -33l29 200h185l-96 -682h-141l-7 50q-21 -26 -60 -41.5t-77 -15.5zM270 145q36 0 67.5 29.5t39.5 86.5q9 61 -14.5 89t-60.5 28t-68.5 -27.5 t-39.5 -89.5q-4 -30 1 -53t17 -36.5t26.5 -20t31.5 -6.5z" />
<glyph unicode="e" horiz-adv-x="562" d="M255 -9q-55 0 -101.5 16.5t-81 48t-50 83t-6.5 116.5q12 86 57 149.5t105.5 93.5t128.5 30q51 0 93.5 -15.5t74 -45.5t45.5 -81t4 -116l-8 -60h-345q-3 -36 25.5 -59t77.5 -23q25 0 53 6t50 15t39 19l53 -117q-87 -60 -214 -60zM185 314h184q7 39 -16.5 60.5t-64.5 21.5 q-34 0 -62.5 -22t-40.5 -60z" />
<glyph unicode="f" horiz-adv-x="377" d="M36 0l55 389h-61l18 129h61l1 5q13 94 65 137t153 43q15 0 40.5 -2t26.5 -2l-17 -123q-53 4 -70 -5.5t-21 -47.5v-5h83l-19 -129h-73l-54 -389h-188z" />
<glyph unicode="g" horiz-adv-x="591" d="M178 -239q-63 0 -116.5 23t-85.5 56l108 118q51 -42 109 -42q107 0 119 97l1 20q-15 -19 -43 -32t-62 -13q-40 0 -76.5 15t-66.5 46t-43 85.5t-3 124.5q10 69 38 123t66 84.5t78.5 46t80.5 15.5q38 0 68.5 -14t41.5 -36l18 40h156l-62 -441q-23 -168 -102.5 -242 t-223.5 -74zM258 139q41 0 70.5 31t37.5 89q16 121 -73 121q-37 0 -67.5 -29.5t-39.5 -92.5q-5 -38 2.5 -65.5t25.5 -40.5t44 -13z" />
<glyph unicode="h" horiz-adv-x="607" d="M10 0l96 682h184l-28 -197q17 16 56 29.5t66 13.5q40 0 74 -14.5t59.5 -43t36.5 -75.5t2 -107l-40 -288h-191l41 285q5 37 -10.5 56.5t-46.5 19.5q-27 0 -48.5 -20.5t-26.5 -55.5l-40 -285h-184z" />
<glyph unicode="i" horiz-adv-x="275" d="M173 560q-43 0 -67.5 20t-21.5 61q3 40 30.5 60.5t71 20.5t68 -20.5t21.5 -60.5t-31 -60.5t-71 -20.5zM7 0l73 518h170l-73 -518h-170z" />
<glyph unicode="j" horiz-adv-x="317" d="M199 550q-43 0 -66.5 20.5t-18.5 61t33 60t72 19.5t67.5 -19.5t18.5 -60t-34 -61t-72 -20.5zM-82 -233l22 155q33 -2 55.5 18t26.5 56l80 516h187l-81 -521q-16 -107 -99 -168t-191 -56z" />
<glyph unicode="k" horiz-adv-x="584" d="M2 0l96 682h184l-48 -345l153 181h212l-215 -239l145 -279h-205l-89 200l-23 -16l-26 -184h-184z" />
<glyph unicode="l" horiz-adv-x="274" d="M2 0l96 682h175l-96 -682h-175z" />
<glyph unicode="m" horiz-adv-x="873" d="M2 0l73 518h150l10 -54q16 26 58.5 48.5t87.5 22.5q27 0 52 -8.5t43.5 -24t26.5 -34.5q12 11 28 22t37.5 21.5t49.5 17t57 6.5q77 0 123 -60.5t32 -156.5l-44 -318h-177l43 303q11 77 -52 77q-30 0 -50 -19.5t-25 -55.5l-42 -305h-178l43 304q6 37 -8 56.5t-43 19.5 q-31 0 -50 -20t-24 -56l-43 -304h-178z" />
<glyph unicode="n" horiz-adv-x="581" d="M2 0l73 518h135l13 -47q11 15 35.5 29t56.5 22.5t61 8.5q38 0 69 -11t55.5 -34.5t35 -65.5t2.5 -99l-46 -321h-177l44 310q5 36 -12 57t-45 21q-19 0 -35.5 -9t-28 -27t-14.5 -42l-44 -310h-178z" />
<glyph unicode="o" d="M238 -10q-46 0 -88.5 16.5t-76 47.5t-49.5 84.5t-7 120.5q10 69 40.5 123t73 84.5t89 46t94.5 15.5q36 0 70 -9t65.5 -30t53 -51.5t31 -76.5t2.5 -102q-10 -68 -37.5 -120.5t-68 -84.5t-89 -48t-103.5 -16zM257 141q41 0 72 30t40 89q8 65 -14 93t-63 28q-38 0 -69.5 -29 t-40.5 -92q-8 -57 13.5 -88t61.5 -31z" />
<glyph unicode="p" horiz-adv-x="590" d="M190 40l-34 -236h-181l100 714h152l3 -48q62 59 145 59q40 0 74.5 -16t61.5 -47.5t38 -85t2 -121.5q-9 -66 -34.5 -118t-60.5 -83t-75 -47t-82 -16q-35 0 -67.5 12.5t-41.5 32.5zM281 141q41 0 71.5 29.5t38.5 90.5q8 64 -13.5 92t-61.5 28q-22 0 -42.5 -10t-39.5 -38.5 t-25 -71.5q-4 -30 -0.5 -53t13.5 -37.5t25 -22t34 -7.5z" />
<glyph unicode="q" horiz-adv-x="591" d="M283 -196l33 234q-14 -18 -48 -30.5t-73 -12.5q-33 0 -67 16t-63 46.5t-43 83.5t-5 118q10 68 36 121t62 84t77 46.5t84 15.5q39 0 72.5 -15.5t51.5 -39.5l22 47h143l-99 -714h-183zM192 261q-8 -59 12 -89.5t60 -30.5q39 0 70 30.5t39 89.5q10 64 -12.5 92t-61.5 28 q-35 0 -67 -29t-40 -91z" />
<glyph unicode="r" horiz-adv-x="406" d="M2 0l73 518h129l11 -52q16 25 58 43t83 18q29 0 52 -4l-22 -160q-25 3 -43 3q-39 0 -63 -8.5t-39.5 -31.5t-20.5 -64l-38 -262h-180z" />
<glyph unicode="s" horiz-adv-x="484" d="M190 -14q-50 0 -112.5 17.5t-101.5 45.5l93 128q33 -20 74.5 -34t71.5 -14t41.5 8t14.5 24q1 7 -1.5 12.5t-9 9.5t-13 6.5t-20.5 5.5t-23.5 4.5l-28.5 4.5q-63 10 -102.5 50t-30.5 105q11 75 72.5 124t156.5 49q116 0 193 -46l-76 -120q-5 3 -22 11.5t-49.5 18.5 t-61.5 10q-22 0 -38 -8t-18 -23q-1 -8 4 -14.5t18 -10.5t24.5 -6.5t32.5 -5.5t33 -6q66 -12 100 -55.5t25 -110.5q-26 -180 -246 -180z" />
<glyph unicode="t" horiz-adv-x="372" d="M51 145l34 240h-60l19 133h62l50 138h146l-19 -138h85l-20 -133h-84l-26 -180q-6 -41 6 -53t48 -12h18l-19 -136q-27 -7 -82 -7q-87 0 -127.5 37.5t-30.5 110.5z" />
<glyph unicode="u" horiz-adv-x="596" d="M199 -13q-37 0 -69.5 11.5t-60.5 36.5t-40.5 72t-3.5 110q42 299 42 301h192l-42 -302q-4 -28 2.5 -48t19 -28t29.5 -8q18 0 32.5 8.5t26 28t15.5 47.5l42 302h187l-73 -518h-145l-11 52q-22 -29 -61 -47t-82 -18z" />
<glyph unicode="v" horiz-adv-x="552" d="M125 0l-93 518h186l32 -322l135 322h185l-253 -518h-192z" />
<glyph unicode="w" horiz-adv-x="801" d="M122 0l-86 518h187l27 -270l117 270h122l42 -270l98 270h186l-228 -518h-167l-39 216l-100 -216h-159z" />
<glyph unicode="x" horiz-adv-x="605" d="M-38 0l216 258l-145 260h214l61 -133l101 133h214l-227 -262l151 -256h-214l-61 125l-95 -125h-215z" />
<glyph unicode="y" horiz-adv-x="567" d="M219 -200h-158l102 198l-2 2l-125 518h192l36 -312l126 312h191z" />
<glyph unicode="z" horiz-adv-x="475" d="M-17 0l17 117l242 259h-198l19 142h400l-18 -122l-232 -253h204l-21 -143h-413z" />
<glyph unicode="{" horiz-adv-x="380" d="M282 -100h-56q-81 -1 -126.5 56t-33.5 141l10 68q7 49 -7.5 76t-47.5 27l24 157q35 0 54 20.5t25 69.5l10 71q9 58 39 102.5t78.5 69.5t109.5 25h45l-23 -147q-44 0 -66.5 -21.5t-29.5 -67.5l-9 -57q-4 -30 -8 -48.5t-13.5 -40t-26.5 -34.5t-43 -19q19 -6 31 -19 t17 -26.5t5 -35t-1.5 -35.5t-5.5 -38l-9 -65q-4 -25 3 -43t26.5 -28.5t49.5 -10.5z" />
<glyph unicode="|" horiz-adv-x="277" d="M3 -96l121 854h147l-120 -854h-148z" />
<glyph unicode="}" horiz-adv-x="417" d="M113 783h57q81 2 126.5 -55t32.5 -141l-9 -69q-8 -49 6.5 -75.5t47.5 -26.5l-24 -158q-34 0 -53 -20t-25 -69l-11 -71q-13 -89 -74 -143.5t-152 -54.5h-46l23 147q45 0 67.5 21.5t28.5 67.5l9 58q3 23 6 38t9.5 34t15.5 31.5t24.5 23t35.5 15.5q-19 6 -31 18.5t-16.5 26 t-5 35.5t1 36t5.5 38l10 65q6 37 -14 59t-66 22z" />
<glyph unicode="~" horiz-adv-x="661" d="M49 293q20 73 72 113.5t128 40.5q29 0 54 -5.5t42 -13.5t31 -16t29 -13.5t29 -5.5q11 0 22 4.5t21 15.5t15 27l120 -38q-21 -76 -73.5 -114.5t-125.5 -38.5q-35 0 -69.5 13.5t-63.5 26.5t-51 13q-21 0 -35.5 -10.5t-25.5 -39.5z" />
<glyph unicode="&#xa1;" horiz-adv-x="299" d="M180 605q36 0 55 -20.5t14 -57.5t-28 -57.5t-58 -20.5q-36 0 -55.5 20.5t-14.5 57.5q4 25 15.5 42.5t30 26.5t41.5 9zM196 402l18 -251l-35 -235h-201l35 235l97 251h86z" />
<glyph unicode="&#xa2;" horiz-adv-x="567" d="M519 190q-42 -159 -195 -192l-21 -83h-169l21 92q-71 26 -109.5 91.5t-26.5 157.5q16 107 78 175.5t151 88.5l20 95h174l-25 -104q57 -21 90 -68t32 -119h-168q-5 30 -20.5 45t-48.5 15q-35 0 -66 -31t-40 -97q-9 -62 13.5 -91t58.5 -29q20 0 36.5 7t28.5 19t18 28h168z " />
<glyph unicode="&#xa3;" horiz-adv-x="611" d="M6 0l18 134q1 0 6.5 2t15 7t21 11.5t23.5 16.5t22 21.5t18 27.5t10 33q3 22 -6 31h-93l23 157h42q-6 35 0 67q11 79 85 133t180 54q69 0 116 -18.5t88 -57.5l-102 -119q-6 4 -17.5 11t-18.5 11t-18 9.5t-20 8.5t-20.5 5t-22.5 2q-36 0 -59.5 -19t-25.5 -40q-3 -17 4 -47 h152l-22 -157l-105 -2q8 -24 2 -63q-1 -9 -7.5 -22t-15 -24.5t-16.5 -18.5h257l-21 -154h-493z" />
<glyph unicode="&#xa5;" horiz-adv-x="664" d="M507 62h-130l-8 -62h-176l9 62h-133l18 125h132l8 54h-130l18 125h70l-114 316h199l75 -248l142 248h202l-208 -316h72l-17 -125h-134l-7 -54h131z" />
<glyph unicode="&#xa6;" horiz-adv-x="317" d="M75 416l49 342h188l-48 -342h-189zM5 -84l48 343h189l-48 -343h-189z" />
<glyph unicode="&#xa7;" horiz-adv-x="537" d="M451 170q-3 -37 -21.5 -69t-50.5 -56t-81 -37.5t-110 -12.5q-105 3 -187 64l97 115q42 -44 135 -41q20 1 35.5 8t16.5 18v2q3 15 0.5 17.5t-18.5 3.5q-27 0 -49 2q-50 5 -86.5 23t-55.5 50t-15 74q8 62 49 107q-17 31 -11 80q8 76 73.5 128t162.5 54q114 2 191 -52 l-91 -121q-5 5 -14.5 12.5t-42 19.5t-69.5 10q-21 1 -35 -9.5t-16 -25.5q0 -14 9.5 -16.5t78.5 -9.5q34 -4 62 -13t51 -26t33.5 -45.5t6.5 -66.5q-6 -72 -56 -117q12 -32 8 -70zM208 347q-1 -9 3.5 -14.5t18.5 -8.5t39 -3q40 0 57 6t20 20q1 12 -10 18t-40 7h-1h-7h-12 q-35 0 -50.5 -5.5t-17.5 -19.5z" />
<glyph unicode="&#xa8;" horiz-adv-x="401" d="M133 547q-33 0 -59 25.5t-26 60.5t26 60.5t59 25.5q34 0 60 -25.5t26 -60.5q0 -34 -26.5 -60t-59.5 -26zM350.5 547q-32.5 0 -59 26t-26.5 60q0 35 26 60.5t59 25.5q22 0 41.5 -11.5t32 -31.5t12.5 -43q0 -34 -26.5 -60t-59 -26z" />
<glyph unicode="&#xa9;" horiz-adv-x="809" d="M354 -11q-68 0 -127 25.5t-100 70.5t-59.5 111t-7.5 144q21 155 131.5 251t264.5 96q68 0 127 -25t100 -70t59.5 -110.5t8.5 -141.5q-23 -158 -130.5 -254.5t-266.5 -96.5zM368.5 70q113.5 0 198 75.5t101.5 194.5q17 121 -48 193t-176 72q-112 0 -196.5 -74t-100.5 -191 q-17 -121 45.5 -195.5t176 -74.5zM382 167q-65 0 -103.5 46t-27.5 122q7 52 32.5 91.5t64 61t82.5 21.5q56 0 95 -33.5t37 -99.5h-77q-1 26 -17 44.5t-48 18.5q-31 0 -58 -28.5t-34 -74.5q-6 -48 11 -72.5t53 -24.5q28 0 48.5 16t30.5 42h78q-15 -62 -60 -96t-107 -34z" />
<glyph unicode="&#xaa;" horiz-adv-x="442" d="M163 301q-49 0 -82 30.5t-26 77.5l1 7q8 53 53.5 82t102.5 29q39 0 63 -14q3 32 -3 38q-9 22 -39 22q-65 0 -100 -28l-36 71q21 17 48.5 29t55 17t53.5 5q57 0 93 -16.5t50 -47t8 -73.5l-32 -224h-97l-1 56l-2 -3.5t-5.5 -8.5t-9 -11.5t-14.5 -13t-20 -12t-27 -9 t-34 -3.5zM210 390q18 0 34.5 11t18.5 25l4 31q-20 7 -27 7q-13 0 -26.5 -2.5t-28.5 -12t-17 -26.5q-2 -11 2 -18.5t14 -11t26 -3.5zM28 151l14 102h325l-15 -102h-324z" />
<glyph unicode="&#xab;" horiz-adv-x="583" d="M373 74l-95 166l9 57l141 164l111 -90l-91 -100l57 -107zM129 74l-95 166l8 57l141 164l111 -90l-90 -100l56 -107z" />
<glyph unicode="&#xad;" horiz-adv-x="409" d="M36 239l22 160h311l-22 -160h-311z" />
<glyph unicode="&#xae;" horiz-adv-x="810" d="M354 -11q-66 0 -124.5 25.5t-100.5 70t-61.5 111.5t-8.5 144q22 154 133.5 250.5t262.5 96.5q69 0 128 -25t100 -70t59.5 -110.5t7.5 -141.5q-22 -157 -131 -254t-265 -97zM368.5 70q113.5 0 198 75.5t101.5 194.5q9 61 -5 111t-44.5 83.5t-75.5 52t-99 18.5 q-113 0 -197.5 -74t-100.5 -191q-16 -121 46.5 -195.5t176 -74.5zM271 172l46 326h125q56 0 82.5 -31t20.5 -72q-4 -34 -24.5 -60t-43.5 -33l43 -130h-76l-40 121h-44l-16 -121h-73zM369 355h42q53 0 58 40q2 14 -3.5 23t-16.5 13t-29 4h-40z" />
<glyph unicode="&#xaf;" horiz-adv-x="369" d="M38 574l17 117h357l-16 -117h-358z" />
<glyph unicode="&#xb0;" horiz-adv-x="407" d="M228 348q-43 0 -83 23.5t-64.5 64t-24.5 85.5q0 71 52.5 122t119.5 51q66 0 120 -51t54 -122q0 -69 -54 -121t-120 -52zM228 469q20 0 36 15.5t16 36.5q0 22 -16 37.5t-36 15.5q-21 0 -36.5 -15.5t-15.5 -37.5q0 -10 4 -20t11.5 -16.5t17 -11t19.5 -4.5z" />
<glyph unicode="&#xb1;" horiz-adv-x="635" d="M510 192l-18 -132h-433l19 132h142l15 110h-151l21 142h150l22 155h150l-22 -155h152l-20 -142h-152l-15 -110h140z" />
<glyph unicode="&#xb4;" horiz-adv-x="251" d="M40 589l103 203l149 -114l-117 -89h-135z" />
<glyph unicode="&#xb6;" horiz-adv-x="700" d="M420 0h-176l30 212h-12q-56 0 -99.5 20.5t-67.5 54t-34 75t-3 85.5q6 46 26.5 87.5t53.5 74.5t82.5 53t107.5 20h188zM492 0l96 682h108l-96 -682h-108z" />
<glyph unicode="&#xb7;" horiz-adv-x="202" d="M103 255q-19 0 -35.5 6.5t-29 18t-19.5 28.5t-7 37q0 40 26 65.5t65 25.5q38 0 63.5 -25.5t25.5 -65.5q0 -27 -12 -47.5t-32 -31.5t-45 -11z" />
<glyph unicode="&#xb8;" horiz-adv-x="312" d="M44 3h78l-10 -39q38 -7 63.5 -36.5t18.5 -81.5q-8 -56 -50.5 -89t-112.5 -33q-26 0 -69 9l30 93q8 -4 52 -4q18 0 29.5 8t12.5 20q3 13 -6 20.5t-28 8.5l-42 1z" />
<glyph unicode="&#xba;" horiz-adv-x="415" d="M201 301q-62 0 -105.5 45t-34.5 110l9 58q9 67 62.5 109.5t119.5 42.5q65 0 108.5 -43t34.5 -109l-9 -58q-9 -68 -59.5 -111.5t-125.5 -43.5zM215 400q14 0 26.5 6t20 17.5t9.5 25.5l9 66q3 24 -7.5 38.5t-34.5 14.5q-22 0 -36.5 -14.5t-18.5 -38.5l-9 -66 q-2 -22 9 -35.5t32 -13.5zM18 151l15 102h324l-14 -102h-325z" />
<glyph unicode="&#xbb;" horiz-adv-x="583" d="M187 458l95 -166l-8 -57l-142 -164l-110 90l90 100l-56 107zM432 458l95 -166l-9 -57l-141 -164l-110 90l90 100l-57 107z" />
<glyph unicode="&#xbf;" horiz-adv-x="548" d="M341 664q36 0 56.5 -20.5t18.5 -56.5q-2 -25 -12.5 -42.5t-29 -26.5t-42.5 -9q-35 0 -54.5 20t-17.5 58q1 18 7 32.5t16.5 24.5t25 15t32.5 5zM391 463q-8 -111 -133 -192q-34 -22 -50.5 -42t-20.5 -48q-2 -11 1.5 -21.5t11.5 -18.5t20 -12.5t27 -4.5q65 0 82 57l159 1 q-11 -66 -50 -115t-96 -74t-124 -25q-86 0 -141.5 55t-52.5 137q1 26 6.5 49t16.5 42t22 33.5t28 29t28 22.5t30 20.5t25 17.5q63 45 67 89h144z" />
<glyph unicode="&#xc0;" horiz-adv-x="685" d="M327 725l-79 106l184 98l38 -204h-143zM446 0l-19 103h-230l-47 -103h-186l332 682h185l145 -682h-180zM360 460l-99 -217h139z" />
<glyph unicode="&#xc1;" horiz-adv-x="685" d="M316 723l103 202l148 -114l-117 -88h-134zM446 0l-19 103h-230l-47 -103h-186l332 682h185l145 -682h-180zM360 460l-99 -217h139z" />
<glyph unicode="&#xc2;" horiz-adv-x="685" d="M285 709l-54 86l118 104h144l93 -97l-82 -92l-102 51zM446 0l-19 103h-230l-47 -103h-186l332 682h185l145 -682h-180zM360 460l-99 -217h139z" />
<glyph unicode="&#xc3;" horiz-adv-x="685" d="M180 755q11 53 52 95t94 46q37 2 66 -7.5t54 -21.5t46 -14q24 -2 39.5 10.5t28.5 38.5l79 -29q-8 -50 -51.5 -96t-95.5 -49q-45 -3 -86 18.5t-73 23.5q-50 3 -84 -40l-17 6l-34 12zM446 0l-19 103h-230l-47 -103h-186l332 682h185l145 -682h-180zM360 460l-99 -217h139z " />
<glyph unicode="&#xc4;" horiz-adv-x="685" d="M300 727q-34 0 -60 25.5t-26 59.5q0 36 26 61.5t60 25.5q33 0 59 -26t26 -61q0 -34 -26.5 -59.5t-58.5 -25.5zM516 727q-32 0 -58.5 25.5t-26.5 59.5q0 35 26 61t59.5 26t59.5 -26t26 -61q0 -22 -12.5 -42t-32 -31.5t-41.5 -11.5zM446 0l-19 103h-230l-47 -103h-186 l332 682h185l145 -682h-180zM360 460l-99 -217h139z" />
<glyph unicode="&#xc5;" horiz-adv-x="685" d="M406 712q-50 0 -89 37.5t-39 89.5q0 54 39 92t89 38q32 0 61.5 -17t48.5 -47t19 -66q0 -52 -39.5 -89.5t-89.5 -37.5zM406 802q17 0 28 11.5t11 28.5t-11 28t-28 11t-28 -11t-11 -28t11 -28.5t28 -11.5zM446 0l-19 103h-230l-47 -103h-186l332 682h185l145 -682h-180z M360 460l-99 -217h139z" />
<glyph unicode="&#xc6;" horiz-adv-x="951" d="M-56 0l426 682h585l-22 -159h-301l-16 -103h235l-23 -158h-234l-14 -104h301l-23 -158h-476l17 122h-184l-76 -122h-195zM308 271h112l32 231z" />
<glyph unicode="&#xc7;" horiz-adv-x="688" d="M401 -156q-8 -56 -50.5 -89t-112.5 -33q-26 0 -69 9l31 93q7 -4 52 -4q17 0 28.5 8t13.5 20q2 13 -7 20.5t-28 8.5l-42 1l33 115q-52 9 -94.5 33.5t-75.5 66t-47 107.5t-2 148q12 84 46.5 150.5t84.5 108.5t110 64t126 22q122 0 200 -72.5t72 -186.5h-178q0 46 -32 73.5 t-82 27.5q-26 0 -51.5 -9.5t-50 -30t-42.5 -58.5t-26 -89q-14 -106 20 -153.5t98 -47.5q51 0 90 29t52 73h178q-25 -128 -109 -190.5t-211 -68.5l-6 -28q38 -7 63 -36t18 -82z" />
<glyph unicode="&#xc8;" horiz-adv-x="585" d="M281 725l-79 106l184 98l38 -204h-143zM12 0l96 682h479l-23 -159h-303l-14 -106h236l-22 -151h-236l-15 -108h304l-22 -158h-480z" />
<glyph unicode="&#xc9;" horiz-adv-x="585" d="M270 723l102 202l149 -114l-117 -88h-134zM12 0l96 682h479l-23 -159h-303l-14 -106h236l-22 -151h-236l-15 -108h304l-22 -158h-480z" />
<glyph unicode="&#xca;" horiz-adv-x="585" d="M239 709l-54 86l118 104h144l93 -97l-82 -92l-102 51zM12 0l96 682h479l-23 -159h-303l-14 -106h236l-22 -151h-236l-15 -108h304l-22 -158h-480z" />
<glyph unicode="&#xcb;" horiz-adv-x="585" d="M252 727q-33 0 -59 25.5t-26 59.5q0 24 12 44t32 31.5t41 11.5q34 0 60 -26t26 -61q0 -22 -12.5 -42t-32 -31.5t-41.5 -11.5zM469 727q-32 0 -58.5 25.5t-26.5 59.5q0 35 26 61t59.5 26t59.5 -26t26 -61q0 -22 -12.5 -42t-32 -31.5t-41.5 -11.5zM12 0l96 682h479 l-23 -159h-303l-14 -106h236l-22 -151h-236l-15 -108h304l-22 -158h-480z" />
<glyph unicode="&#xcc;" horiz-adv-x="293" d="M134 734l-70 105l169 84l43 -189h-142zM12 0l96 682h175l-96 -682h-175z" />
<glyph unicode="&#xcd;" horiz-adv-x="293" d="M121 726l100 176l159 -86l-125 -90h-134zM12 0l96 682h175l-96 -682h-175z" />
<glyph unicode="&#xce;" horiz-adv-x="293" d="M127 716l-73 86l98 103h144l73 -102l-96 -86l-69 50zM12 0l96 682h175l-96 -682h-175z" />
<glyph unicode="&#xcf;" horiz-adv-x="293" d="M120 733q-36 0 -56 22t-20 64t20 63.5t56 21.5q76 0 76 -85q0 -42 -19.5 -64t-56.5 -22zM308 733q-24 0 -41 10t-26 29.5t-9 47.5q0 84 76 84t76 -84q0 -42 -19.5 -64.5t-56.5 -22.5zM12 -1l96 682h175l-96 -682h-175z" />
<glyph unicode="&#xd0;" horiz-adv-x="671" d="M637 346q-24 -178 -121 -262t-267 -84h-232l38 266h-54l21 146h53l38 270h232q72 0 130.5 -23t98.5 -65t57 -106t6 -142zM216 163h55q165 0 191 183q24 172 -140 172h-56l-15 -106h108l-20 -146h-109z" />
<glyph unicode="&#xd1;" horiz-adv-x="694" d="M189 752q11 53 52 95t94 46q36 2 65.5 -7.5t54 -21.5t45.5 -13q25 -2 40.5 10t27.5 39l80 -30q-5 -32 -26 -64t-53.5 -55.5t-67.5 -25.5q-45 -3 -86 18.5t-73 23.5q-51 3 -85 -40q1 0 -16 6t-35 12zM12 0l96 682h168l175 -363l56 363h176l-96 -682h-172l-179 359 l-49 -359h-175z" />
<glyph unicode="&#xd2;" horiz-adv-x="699" d="M336 726l-80 106l185 98l38 -204h-143zM300 -11q-68 0 -122.5 24t-91.5 68t-52.5 111.5t-3.5 151.5q24 167 124 258.5t245 91.5q68 0 123 -23t92.5 -66.5t53 -110.5t3.5 -150q-24 -171 -122 -263t-249 -92zM323 148q64 0 109.5 46.5t59.5 149.5q8 51 1 89.5t-25.5 60 t-41.5 31.5t-50 10q-59 0 -107 -46t-62 -145q-6 -55 -0.5 -92t23.5 -60.5t41 -33.5t52 -10z" />
<glyph unicode="&#xd3;" horiz-adv-x="699" d="M324 724l103 202l149 -114l-117 -88h-135zM300 -11q-68 0 -122.5 24t-91.5 68t-52.5 111.5t-3.5 151.5q24 167 124 258.5t245 91.5q68 0 123 -23t92.5 -66.5t53 -110.5t3.5 -150q-24 -171 -122 -263t-249 -92zM323 148q64 0 109.5 46.5t59.5 149.5q8 51 1 89.5t-25.5 60 t-41.5 31.5t-50 10q-59 0 -107 -46t-62 -145q-6 -55 -0.5 -92t23.5 -60.5t41 -33.5t52 -10z" />
<glyph unicode="&#xd4;" horiz-adv-x="699" d="M294 710l-54 86l118 104h144l92 -97l-81 -92l-102 51zM300 -11q-68 0 -122.5 24t-91.5 68t-52.5 111.5t-3.5 151.5q24 167 124 258.5t245 91.5q68 0 123 -23t92.5 -66.5t53 -110.5t3.5 -150q-24 -171 -122 -263t-249 -92zM323 148q64 0 109.5 46.5t59.5 149.5 q8 51 1 89.5t-25.5 60t-41.5 31.5t-50 10q-59 0 -107 -46t-62 -145q-6 -55 -0.5 -92t23.5 -60.5t41 -33.5t52 -10z" />
<glyph unicode="&#xd5;" horiz-adv-x="699" d="M188 756q11 53 52 95t94 46q36 2 65.5 -8t54 -21.5t45.5 -13.5q25 -2 40.5 10.5t27.5 38.5l80 -29q-4 -24 -17.5 -49t-32.5 -45.5t-45 -35t-52 -15.5q-45 -3 -86 18.5t-73 23.5q-51 3 -85 -40q1 0 -16 6t-35 12zM300 -11q-68 0 -122.5 24t-91.5 68t-52.5 111.5 t-3.5 151.5q24 167 124 258.5t245 91.5q68 0 123 -23t92.5 -66.5t53 -110.5t3.5 -150q-24 -171 -122 -263t-249 -92zM323 148q64 0 109.5 46.5t59.5 149.5q8 51 1 89.5t-25.5 60t-41.5 31.5t-50 10q-59 0 -107 -46t-62 -145q-6 -55 -0.5 -92t23.5 -60.5t41 -33.5t52 -10z " />
<glyph unicode="&#xd6;" horiz-adv-x="699" d="M307 729q-22 0 -41.5 11.5t-31.5 31.5t-12 42q0 36 26 61t59 25t59.5 -25.5t26.5 -60.5q0 -34 -26.5 -59.5t-59.5 -25.5zM524 729q-33 0 -59 25.5t-26 59.5q0 35 26 60.5t59 25.5t59.5 -25.5t26.5 -60.5q0 -34 -26.5 -59.5t-59.5 -25.5zM300 -11q-68 0 -122.5 24 t-91.5 68t-52.5 111.5t-3.5 151.5q24 167 124 258.5t245 91.5q68 0 123 -23t92.5 -66.5t53 -110.5t3.5 -150q-24 -171 -122 -263t-249 -92zM323 148q64 0 109.5 46.5t59.5 149.5q8 51 1 89.5t-25.5 60t-41.5 31.5t-50 10q-59 0 -107 -46t-62 -145q-6 -55 -0.5 -92 t23.5 -60.5t41 -33.5t52 -10z" />
<glyph unicode="&#xd7;" horiz-adv-x="574" d="M41 205l141 123l-103 120l114 101l103 -120l141 123l91 -107l-140 -122l104 -120l-116 -101l-102 120l-142 -123z" />
<glyph unicode="&#xd8;" horiz-adv-x="695" d="M300 -11q-90 0 -155 41l-42 -49l-77 63l47 54q-64 95 -43 246q24 167 124 258.5t245 91.5q91 0 159 -41l42 48l76 -63l-47 -53q63 -94 42 -241q-24 -171 -122 -263t-249 -92zM207 344q-7 -53 -1 -93l234 266q-27 18 -64 18q-59 0 -107 -46t-62 -145zM492 344q7 48 1 85 l-232 -266q27 -15 62 -15q64 0 109.5 46.5t59.5 149.5z" />
<glyph unicode="&#xd9;" horiz-adv-x="654" d="M310 720l-80 107l185 97l38 -204h-143zM277 -10q-57 0 -105 18t-82.5 53t-49.5 93t-4 131l55 397h177l-56 -396q-10 -65 18 -96.5t71 -31.5q45 0 81 31.5t45 96.5l56 396h177l-56 -397q-9 -59 -31 -108.5t-53 -83.5t-70.5 -57.5t-82.5 -34.5t-90 -11z" />
<glyph unicode="&#xda;" horiz-adv-x="654" d="M299 718l102 203l149 -115l-117 -88h-134zM277 -10q-57 0 -105 18t-82.5 53t-49.5 93t-4 131l55 397h177l-56 -396q-10 -65 18 -96.5t71 -31.5q45 0 81 31.5t45 96.5l56 396h177l-56 -397q-9 -59 -31 -108.5t-53 -83.5t-70.5 -57.5t-82.5 -34.5t-90 -11z" />
<glyph unicode="&#xdb;" horiz-adv-x="654" d="M268 705l-54 85l118 104h144l92 -97l-81 -91l-102 50zM277 -10q-57 0 -105 18t-82.5 53t-49.5 93t-4 131l55 397h177l-56 -396q-10 -65 18 -96.5t71 -31.5q45 0 81 31.5t45 96.5l56 396h177l-56 -397q-9 -59 -31 -108.5t-53 -83.5t-70.5 -57.5t-82.5 -34.5t-90 -11z" />
<glyph unicode="&#xdc;" horiz-adv-x="654" d="M281 723q-33 0 -59 25.5t-26 59.5q0 24 12 44t31.5 31.5t41.5 11.5q33 0 59.5 -25.5t26.5 -61.5q0 -34 -26.5 -59.5t-59.5 -25.5zM498 723q-33 0 -59 25.5t-26 59.5q0 36 26 61.5t59 25.5t59.5 -25.5t26.5 -61.5q0 -34 -26.5 -59.5t-59.5 -25.5zM277 -10q-57 0 -105 18 t-82.5 53t-49.5 93t-4 131l55 397h177l-56 -396q-10 -65 18 -96.5t71 -31.5q45 0 81 31.5t45 96.5l56 396h177l-56 -397q-9 -59 -31 -108.5t-53 -83.5t-70.5 -57.5t-82.5 -34.5t-90 -11z" />
<glyph unicode="&#xdd;" horiz-adv-x="635" d="M292 721l103 203l148 -115l-117 -88h-134zM179 0l34 249l-156 433h198l75 -248l142 248h203l-286 -433l-35 -249h-175z" />
<glyph unicode="&#xde;" horiz-adv-x="605" d="M12 0l96 682h180l-14 -104h56q125 0 191 -68t51 -174q-16 -114 -98.5 -179.5t-215.5 -65.5h-54l-12 -91h-180zM228 247h62q39 0 65 24t34 64q6 40 -14.5 65t-59.5 25h-63z" />
<glyph unicode="&#xdf;" horiz-adv-x="600" d="M3 0l62 446q16 113 95 177.5t190 64.5q82 0 145 -45.5t69 -102.5l-88 -136q35 -18 59 -62.5t18 -114.5q-3 -38 -15.5 -72.5t-35.5 -63.5t-54.5 -50.5t-74 -33.5t-92.5 -12q-21 0 -48 5l21 154q4 0 13 -1t13 -1q16 0 29.5 4.5t23.5 11.5t18 16.5t12.5 18.5t6.5 19 q3 31 -14 54.5t-63 23.5h-11l2 25l86 180q-13 27 -57 27q-28 0 -49 -19.5t-27 -58.5l-64 -454h-170z" />
<glyph unicode="&#xe0;" horiz-adv-x="613" d="M279 574l-79 107l184 98l38 -205h-143zM226 -7q-43 0 -82.5 16.5t-71 48t-47 84.5t-6.5 118q10 70 39.5 123.5t69 84t81 45.5t82.5 15q39 0 77 -16.5t48 -36.5l29 43h141l-80 -518h-134l-9 50q-21 -27 -59.5 -42t-77.5 -15zM269.5 141q39.5 0 70 30.5t39.5 89.5 q8 63 -13.5 91.5t-62.5 28.5q-36 0 -67.5 -29t-39.5 -91q-9 -59 12.5 -89.5t61 -30.5z" />
<glyph unicode="&#xe1;" horiz-adv-x="606" d="M254 570l103 203l149 -114l-117 -89h-135zM226 -7q-43 0 -82.5 16.5t-71 48t-47 84.5t-6.5 118q10 70 39.5 123.5t69 84t81 45.5t82.5 15q39 0 77 -16.5t48 -36.5l29 43h141l-80 -518h-134l-9 50q-21 -27 -59.5 -42t-77.5 -15zM269.5 141q39.5 0 70 30.5t39.5 89.5 q8 63 -13.5 91.5t-62.5 28.5q-36 0 -67.5 -29t-39.5 -91q-9 -59 12.5 -89.5t61 -30.5z" />
<glyph unicode="&#xe2;" horiz-adv-x="613" d="M252 563l-54 85l118 104h144l92 -97l-82 -91l-101 50zM226 -7q-43 0 -82.5 16.5t-71 48t-47 84.5t-6.5 118q10 70 39.5 123.5t69 84t81 45.5t82.5 15q39 0 77 -16.5t48 -36.5l29 43h141l-80 -518h-134l-9 50q-21 -27 -59.5 -42t-77.5 -15zM269.5 141q39.5 0 70 30.5 t39.5 89.5q8 63 -13.5 91.5t-62.5 28.5q-36 0 -67.5 -29t-39.5 -91q-9 -59 12.5 -89.5t61 -30.5z" />
<glyph unicode="&#xe3;" horiz-adv-x="613" d="M139 612q11 53 52 95t94 46q36 2 65.5 -8t54 -21.5t45.5 -13.5q25 -2 40.5 10.5t27.5 38.5l80 -29q-8 -50 -51.5 -96t-95.5 -49q-45 -3 -86 18.5t-73 23.5q-51 3 -85 -40q1 0 -16 6t-35 12zM226 -7q-43 0 -82.5 16.5t-71 48t-47 84.5t-6.5 118q10 70 39.5 123.5t69 84 t81 45.5t82.5 15q39 0 77 -16.5t48 -36.5l29 43h141l-80 -518h-134l-9 50q-21 -27 -59.5 -42t-77.5 -15zM269.5 141q39.5 0 70 30.5t39.5 89.5q8 63 -13.5 91.5t-62.5 28.5q-36 0 -67.5 -29t-39.5 -91q-9 -59 12.5 -89.5t61 -30.5z" />
<glyph unicode="&#xe4;" horiz-adv-x="606" d="M248 585q-34 0 -60 25.5t-26 59.5q0 36 26 61t60 25q33 0 59 -25.5t26 -60.5q0 -34 -26 -59.5t-59 -25.5zM465 585q-33 0 -59.5 25.5t-26.5 59.5q0 23 12.5 43.5t32 31.5t41.5 11q33 0 59 -25.5t26 -60.5q0 -34 -26 -59.5t-59 -25.5zM226 -7q-43 0 -82.5 16.5t-71 48 t-47 84.5t-6.5 118q10 70 39.5 123.5t69 84t81 45.5t82.5 15q39 0 77 -16.5t48 -36.5l29 43h141l-80 -518h-134l-9 50q-21 -27 -59.5 -42t-77.5 -15zM269.5 141q39.5 0 70 30.5t39.5 89.5q8 63 -13.5 91.5t-62.5 28.5q-36 0 -67.5 -29t-39.5 -91q-9 -59 12.5 -89.5t61 -30.5 z" />
<glyph unicode="&#xe5;" horiz-adv-x="606" d="M355 570q-50 0 -88.5 37.5t-38.5 89.5q0 54 38.5 92t88.5 38t89.5 -38t39.5 -92q0 -26 -11 -49.5t-29 -40.5t-41.5 -27t-47.5 -10zM355 660q17 0 28.5 11t11.5 28.5t-11.5 28.5t-28.5 11t-28 -11t-11 -28t11.5 -28.5t27.5 -11.5zM226 -7q-43 0 -82.5 16.5t-71 48 t-47 84.5t-6.5 118q10 70 39.5 123.5t69 84t81 45.5t82.5 15q39 0 77 -16.5t48 -36.5l29 43h141l-80 -518h-134l-9 50q-21 -27 -59.5 -42t-77.5 -15zM269.5 141q39.5 0 70 30.5t39.5 89.5q8 63 -13.5 91.5t-62.5 28.5q-36 0 -67.5 -29t-39.5 -91q-9 -59 12.5 -89.5t61 -30.5 z" />
<glyph unicode="&#xe6;" horiz-adv-x="844" d="M771 51q-88 -60 -214 -60q-112 0 -179 60q-73 -59 -191 -59q-106 0 -160 45.5t-44 116.5q10 68 74 115.5t171 47.5q15 0 43.5 -2.5t34.5 -5.5l2 16q4 30 -12 45t-46 15q-50 0 -80 -32l-117 70q33 46 91.5 75.5t131.5 29.5q104 0 158 -60q78 60 175 60q50 0 92.5 -15.5 t74.5 -45.5t45.5 -81t4.5 -116l-9 -60h-345q-3 -36 26 -59t77 -23q37 0 76 12t66 28zM487 314h183q7 39 -16.5 60.5t-64.5 21.5q-34 0 -62 -22t-40 -60zM209 117q23 0 40.5 10t26.5 24.5t12 30.5l2 22q-28 7 -55 6q-79 0 -86 -46q-2 -22 13.5 -34.5t46.5 -12.5z" />
<glyph unicode="&#xe7;" horiz-adv-x="564" d="M343 -155q-8 -56 -51 -89t-112 -33q-26 0 -70 9l31 93q8 -4 52 -4q18 0 29.5 8t12.5 20q2 13 -7 20.5t-27 8.5l-43 1l33 116q-86 17 -138 87t-37 174q18 128 102 202t195 74q96 0 160 -53.5t62 -154.5h-174q1 29 -17.5 44.5t-51.5 15.5q-37 0 -66 -31t-39 -97 q-8 -62 13.5 -91t57.5 -29q67 0 84 54h174q-50 -185 -248 -199l-7 -28q38 -7 63 -36.5t19 -81.5z" />
<glyph unicode="&#xe8;" horiz-adv-x="562" d="M252 575l-80 107l184 98l39 -205h-143zM255 -9q-55 0 -101.5 16.5t-81 48t-50 83t-6.5 116.5q12 86 57 149.5t105.5 93.5t128.5 30q51 0 93.5 -15.5t74 -45.5t45.5 -81t4 -116l-8 -60h-345q-3 -36 25.5 -59t77.5 -23q25 0 53 6t50 15t39 19l53 -117q-87 -60 -214 -60z M185 314h184q7 39 -16.5 60.5t-64.5 21.5q-34 0 -62.5 -22t-40.5 -60z" />
<glyph unicode="&#xe9;" horiz-adv-x="562" d="M228 572l102 203l149 -115l-117 -88h-134zM255 -9q-55 0 -101.5 16.5t-81 48t-50 83t-6.5 116.5q12 86 57 149.5t105.5 93.5t128.5 30q51 0 93.5 -15.5t74 -45.5t45.5 -81t4 -116l-8 -60h-345q-3 -36 25.5 -59t77.5 -23q25 0 53 6t50 15t39 19l53 -117q-87 -60 -214 -60z M185 314h184q7 39 -16.5 60.5t-64.5 21.5q-34 0 -62.5 -22t-40.5 -60z" />
<glyph unicode="&#xea;" horiz-adv-x="562" d="M205 564l-53 86l118 104h144l92 -97l-82 -92l-101 51zM255 -9q-55 0 -101.5 16.5t-81 48t-50 83t-6.5 116.5q12 86 57 149.5t105.5 93.5t128.5 30q51 0 93.5 -15.5t74 -45.5t45.5 -81t4 -116l-8 -60h-345q-3 -36 25.5 -59t77.5 -23q25 0 53 6t50 15t39 19l53 -117 q-87 -60 -214 -60zM185 314h184q7 39 -16.5 60.5t-64.5 21.5q-34 0 -62.5 -22t-40.5 -60z" />
<glyph unicode="&#xeb;" horiz-adv-x="562" d="M220 586q-34 0 -60 25.5t-26 59.5q0 35 26 60.5t60 25.5q33 0 59 -25.5t26 -60.5q0 -34 -26 -59.5t-59 -25.5zM437 586q-33 0 -59.5 25.5t-26.5 59.5q0 35 26.5 60.5t59.5 25.5t59 -25.5t26 -60.5q0 -34 -26 -59.5t-59 -25.5zM255 -9q-55 0 -101.5 16.5t-81 48t-50 83 t-6.5 116.5q12 86 57 149.5t105.5 93.5t128.5 30q51 0 93.5 -15.5t74 -45.5t45.5 -81t4 -116l-8 -60h-345q-3 -36 25.5 -59t77.5 -23q25 0 53 6t50 15t39 19l53 -117q-87 -60 -214 -60zM185 314h184q7 39 -16.5 60.5t-64.5 21.5q-34 0 -62.5 -22t-40.5 -60z" />
<glyph unicode="&#xec;" horiz-adv-x="279" d="M108 570l-44 111l171 75l17 -186h-144zM10 0l73 518h169l-72 -518h-170z" />
<glyph unicode="&#xed;" horiz-adv-x="281" d="M91 568l103 190l146 -79l-108 -111h-141zM10 0l73 518h169l-72 -518h-170z" />
<glyph unicode="&#xee;" horiz-adv-x="284" d="M102 564l-74 86l100 104h143l74 -104l-97 -85l-68 51zM10 0l73 518h169l-72 -518h-170z" />
<glyph unicode="&#xef;" horiz-adv-x="329" d="M112 566q-77 0 -66 79q3 28 14 45.5t28 25t43 7.5q38 0 55 -18t12 -60q-6 -41 -27 -60t-59 -19zM286 565q-77 0 -66 80q5 41 25.5 59.5t58.5 18.5t55 -18.5t13 -59.5q-11 -80 -86 -80zM32 0l73 518h170l-73 -518h-170z" />
<glyph unicode="&#xf0;" d="M538 278q-23 -142 -102 -213.5t-196 -71.5q-111 0 -174 66t-54 185q8 119 94 198.5t207 79.5q15 0 28.5 -3t21.5 -8t11 -10q-7 42 -20 83l-96 -22l-19 67l86 34q-17 39 -30 60l140 63q17 -25 34 -65l70 28l34 -115l-66 -16q54 -179 31 -340zM255 142q36 0 65.5 25.5 t37.5 87.5q16 115 -67 115q-90 0 -106 -115q-8 -62 13.5 -87.5t56.5 -25.5z" />
<glyph unicode="&#xf1;" horiz-adv-x="581" d="M117 617q7 34 27 65.5t52 52.5t67 23q36 2 65.5 -7.5t54 -21t45.5 -13.5q25 -2 40.5 10.5t27.5 38.5l80 -30q-8 -49 -51.5 -95t-95.5 -50q-28 -2 -50 3.5t-33.5 13.5t-31.5 16t-44 10q-51 3 -85 -41q1 0 -16 6.5t-35 12.5zM2 0l73 518h135l13 -47q11 15 35.5 29 t56.5 22.5t61 8.5q38 0 69 -11t55.5 -34.5t35 -65.5t2.5 -99l-46 -321h-177l44 310q5 36 -12 57t-45 21q-19 0 -35.5 -9t-28 -27t-14.5 -42l-44 -310h-178z" />
<glyph unicode="&#xf2;" d="M238 576l-80 107l185 97l38 -204h-143zM238 -10q-46 0 -88.5 16.5t-76 47.5t-49.5 84.5t-7 120.5q10 69 40.5 123t73 84.5t89 46t94.5 15.5q36 0 70 -9t65.5 -30t53 -51.5t31 -76.5t2.5 -102q-10 -68 -37.5 -120.5t-68 -84.5t-89 -48t-103.5 -16zM257 141q41 0 72 30 t40 89q8 65 -14 93t-63 28q-38 0 -69.5 -29t-40.5 -92q-8 -57 13.5 -88t61.5 -31z" />
<glyph unicode="&#xf3;" d="M244 573l103 203l148 -115l-117 -88h-134zM238 -10q-46 0 -88.5 16.5t-76 47.5t-49.5 84.5t-7 120.5q10 69 40.5 123t73 84.5t89 46t94.5 15.5q36 0 70 -9t65.5 -30t53 -51.5t31 -76.5t2.5 -102q-10 -68 -37.5 -120.5t-68 -84.5t-89 -48t-103.5 -16zM257 141q41 0 72 30 t40 89q8 65 -14 93t-63 28q-38 0 -69.5 -29t-40.5 -92q-8 -57 13.5 -88t61.5 -31z" />
<glyph unicode="&#xf4;" d="M211 565l-54 86l119 104h144l92 -97l-82 -92l-102 51zM238 -10q-46 0 -88.5 16.5t-76 47.5t-49.5 84.5t-7 120.5q10 69 40.5 123t73 84.5t89 46t94.5 15.5q36 0 70 -9t65.5 -30t53 -51.5t31 -76.5t2.5 -102q-10 -68 -37.5 -120.5t-68 -84.5t-89 -48t-103.5 -16zM257 141 q41 0 72 30t40 89q8 65 -14 93t-63 28q-38 0 -69.5 -29t-40.5 -92q-8 -57 13.5 -88t61.5 -31z" />
<glyph unicode="&#xf5;" d="M97 613q5 26 18 50.5t32 44t44 32.5t52 15q36 2 65.5 -8t54 -21.5t45.5 -13.5q25 -2 40.5 10.5t27.5 38.5l80 -29q-9 -50 -52.5 -96t-94.5 -49q-45 -4 -86 18t-73 24q-51 3 -85 -41q1 0 -16.5 6.5t-34.5 12.5zM238 -10q-46 0 -88.5 16.5t-76 47.5t-49.5 84.5t-7 120.5 q10 69 40.5 123t73 84.5t89 46t94.5 15.5q36 0 70 -9t65.5 -30t53 -51.5t31 -76.5t2.5 -102q-10 -68 -37.5 -120.5t-68 -84.5t-89 -48t-103.5 -16zM257 141q41 0 72 30t40 89q8 65 -14 93t-63 28q-38 0 -69.5 -29t-40.5 -92q-8 -57 13.5 -88t61.5 -31z" />
<glyph unicode="&#xf6;" d="M226 587q-34 0 -60 25.5t-26 59.5q0 35 26 60.5t60 25.5q33 0 59 -25.5t26 -60.5q0 -34 -26.5 -59.5t-58.5 -25.5zM442.5 587q-32.5 0 -59 25.5t-26.5 59.5q0 23 12.5 43.5t32 31.5t41.5 11q33 0 59 -25.5t26 -60.5q0 -34 -26.5 -59.5t-59 -25.5zM238 -10 q-46 0 -88.5 16.5t-76 47.5t-49.5 84.5t-7 120.5q10 69 40.5 123t73 84.5t89 46t94.5 15.5q36 0 70 -9t65.5 -30t53 -51.5t31 -76.5t2.5 -102q-10 -68 -37.5 -120.5t-68 -84.5t-89 -48t-103.5 -16zM257 141q41 0 72 30t40 89q8 65 -14 93t-63 28q-38 0 -69.5 -29t-40.5 -92 q-8 -57 13.5 -88t61.5 -31z" />
<glyph unicode="&#xf7;" horiz-adv-x="614" d="M320 432q-31 0 -49.5 20t-18.5 53q1 16 7.5 30t17.5 23t25 14.5t30 5.5q31 0 49 -20t16 -53q0 -32 -22.5 -52.5t-54.5 -20.5zM57 273l17 120h481l-17 -120h-481zM273 85q-21 0 -37 9.5t-24 26t-8 37.5q2 34 24 53.5t54 19.5q31 0 50 -19.5t18 -53.5q-1 -31 -23.5 -52 t-53.5 -21z" />
<glyph unicode="&#xf8;" d="M238 -10q-64 0 -117 29l-36 -40l-62 50l37 41q-59 74 -43 189q10 69 40.5 123t73 84.5t89 46t94.5 15.5q66 0 120 -30l32 36l62 -51l-33 -37q57 -72 41 -187q-10 -68 -37.5 -120.5t-68 -84.5t-89 -48t-103.5 -16zM182 260q-4 -27 -1 -50l145 165q-15 6 -34 6 q-38 0 -69.5 -29t-40.5 -92zM369 260q3 27 2 43l-140 -158q11 -4 26 -4q41 0 72 30t40 89z" />
<glyph unicode="&#xf9;" horiz-adv-x="596" d="M267 573l-80 107l185 98l38 -205h-143zM199 -13q-37 0 -69.5 11.5t-60.5 36.5t-40.5 72t-3.5 110q42 299 42 301h192l-42 -302q-4 -28 2.5 -48t19 -28t29.5 -8q18 0 32.5 8.5t26 28t15.5 47.5l42 302h187l-73 -518h-145l-11 52q-22 -29 -61 -47t-82 -18z" />
<glyph unicode="&#xfa;" horiz-adv-x="596" d="M242 570l103 203l148 -114l-117 -89h-134zM199 -13q-37 0 -69.5 11.5t-60.5 36.5t-40.5 72t-3.5 110q42 299 42 301h192l-42 -302q-4 -28 2.5 -48t19 -28t29.5 -8q18 0 32.5 8.5t26 28t15.5 47.5l42 302h187l-73 -518h-145l-11 52q-22 -29 -61 -47t-82 -18z" />
<glyph unicode="&#xfb;" horiz-adv-x="596" d="M220 563l-54 85l118 104h144l92 -97l-81 -91l-102 50zM199 -13q-37 0 -69.5 11.5t-60.5 36.5t-40.5 72t-3.5 110q42 299 42 301h192l-42 -302q-4 -28 2.5 -48t19 -28t29.5 -8q18 0 32.5 8.5t26 28t15.5 47.5l42 302h187l-73 -518h-145l-11 52q-22 -29 -61 -47t-82 -18z " />
<glyph unicode="&#xfc;" horiz-adv-x="596" d="M234 584q-33 0 -59 25.5t-26 59.5q0 23 12 43.5t31.5 32t41.5 11.5q33 0 59.5 -26t26.5 -61q0 -34 -26.5 -59.5t-59.5 -25.5zM451 584q-33 0 -59 25.5t-26 59.5q0 35 26 61t59 26t59.5 -26t26.5 -61q0 -34 -26.5 -59.5t-59.5 -25.5zM199 -13q-37 0 -69.5 11.5t-60.5 36.5 t-40.5 72t-3.5 110q42 299 42 301h192l-42 -302q-4 -28 2.5 -48t19 -28t29.5 -8q18 0 32.5 8.5t26 28t15.5 47.5l42 302h187l-73 -518h-145l-11 52q-22 -29 -61 -47t-82 -18z" />
<glyph unicode="&#xfd;" horiz-adv-x="567" d="M229 570l103 203l149 -114l-117 -89h-135zM219 -200h-158l102 198l-2 2l-125 518h192l36 -312l126 312h191z" />
<glyph unicode="&#xfe;" horiz-adv-x="597" d="M-23 -197l124 879h171l-28 -202q16 18 53 31t75 13q37 0 72.5 -15.5t64.5 -46t42.5 -83.5t4.5 -121q-8 -56 -26.5 -101t-43 -75t-56 -50t-64.5 -29t-69 -9q-27 0 -58 13.5t-47 31.5l-32 -236h-183zM280 140q42 0 71 29.5t37 89.5q3 35 0 58.5t-14.5 37.5t-26 20t-32.5 6 q-34 0 -64.5 -29.5t-39.5 -92.5q-5 -38 2.5 -65.5t24.5 -40.5t42 -13z" />
<glyph unicode="&#xff;" horiz-adv-x="567" d="M222 585q-34 0 -60 25.5t-26 59.5q0 36 26 61t60 25q33 0 59 -25.5t26 -60.5q0 -34 -26 -59.5t-59 -25.5zM439 585q-33 0 -59.5 25.5t-26.5 59.5q0 35 26.5 60.5t59.5 25.5t59 -25.5t26 -60.5q0 -34 -26 -59.5t-59 -25.5zM219 -200h-158l102 198l-2 2l-125 518h192 l36 -312l126 312h191z" />
<glyph unicode="&#x100;" horiz-adv-x="685" d="M218 742l16 117h357l-15 -117h-358zM446 0l-19 103h-230l-47 -103h-186l332 682h185l145 -682h-180zM360 460l-99 -217h139z" />
<glyph unicode="&#x101;" horiz-adv-x="613" d="M177 593l16 117h357l-15 -117h-358zM226 -7q-43 0 -82.5 16.5t-71 48t-47 84.5t-6.5 118q10 70 39.5 123.5t69 84t81 45.5t82.5 15q39 0 77 -16.5t48 -36.5l29 43h141l-80 -518h-134l-9 50q-21 -27 -59.5 -42t-77.5 -15zM269.5 141q39.5 0 70 30.5t39.5 89.5 q8 63 -13.5 91.5t-62.5 28.5q-36 0 -67.5 -29t-39.5 -91q-9 -59 12.5 -89.5t61 -30.5z" />
<glyph unicode="&#x102;" horiz-adv-x="685" d="M396 723q-59 0 -104.5 26t-62.5 61l95 82q13 -17 39 -29t51 -12q16 0 33.5 5t33.5 14.5t29 22.5l76 -85q-25 -32 -78.5 -58.5t-111.5 -26.5zM446 0l-19 103h-230l-47 -103h-186l332 682h185l145 -682h-180zM360 460l-99 -217h139z" />
<glyph unicode="&#x103;" horiz-adv-x="613" d="M361 575q-59 0 -104.5 26t-61.5 61l95 82q12 -17 38.5 -29t50.5 -12t50 11.5t46 30.5l76 -85q-25 -32 -78.5 -58.5t-111.5 -26.5zM226 -7q-43 0 -82.5 16.5t-71 48t-47 84.5t-6.5 118q10 70 39.5 123.5t69 84t81 45.5t82.5 15q39 0 77 -16.5t48 -36.5l29 43h141l-80 -518 h-134l-9 50q-21 -27 -59.5 -42t-77.5 -15zM269.5 141q39.5 0 70 30.5t39.5 89.5q8 63 -13.5 91.5t-62.5 28.5q-36 0 -67.5 -29t-39.5 -91q-9 -59 12.5 -89.5t61 -30.5z" />
<glyph unicode="&#x104;" horiz-adv-x="685" d="M594 -89l-19 -133h-131q-35 0 -58.5 14t-32 35t-5 47.5t21.5 51.5q19 28 74 84l-17 93h-230l-47 -103h-186l332 682h185l145 -682h-16l-86 -83q-3 -2 -2 -4t3 -2h69zM360 460l-99 -217h139z" />
<glyph unicode="&#x105;" horiz-adv-x="613" d="M490 -89l-20 -133h-131q-34 0 -58 14t-32.5 35t-4.5 47.5t21 51.5q28 39 98 107l1 0.5t2 1.5l-3 15q-21 -27 -59.5 -42t-77.5 -15q-43 0 -82.5 16.5t-71 48t-47 84.5t-6.5 118q10 70 39.5 123.5t69 84t81 45.5t82.5 15q39 0 77 -16.5t48 -36.5l29 43h141l-80 -518h-1 l-85 -83q-4 -2 -3 -4t3 -2h70zM269.5 141q39.5 0 70 30.5t39.5 89.5q8 63 -13.5 91.5t-62.5 28.5q-36 0 -67.5 -29t-39.5 -91q-9 -59 12.5 -89.5t61 -30.5z" />
<glyph unicode="&#x106;" horiz-adv-x="688" d="M316 723l103 202l148 -114l-117 -88h-134zM300 -11q-46 0 -88.5 12.5t-80.5 40.5t-63.5 68.5t-36.5 102t0 135.5q12 84 46.5 150.5t84.5 108.5t110 64t126 22q122 0 200 -72.5t72 -186.5h-178q0 46 -32 73.5t-82 27.5q-26 0 -51.5 -9.5t-50 -30t-42.5 -58.5t-26 -89 q-14 -106 20 -153.5t98 -47.5q51 0 90 29t52 73h178q-14 -69 -45.5 -120t-78 -81t-101.5 -44.5t-121 -14.5z" />
<glyph unicode="&#x107;" horiz-adv-x="564" d="M233 569l103 203l149 -114l-117 -89h-135zM238 -10q-48 0 -91.5 18.5t-76 51.5t-47.5 84.5t-7 111.5q18 128 102 202t195 74q96 0 160 -53.5t62 -154.5h-174q1 29 -17.5 44.5t-51.5 15.5q-37 0 -66 -31t-39 -97q-8 -62 13.5 -91t57.5 -29q67 0 84 54h174 q-54 -200 -278 -200z" />
<glyph unicode="&#x10a;" horiz-adv-x="688" d="M407 729q-35 0 -60 25.5t-25 60.5t25 60t60 25q34 0 59.5 -25t25.5 -60t-25.5 -60.5t-59.5 -25.5zM300 -11q-46 0 -88.5 12.5t-80.5 40.5t-63.5 68.5t-36.5 102t0 135.5q12 84 46.5 150.5t84.5 108.5t110 64t126 22q122 0 200 -72.5t72 -186.5h-178q0 46 -32 73.5 t-82 27.5q-26 0 -51.5 -9.5t-50 -30t-42.5 -58.5t-26 -89q-14 -106 20 -153.5t98 -47.5q51 0 90 29t52 73h178q-14 -69 -45.5 -120t-78 -81t-101.5 -44.5t-121 -14.5z" />
<glyph unicode="&#x10b;" horiz-adv-x="564" d="M333 580q-23 0 -42.5 11.5t-31 31.5t-11.5 43q0 35 25 60.5t60 25.5q22 0 42 -11.5t32 -31.5t12 -43q0 -35 -26 -60.5t-60 -25.5zM238 -10q-48 0 -91.5 18.5t-76 51.5t-47.5 84.5t-7 111.5q18 128 102 202t195 74q96 0 160 -53.5t62 -154.5h-174q1 29 -17.5 44.5 t-51.5 15.5q-37 0 -66 -31t-39 -97q-8 -62 13.5 -91t57.5 -29q67 0 84 54h174q-54 -200 -278 -200z" />
<glyph unicode="&#x10c;" horiz-adv-x="688" d="M326 728l-91 97l81 91l101 -51l118 52l53 -86l-118 -103h-144zM300 -11q-46 0 -88.5 12.5t-80.5 40.5t-63.5 68.5t-36.5 102t0 135.5q12 84 46.5 150.5t84.5 108.5t110 64t126 22q122 0 200 -72.5t72 -186.5h-178q0 46 -32 73.5t-82 27.5q-26 0 -51.5 -9.5t-50 -30 t-42.5 -58.5t-26 -89q-14 -106 20 -153.5t98 -47.5q51 0 90 29t52 73h178q-14 -69 -45.5 -120t-78 -81t-101.5 -44.5t-121 -14.5z" />
<glyph unicode="&#x10d;" horiz-adv-x="564" d="M252 579l-92 97l81 91l101 -51l118 52l54 -85l-118 -104h-144zM238 -10q-48 0 -91.5 18.5t-76 51.5t-47.5 84.5t-7 111.5q18 128 102 202t195 74q96 0 160 -53.5t62 -154.5h-174q1 29 -17.5 44.5t-51.5 15.5q-37 0 -66 -31t-39 -97q-8 -62 13.5 -91t57.5 -29q67 0 84 54 h174q-54 -200 -278 -200z" />
<glyph unicode="&#x10e;" horiz-adv-x="656" d="M294 731l-91 97l80 91l101 -51l118 52l54 -86l-118 -103h-144zM11 0l96 682h231q72 0 131 -23t98.5 -65t57 -106t6.5 -142q-25 -178 -122 -262t-267 -84h-231zM209 163h55q166 0 191 183q24 172 -140 172h-56z" />
<glyph unicode="&#x10f;" horiz-adv-x="748" d="M669 691h126l-57 -166h-100zM223 -7q-43 0 -83 16.5t-71.5 48t-46.5 84.5t-6 118q8 56 29 102.5t48.5 76.5t61.5 50.5t67 29.5t66 9q35 0 64.5 -13t37.5 -33l29 200h185l-96 -682h-141l-7 50q-21 -26 -60 -41.5t-77 -15.5zM270 145q36 0 67.5 29.5t39.5 86.5 q9 61 -14.5 89t-60.5 28t-68.5 -27.5t-39.5 -89.5q-4 -30 1 -53t17 -36.5t26.5 -20t31.5 -6.5z" />
<glyph unicode="&#x110;" horiz-adv-x="664" d="M637 346q-24 -178 -121 -262t-267 -84h-232l38 266h-54l21 146h53l38 270h232q72 0 130.5 -23t98.5 -65t57 -106t6 -142zM216 163h55q165 0 191 183q24 172 -140 172h-56l-15 -106h108l-20 -146h-109z" />
<glyph unicode="&#x111;" horiz-adv-x="607" d="M360 50q-21 -26 -60 -41.5t-77 -15.5q-43 0 -83 16.5t-71.5 48t-46.5 84.5t-6 118q8 56 29 102.5t48.5 76.5t61.5 50.5t67 29.5t66 9q35 0 64.5 -13t37.5 -33l14 99l-88 4l12 83l89 -3l9 68h185l-11 -73l65 -1l-13 -88l-64 3l-80 -574h-141zM270 145q36 0 67.5 29.5 t39.5 86.5q9 61 -14.5 89t-60.5 28t-68.5 -27.5t-39.5 -89.5q-4 -30 1 -53t17 -36.5t26.5 -20t31.5 -6.5z" />
<glyph unicode="&#x112;" horiz-adv-x="585" d="M172 742l16 117h357l-15 -117h-358zM12 0l96 682h479l-23 -159h-303l-14 -106h236l-22 -151h-236l-15 -108h304l-22 -158h-480z" />
<glyph unicode="&#x113;" horiz-adv-x="562" d="M139 595l17 117h357l-16 -117h-358zM255 -9q-55 0 -101.5 16.5t-81 48t-50 83t-6.5 116.5q12 86 57 149.5t105.5 93.5t128.5 30q51 0 93.5 -15.5t74 -45.5t45.5 -81t4 -116l-8 -60h-345q-3 -36 25.5 -59t77.5 -23q25 0 53 6t50 15t39 19l53 -117q-87 -60 -214 -60z M185 314h184q7 39 -16.5 60.5t-64.5 21.5q-34 0 -62.5 -22t-40.5 -60z" />
<glyph unicode="&#x114;" horiz-adv-x="585" d="M349 723q-58 0 -103.5 26t-62.5 61l95 82q13 -17 39 -29t51 -12q24 0 50 11.5t46 30.5l76 -85q-25 -32 -78.5 -58.5t-112.5 -26.5zM12 0l96 682h479l-23 -159h-303l-14 -106h236l-22 -151h-236l-15 -108h304l-22 -158h-480z" />
<glyph unicode="&#x115;" horiz-adv-x="562" d="M315 576q-59 0 -104.5 26t-61.5 61l95 82q12 -17 38 -29t51 -12q24 0 50 11.5t46 30.5l76 -85q-16 -20 -43.5 -39t-67.5 -32.5t-79 -13.5zM255 -9q-55 0 -101.5 16.5t-81 48t-50 83t-6.5 116.5q12 86 57 149.5t105.5 93.5t128.5 30q51 0 93.5 -15.5t74 -45.5t45.5 -81 t4 -116l-8 -60h-345q-3 -36 25.5 -59t77.5 -23q25 0 53 6t50 15t39 19l53 -117q-87 -60 -214 -60zM185 314h184q7 39 -16.5 60.5t-64.5 21.5q-34 0 -62.5 -22t-40.5 -60z" />
<glyph unicode="&#x116;" horiz-adv-x="585" d="M361 729q-23 0 -42.5 11.5t-31 31.5t-11.5 43q0 35 25 60t60 25q34 0 59.5 -25t25.5 -60t-25.5 -60.5t-59.5 -25.5zM12 0l96 682h479l-23 -159h-303l-14 -106h236l-22 -151h-236l-15 -108h304l-22 -158h-480z" />
<glyph unicode="&#x117;" horiz-adv-x="562" d="M327 583q-34 0 -59.5 25.5t-25.5 60.5t25.5 60.5t59.5 25.5q35 0 60.5 -25.5t25.5 -60.5t-26 -60.5t-60 -25.5zM255 -9q-55 0 -101.5 16.5t-81 48t-50 83t-6.5 116.5q12 86 57 149.5t105.5 93.5t128.5 30q51 0 93.5 -15.5t74 -45.5t45.5 -81t4 -116l-8 -60h-345 q-3 -36 25.5 -59t77.5 -23q25 0 53 6t50 15t39 19l53 -117q-87 -60 -214 -60zM185 314h184q7 39 -16.5 60.5t-64.5 21.5q-34 0 -62.5 -22t-40.5 -60z" />
<glyph unicode="&#x118;" horiz-adv-x="585" d="M476 -89l-19 -133h-132q-34 0 -57.5 14t-32 35t-5 47.5t21.5 51.5q25 35 65 74h-305l96 682h479l-23 -159h-303l-14 -106h236l-22 -151h-236l-15 -108h304l-22 -158l-86 -83q-3 -2 -2 -4t3 -2h69z" />
<glyph unicode="&#x119;" horiz-adv-x="562" d="M453 -39l-19 -133h-132q-34 0 -57.5 14t-32 35t-5 47.5t20.5 51.5q8 10 13 15q-53 3 -97 20t-76 48.5t-46.5 82t-5.5 113.5q12 86 57 149.5t105.5 93.5t128.5 30q51 0 93.5 -15.5t74 -45.5t45.5 -81t4 -116l-8 -60h-345q-3 -36 25.5 -59t77.5 -23q25 0 53 6t50 15t39 19 l53 -117l-1 -1l-85 -83q-3 -2 -2.5 -4t3.5 -2h69zM185 314h184q7 39 -16.5 60.5t-64.5 21.5q-34 0 -62.5 -22t-40.5 -60z" />
<glyph unicode="&#x11a;" horiz-adv-x="585" d="M280 728l-91 97l81 91l101 -51l118 52l53 -86l-118 -103h-144zM12 0l96 682h479l-23 -159h-303l-14 -106h236l-22 -151h-236l-15 -108h304l-22 -158h-480z" />
<glyph unicode="&#x11b;" horiz-adv-x="562" d="M247 582l-91 97l80 91l101 -51l118 52l54 -86l-118 -103h-144zM255 -9q-55 0 -101.5 16.5t-81 48t-50 83t-6.5 116.5q12 86 57 149.5t105.5 93.5t128.5 30q51 0 93.5 -15.5t74 -45.5t45.5 -81t4 -116l-8 -60h-345q-3 -36 25.5 -59t77.5 -23q25 0 53 6t50 15t39 19 l53 -117q-87 -60 -214 -60zM185 314h184q7 39 -16.5 60.5t-64.5 21.5q-34 0 -62.5 -22t-40.5 -60z" />
<glyph unicode="&#x11e;" horiz-adv-x="692" d="M406 724q-59 0 -104.5 26t-61.5 61l95 82q12 -17 38.5 -29t50.5 -12t50.5 11.5t45.5 30.5l76 -85q-25 -33 -78 -59t-112 -26zM302 -11q-61 0 -114 21t-94 62t-58.5 110t-5.5 157q16 111 70.5 192t132 121t168.5 40q119 0 196 -69.5t72 -179.5h-177q-2 35 -31.5 63.5 t-80.5 28.5q-64 0 -112.5 -51.5t-62.5 -143.5q-13 -96 20 -144t100 -48q57 0 94 25.5t45 71.5h-98l18 133h277l-9 -74q-23 -165 -112.5 -240t-237.5 -75z" />
<glyph unicode="&#x11f;" horiz-adv-x="591" d="M336 575q-59 0 -104.5 26t-61.5 61l95 82q12 -17 38.5 -29t50.5 -12t50.5 11.5t45.5 30.5l76 -85q-25 -32 -78.5 -58.5t-111.5 -26.5zM178 -239q-63 0 -116.5 23t-85.5 56l108 118q51 -42 109 -42q107 0 119 97l1 20q-15 -19 -43 -32t-62 -13q-40 0 -76.5 15t-66.5 46 t-43 85.5t-3 124.5q10 69 38 123t66 84.5t78.5 46t80.5 15.5q38 0 68.5 -14t41.5 -36l18 40h156l-62 -441q-23 -168 -102.5 -242t-223.5 -74zM258 139q41 0 70.5 31t37.5 89q16 121 -73 121q-37 0 -67.5 -29.5t-39.5 -92.5q-5 -38 2.5 -65.5t25.5 -40.5t44 -13z" />
<glyph unicode="&#x120;" horiz-adv-x="692" d="M418 730q-35 0 -60.5 25.5t-25.5 60.5t25.5 60t60.5 25q34 0 59.5 -25t25.5 -60t-25.5 -60.5t-59.5 -25.5zM302 -11q-61 0 -114 21t-94 62t-58.5 110t-5.5 157q16 111 70.5 192t132 121t168.5 40q119 0 196 -69.5t72 -179.5h-177q-2 35 -31.5 63.5t-80.5 28.5 q-64 0 -112.5 -51.5t-62.5 -143.5q-13 -96 20 -144t100 -48q57 0 94 25.5t45 71.5h-98l18 133h277l-9 -74q-23 -165 -112.5 -240t-237.5 -75z" />
<glyph unicode="&#x121;" horiz-adv-x="591" d="M348 582q-22 0 -42 11.5t-31.5 31.5t-11.5 43q0 35 25.5 60.5t59.5 25.5q35 0 60.5 -25.5t25.5 -60.5t-25.5 -60.5t-60.5 -25.5zM178 -239q-63 0 -116.5 23t-85.5 56l108 118q51 -42 109 -42q107 0 119 97l1 20q-15 -19 -43 -32t-62 -13q-40 0 -76.5 15t-66.5 46 t-43 85.5t-3 124.5q10 69 38 123t66 84.5t78.5 46t80.5 15.5q38 0 68.5 -14t41.5 -36l18 40h156l-62 -441q-23 -168 -102.5 -242t-223.5 -74zM258 139q41 0 70.5 31t37.5 89q16 121 -73 121q-37 0 -67.5 -29.5t-39.5 -92.5q-5 -38 2.5 -65.5t25.5 -40.5t44 -13z" />
<glyph unicode="&#x122;" horiz-adv-x="692" d="M302 -11q-61 0 -114 21t-94 62t-58.5 110t-5.5 157q16 111 70.5 192t132 121t168.5 40q119 0 196 -69.5t72 -179.5h-177q-2 35 -31.5 63.5t-80.5 28.5q-64 0 -112.5 -51.5t-62.5 -143.5q-13 -96 20 -144t100 -48q57 0 94 25.5t45 71.5h-98l18 133h277l-9 -74 q-23 -165 -112.5 -240t-237.5 -75zM180 -221l48 178h159l-86 -178h-121z" />
<glyph unicode="&#x123;" horiz-adv-x="591" d="M451 756l-49 -178h-158l85 178h122zM178 -239q-63 0 -116.5 23t-85.5 56l108 118q51 -42 109 -42q107 0 119 97l1 20q-15 -19 -43 -32t-62 -13q-40 0 -76.5 15t-66.5 46t-43 85.5t-3 124.5q10 69 38 123t66 84.5t78.5 46t80.5 15.5q38 0 68.5 -14t41.5 -36l18 40h156 l-62 -441q-23 -168 -102.5 -242t-223.5 -74zM258 139q41 0 70.5 31t37.5 89q16 121 -73 121q-37 0 -67.5 -29.5t-39.5 -92.5q-5 -38 2.5 -65.5t25.5 -40.5t44 -13z" />
<glyph unicode="&#x126;" horiz-adv-x="662" d="M225 262l-38 -262h-175l69 491h-54l19 135h54l8 56h175l-7 -56h192l7 56h177l-8 -56h53l-19 -135h-53l-69 -491h-177l38 262h-192zM247 425h192l9 66h-192z" />
<glyph unicode="&#x127;" horiz-adv-x="607" d="M234 285l-40 -285h-184l79 568l-62 -2l10 94l65 1l10 72h185l-10 -69l79 1l-11 -91l-80 -2l-13 -87q17 16 56 29.5t66 13.5q40 0 73.5 -14.5t59 -43t36.5 -75.5t3 -107l-40 -288h-191l41 285q5 37 -10.5 56.5t-46.5 19.5q-27 0 -48.5 -20.5t-26.5 -55.5z" />
<glyph unicode="&#x12a;" horiz-adv-x="293" d="M81 744l16 117h246l-17 -117h-245zM12 0l96 682h175l-96 -682h-175z" />
<glyph unicode="&#x12b;" horiz-adv-x="285" d="M45 597l19 136h267l-20 -136h-266zM10 0l73 518h169l-72 -518h-170z" />
<glyph unicode="&#x12c;" horiz-adv-x="293" d="M201 717q-54 0 -92.5 25t-54.5 62l94 83q31 -41 71 -41q42 0 76 41l76 -83q-23 -37 -68 -62t-102 -25zM12 0l96 682h175l-96 -682h-175z" />
<glyph unicode="&#x12d;" horiz-adv-x="285" d="M176 571q-49 0 -90.5 26t-55.5 62l94 82q31 -41 67 -41q45 0 79 41l77 -83q-12 -17 -28.5 -32.5t-38.5 -27.5t-49 -19.5t-55 -7.5zM10 0l73 518h169l-72 -518h-170z" />
<glyph unicode="&#x12e;" horiz-adv-x="293" d="M170 -89l-19 -133h-132q-34 0 -57.5 14t-32.5 35t-5 47.5t21 51.5q21 28 67 75l96 681h175l-96 -682h-2l-85 -83q-3 -2 -2.5 -4t3.5 -2h69z" />
<glyph unicode="&#x12f;" horiz-adv-x="292" d="M173 560q-43 0 -67.5 20t-21.5 61q3 40 30.5 60.5t71 20.5t68 -20.5t21.5 -60.5t-31 -60.5t-71 -20.5zM158 -89l-19 -133h-131q-35 0 -58.5 14t-32 35t-4.5 47.5t21 51.5t74 84l72 508h170l-73 -518h-3l-86 -83q-3 -2 -2 -4t3 -2h69z" />
<glyph unicode="&#x130;" horiz-adv-x="293" d="M210 734q-34 0 -59.5 26t-25.5 61t25.5 60t59.5 25q17 0 32.5 -6.5t27.5 -18t19 -27.5t7 -33q0 -35 -26 -61t-60 -26zM12 0l96 682h175l-96 -682h-175z" />
<glyph unicode="&#x131;" horiz-adv-x="285" d="M10 0l73 518h169l-72 -518h-170z" />
<glyph unicode="&#x136;" horiz-adv-x="673" d="M12 0l96 682h175l-33 -242l218 242h231l-272 -297l197 -385h-210l-132 265l-66 -66l-29 -199h-175zM138 -256l49 177h159l-86 -177h-122z" />
<glyph unicode="&#x137;" horiz-adv-x="584" d="M2 0l96 682h184l-48 -345l153 181h212l-215 -239l145 -279h-205l-89 200l-23 -16l-26 -184h-184zM88 -244l49 178h159l-86 -178h-122z" />
<glyph unicode="&#x139;" horiz-adv-x="560" d="M133 721l103 203l149 -115l-117 -88h-135zM12 0l96 682h175l-73 -526h291l-22 -156h-467z" />
<glyph unicode="&#x13a;" horiz-adv-x="278" d="M117 727l87 199l168 -98l-121 -101h-134zM2 0l96 682h175l-96 -682h-175z" />
<glyph unicode="&#x13b;" horiz-adv-x="560" d="M12 0l96 682h175l-73 -526h291l-22 -156h-467zM76 -259l49 177h158l-85 -177h-122z" />
<glyph unicode="&#x13c;" horiz-adv-x="280" d="M3 0l96 682h175l-96 -682h-175zM-42 -235l49 177h158l-85 -177h-122z" />
<glyph unicode="&#x13d;" horiz-adv-x="572" d="M12 0l96 682h175l-73 -526h291l-22 -156h-467zM441 681h134l-66 -178l-109 -2z" />
<glyph unicode="&#x13e;" horiz-adv-x="438" d="M339 682h130l-72 -183h-94zM2 0l96 682h175l-96 -682h-175z" />
<glyph unicode="&#x13f;" horiz-adv-x="560" d="M12 0l96 682h175l-73 -526h291l-22 -156h-467zM495 328q-34 0 -59.5 26t-25.5 61t25.5 60t59.5 25q35 0 60.5 -25t25.5 -60t-26 -61t-60 -26z" />
<glyph unicode="&#x140;" horiz-adv-x="476" d="M2 0l96 682h175l-96 -682h-175zM372 255q-39 0 -65.5 25t-26.5 65t26.5 65.5t65.5 25.5q24 0 44.5 -11.5t32.5 -32.5t12 -47q0 -41 -25.5 -65.5t-63.5 -24.5z" />
<glyph unicode="&#x141;" horiz-adv-x="582" d="M523 156l-22 -156h-467l31 227l-27 -11l-50 130l99 37l43 299h175l-31 -227l109 41l50 -131l-181 -68l-20 -141h291z" />
<glyph unicode="&#x142;" horiz-adv-x="377" d="M378 325l-114 -21l-43 -304h-175l38 271l-63 -12l-19 139l103 20l37 264h175l-33 -230l76 15z" />
<glyph unicode="&#x143;" horiz-adv-x="694" d="M325 719l103 203l149 -115l-117 -88h-135zM12 0l96 682h168l175 -363l56 363h176l-96 -682h-172l-179 359l-49 -359h-175z" />
<glyph unicode="&#x144;" horiz-adv-x="581" d="M244 576l103 203l148 -115l-117 -88h-134zM2 0l73 518h135l13 -47q11 15 35.5 29t56.5 22.5t61 8.5q38 0 69 -11t55.5 -34.5t35 -65.5t2.5 -99l-46 -321h-177l44 310q5 36 -12 57t-45 21q-19 0 -35.5 -9t-28 -27t-14.5 -42l-44 -310h-178z" />
<glyph unicode="&#x145;" horiz-adv-x="694" d="M12 0l96 682h168l175 -363l56 363h176l-96 -682h-172l-179 359l-49 -359h-175zM166 -237l49 177h158l-85 -177h-122z" />
<glyph unicode="&#x146;" horiz-adv-x="581" d="M2 1l73 518h135l13 -47q11 15 35.5 28.5t56.5 22.5t61 9q38 0 69 -11t55.5 -34.5t35 -65.5t2.5 -99l-46 -321h-177l44 310q5 36 -12 57t-45 21q-19 0 -35.5 -9t-28 -27t-14.5 -42l-44 -310h-178zM123 -221l49 178h158l-85 -178h-122z" />
<glyph unicode="&#x147;" horiz-adv-x="694" d="M336 725l-91 97l80 91l101 -51l118 52l54 -86l-118 -103h-144zM12 0l96 682h168l175 -363l56 363h176l-96 -682h-172l-179 359l-49 -359h-175z" />
<glyph unicode="&#x148;" horiz-adv-x="581" d="M263 587l-91 97l80 91l101 -51l118 52l54 -86l-118 -103h-144zM2 0l73 518h135l13 -47q11 15 35.5 29t56.5 22.5t61 8.5q38 0 69 -11t55.5 -34.5t35 -65.5t2.5 -99l-46 -321h-177l44 310q5 36 -12 57t-45 21q-19 0 -35.5 -9t-28 -27t-14.5 -42l-44 -310h-178z" />
<glyph unicode="&#x14c;" horiz-adv-x="699" d="M227 743l16 117h357l-15 -117h-358zM300 -11q-68 0 -122.5 24t-91.5 68t-52.5 111.5t-3.5 151.5q24 167 124 258.5t245 91.5q68 0 123 -23t92.5 -66.5t53 -110.5t3.5 -150q-24 -171 -122 -263t-249 -92zM323 148q64 0 109.5 46.5t59.5 149.5q8 51 1 89.5t-25.5 60 t-41.5 31.5t-50 10q-59 0 -107 -46t-62 -145q-6 -55 -0.5 -92t23.5 -60.5t41 -33.5t52 -10z" />
<glyph unicode="&#x14d;" d="M145 596l16 117h357l-15 -117h-358zM238 -10q-46 0 -88.5 16.5t-76 47.5t-49.5 84.5t-7 120.5q10 69 40.5 123t73 84.5t89 46t94.5 15.5q36 0 70 -9t65.5 -30t53 -51.5t31 -76.5t2.5 -102q-10 -68 -37.5 -120.5t-68 -84.5t-89 -48t-103.5 -16zM257 141q41 0 72 30t40 89 q8 65 -14 93t-63 28q-38 0 -69.5 -29t-40.5 -92q-8 -57 13.5 -88t61.5 -31z" />
<glyph unicode="&#x14e;" horiz-adv-x="699" d="M403 724q-59 0 -104.5 26t-61.5 61l95 82q12 -17 38.5 -29t50.5 -12q25 0 51 11.5t45 30.5l76 -85q-25 -33 -78 -59t-112 -26zM300 -11q-68 0 -122.5 24t-91.5 68t-52.5 111.5t-3.5 151.5q24 167 124 258.5t245 91.5q68 0 123 -23t92.5 -66.5t53 -110.5t3.5 -150 q-24 -171 -122 -263t-249 -92zM323 148q64 0 109.5 46.5t59.5 149.5q8 51 1 89.5t-25.5 60t-41.5 31.5t-50 10q-59 0 -107 -46t-62 -145q-6 -55 -0.5 -92t23.5 -60.5t41 -33.5t52 -10z" />
<glyph unicode="&#x14f;" d="M320 577q-59 0 -104.5 26t-61.5 61l95 82q12 -17 38 -29t51 -12q24 0 50 11.5t46 30.5l76 -85q-12 -15 -31 -29.5t-43.5 -27.5t-55 -20.5t-60.5 -7.5zM238 -10q-46 0 -88.5 16.5t-76 47.5t-49.5 84.5t-7 120.5q10 69 40.5 123t73 84.5t89 46t94.5 15.5q36 0 70 -9 t65.5 -30t53 -51.5t31 -76.5t2.5 -102q-10 -68 -37.5 -120.5t-68 -84.5t-89 -48t-103.5 -16zM257 141q41 0 72 30t40 89q8 65 -14 93t-63 28q-38 0 -69.5 -29t-40.5 -92q-8 -57 13.5 -88t61.5 -31z" />
<glyph unicode="&#x150;" horiz-adv-x="699" d="M365 732h-125l66 203l158 -52zM565 732h-125l66 203l158 -52zM300 -11q-68 0 -122.5 24t-91.5 68t-52.5 111.5t-3.5 151.5q24 167 124 258.5t245 91.5q68 0 123 -23t92.5 -66.5t53 -110.5t3.5 -150q-24 -171 -122 -263t-249 -92zM323 148q64 0 109.5 46.5t59.5 149.5 q8 51 1 89.5t-25.5 60t-41.5 31.5t-50 10q-59 0 -107 -46t-62 -145q-6 -55 -0.5 -92t23.5 -60.5t41 -33.5t52 -10z" />
<glyph unicode="&#x151;" d="M280 586h-124l66 202l157 -52zM481 586h-126l66 202l159 -52zM238 -10q-46 0 -88.5 16.5t-76 47.5t-49.5 84.5t-7 120.5q10 69 40.5 123t73 84.5t89 46t94.5 15.5q36 0 70 -9t65.5 -30t53 -51.5t31 -76.5t2.5 -102q-10 -68 -37.5 -120.5t-68 -84.5t-89 -48t-103.5 -16z M257 141q41 0 72 30t40 89q8 65 -14 93t-63 28q-38 0 -69.5 -29t-40.5 -92q-8 -57 13.5 -88t61.5 -31z" />
<glyph unicode="&#x152;" horiz-adv-x="1021" d="M487 0l7 52q-88 -63 -214 -63q-67 0 -121.5 24t-92 68t-52.5 111.5t-3 151.5q24 167 124 258.5t245 91.5q122 0 195 -69l8 57h479l-22 -159h-304l-14 -106h236l-22 -151h-236l-15 -108h304l-22 -158h-480zM303 148q64 0 110 46.5t60 149.5q8 51 0.5 89.5t-25.5 60 t-41 31.5t-50 10q-59 0 -107 -46t-62 -145q-14 -102 20 -149t95 -47z" />
<glyph unicode="&#x153;" horiz-adv-x="926" d="M653 -9q-66 0 -120.5 23.5t-86.5 69.5q-82 -94 -222 -94q-47 0 -89 16.5t-76 47.5t-49.5 84.5t-6.5 120.5q10 69 40 123t73 84.5t89.5 46t94.5 15.5q27 0 53.5 -5.5t52 -17t48 -30.5t38.5 -43q41 47 97 71.5t116 24.5q50 0 92.5 -15.5t74.5 -45.5t45.5 -81t4.5 -116 l-9 -60h-345q-3 -36 26 -59t77 -23q37 0 76 12t66 28l54 -117q-88 -60 -214 -60zM583 314h183q7 39 -16.5 60.5t-64.5 21.5q-34 0 -62 -22t-40 -60zM243 141q41 0 72 30t39 89q9 65 -13.5 93t-63.5 28q-37 0 -68.5 -29t-40.5 -92q-8 -57 13 -88t62 -31z" />
<glyph unicode="&#x154;" horiz-adv-x="648" d="M278 723l103 202l149 -114l-117 -88h-135zM12 0l96 682h251q141 0 206.5 -66.5t50.5 -169.5q-17 -129 -139 -183l93 -263h-195l-65 220h-92l-31 -220h-175zM240 375h76q98 0 110 77q3 22 -3.5 37.5t-21.5 22.5t-30 10t-34 3h-76z" />
<glyph unicode="&#x155;" horiz-adv-x="406" d="M156 574l102 203l149 -115l-117 -88h-134zM2 0l73 518h129l11 -52q16 25 58 43t83 18q29 0 52 -4l-22 -160q-25 3 -43 3q-39 0 -63 -8.5t-39.5 -31.5t-20.5 -64l-38 -262h-180z" />
<glyph unicode="&#x156;" horiz-adv-x="648" d="M12 0l96 682h251q141 0 206.5 -66.5t50.5 -169.5q-17 -129 -139 -183l93 -263h-195l-65 220h-92l-31 -220h-175zM240 375h76q98 0 110 77q3 22 -3.5 37.5t-21.5 22.5t-30 10t-34 3h-76zM139 -219l49 178h159l-86 -178h-122z" />
<glyph unicode="&#x157;" horiz-adv-x="406" d="M2 0l73 518h129l11 -52q16 25 58 43t83 18q29 0 52 -4l-22 -160q-25 3 -43 3q-39 0 -63 -8.5t-39.5 -31.5t-20.5 -64l-38 -262h-180zM-34 -222l49 178h159l-86 -178h-122z" />
<glyph unicode="&#x158;" horiz-adv-x="648" d="M289 728l-91 97l80 91l101 -51l118 52l54 -86l-118 -103h-144zM12 0l96 682h251q141 0 206.5 -66.5t50.5 -169.5q-17 -129 -139 -183l93 -263h-195l-65 220h-92l-31 -220h-175zM240 375h76q98 0 110 77q3 22 -3.5 37.5t-21.5 22.5t-30 10t-34 3h-76z" />
<glyph unicode="&#x159;" horiz-adv-x="406" d="M175 584l-91 97l80 91l101 -51l118 52l54 -86l-118 -103h-144zM2 0l73 518h129l11 -52q16 25 58 43t83 18q29 0 52 -4l-22 -160q-25 3 -43 3q-39 0 -63 -8.5t-39.5 -31.5t-20.5 -64l-38 -262h-180z" />
<glyph unicode="&#x15a;" horiz-adv-x="589" d="M275 721l102 203l149 -115l-117 -88h-134zM250 -12q-82 0 -150 30t-112 77l122 122q27 -28 71.5 -47.5t87.5 -19.5q86 0 93 48q2 18 -5 29.5t-26.5 19.5t-57.5 14q-46 7 -84 23t-69 42t-46 66t-8 90q13 92 89 150.5t194 58.5q72 0 131 -24t98 -64l-117 -120 q-20 19 -64.5 37t-77.5 18q-39 0 -62 -14t-26 -36q-2 -27 19.5 -38t83.5 -19q106 -13 167 -71t44 -154q-18 -106 -95 -162t-200 -56z" />
<glyph unicode="&#x15b;" horiz-adv-x="484" d="M197 576l103 203l148 -115l-117 -88h-134zM190 -14q-50 0 -112.5 17.5t-101.5 45.5l93 128q33 -20 74.5 -34t71.5 -14t41.5 8t14.5 24q1 7 -1.5 12.5t-9 9.5t-13 6.5t-20.5 5.5t-23.5 4.5l-28.5 4.5q-63 10 -102.5 50t-30.5 105q11 75 72.5 124t156.5 49q116 0 193 -46 l-76 -120q-5 3 -22 11.5t-49.5 18.5t-61.5 10q-22 0 -38 -8t-18 -23q-1 -8 4 -14.5t18 -10.5t24.5 -6.5t32.5 -5.5t33 -6q66 -12 100 -55.5t25 -110.5q-26 -180 -246 -180z" />
<glyph unicode="&#x15e;" horiz-adv-x="589" d="M355 -153q-8 -56 -50.5 -89.5t-112.5 -33.5q-26 0 -69 10l31 93q7 -4 51 -4q12 0 21.5 3.5t15 10t6.5 14.5q2 13 -7 20.5t-28 8.5l-42 1l31 110q-130 17 -214 104l122 122q27 -28 71.5 -47.5t87.5 -19.5q86 0 93 48q2 18 -5 29.5t-26.5 19.5t-57.5 14q-46 7 -84 23 t-69 42t-46 66t-8 90q13 92 89 150.5t194 58.5q72 0 131 -24t98 -64l-117 -120q-20 19 -64.5 37t-77.5 18q-39 0 -62 -14t-26 -36q-2 -27 19.5 -38t83.5 -19q106 -13 167 -71t44 -154q-17 -99 -86 -154.5t-180 -62.5l-5 -25q38 -6 63 -35.5t18 -81.5z" />
<glyph unicode="&#x15f;" horiz-adv-x="484" d="M290 -157q-8 -57 -50.5 -90t-112.5 -33q-26 0 -69 9l30 93q8 -3 52 -3q18 0 29.5 7.5t12.5 19.5q3 13 -6 20.5t-28 8.5l-42 1l31 114q-101 16 -161 59l93 128q33 -20 74.5 -34t71.5 -14t41.5 8t14.5 24q1 7 -1.5 12.5t-9 9.5t-13 6.5t-20.5 5.5t-23.5 4.5l-28.5 4.5 q-63 10 -102.5 50t-30.5 105q11 75 72.5 124t156.5 49q116 0 193 -46l-76 -120q-5 3 -22 11.5t-49.5 18.5t-61.5 10q-22 0 -38 -8t-18 -23q-1 -8 4 -14.5t18 -10.5t24.5 -6.5t32.5 -5.5t33 -6q66 -12 100 -55.5t25 -110.5q-24 -170 -221 -179l-7 -27q38 -7 63.5 -36 t18.5 -81z" />
<glyph unicode="&#x160;" horiz-adv-x="589" d="M285 726l-91 97l81 91l100 -51l118 52l54 -86l-118 -103h-144zM250 -12q-82 0 -150 30t-112 77l122 122q27 -28 71.5 -47.5t87.5 -19.5q86 0 93 48q2 18 -5 29.5t-26.5 19.5t-57.5 14q-46 7 -84 23t-69 42t-46 66t-8 90q13 92 89 150.5t194 58.5q72 0 131 -24t98 -64 l-117 -120q-20 19 -64.5 37t-77.5 18q-39 0 -62 -14t-26 -36q-2 -27 19.5 -38t83.5 -19q106 -13 167 -71t44 -154q-18 -106 -95 -162t-200 -56z" />
<glyph unicode="&#x161;" horiz-adv-x="484" d="M216 586l-91 97l80 91l101 -51l118 52l54 -86l-118 -103h-144zM190 -14q-50 0 -112.5 17.5t-101.5 45.5l93 128q33 -20 74.5 -34t71.5 -14t41.5 8t14.5 24q1 7 -1.5 12.5t-9 9.5t-13 6.5t-20.5 5.5t-23.5 4.5l-28.5 4.5q-63 10 -102.5 50t-30.5 105q11 75 72.5 124 t156.5 49q116 0 193 -46l-76 -120q-5 3 -22 11.5t-49.5 18.5t-61.5 10q-22 0 -38 -8t-18 -23q-1 -8 4 -14.5t18 -10.5t24.5 -6.5t32.5 -5.5t33 -6q66 -12 100 -55.5t25 -110.5q-26 -180 -246 -180z" />
<glyph unicode="&#x162;" horiz-adv-x="595" d="M353 -156q-8 -56 -50.5 -89t-112.5 -33q-26 0 -69 9l31 93q7 -4 52 -4q17 0 28.5 8t13.5 20q2 13 -7 20.5t-28 8.5l-42 1l35 122h-42l74 529h-185l21 152h548l-21 -152h-187l-74 -529h-57l-9 -38q38 -7 63 -36t18 -82z" />
<glyph unicode="&#x163;" horiz-adv-x="369" d="M254 -134q-8 -57 -50.5 -90t-112.5 -33q-26 0 -69 9l31 93q7 -3 52 -3q17 0 28.5 7.5t13.5 19.5q2 13 -7 21t-28 8l-42 1l34 120q-66 35 -53 126l34 240h-60l19 133h62l50 138h146l-19 -138h85l-20 -133h-84l-26 -180q-6 -41 6 -53t48 -12h18l-19 -136q-27 -7 -82 -7 q-11 0 -32 2l-4 -16q38 -7 63 -36t18 -81z" />
<glyph unicode="&#x164;" horiz-adv-x="595" d="M278 733l-91 97l81 92l101 -51l118 52l53 -86l-118 -104h-144zM161 0l74 529h-185l21 152h548l-21 -152h-187l-74 -529h-176z" />
<glyph unicode="&#x165;" horiz-adv-x="484" d="M398 696h120l-50 -157h-94zM51 145l34 240h-60l19 133h62l50 138h146l-19 -138h85l-20 -133h-84l-26 -180q-6 -41 6 -53t48 -12h18l-19 -136q-27 -7 -82 -7q-87 0 -127.5 37.5t-30.5 110.5z" />
<glyph unicode="&#x16a;" horiz-adv-x="654" d="M201 737l16 117h357l-15 -117h-358zM277 -10q-57 0 -105 18t-82.5 53t-49.5 93t-4 131l55 397h177l-56 -396q-10 -65 18 -96.5t71 -31.5q45 0 81 31.5t45 96.5l56 396h177l-56 -397q-9 -59 -31 -108.5t-53 -83.5t-70.5 -57.5t-82.5 -34.5t-90 -11z" />
<glyph unicode="&#x16b;" horiz-adv-x="596" d="M153 593l16 117h357l-15 -117h-358zM199 -13q-37 0 -69.5 11.5t-60.5 36.5t-40.5 72t-3.5 110q42 299 42 301h192l-42 -302q-4 -28 2.5 -48t19 -28t29.5 -8q18 0 32.5 8.5t26 28t15.5 47.5l42 302h187l-73 -518h-145l-11 52q-22 -29 -61 -47t-82 -18z" />
<glyph unicode="&#x16c;" horiz-adv-x="654" d="M378 718q-59 0 -104.5 26t-61.5 61l95 82q12 -17 38.5 -29t50.5 -12q17 0 34 5t33.5 15t28.5 22l76 -84q-15 -21 -43 -40t-67.5 -32.5t-79.5 -13.5zM277 -10q-57 0 -105 18t-82.5 53t-49.5 93t-4 131l55 397h177l-56 -396q-10 -65 18 -96.5t71 -31.5q45 0 81 31.5 t45 96.5l56 396h177l-56 -397q-9 -59 -31 -108.5t-53 -83.5t-70.5 -57.5t-82.5 -34.5t-90 -11z" />
<glyph unicode="&#x16d;" horiz-adv-x="596" d="M329 575q-59 0 -104.5 26t-61.5 61l95 82q12 -17 38.5 -29t51.5 -12q16 0 33 5t33.5 14.5t29.5 22.5l75 -85q-15 -20 -43 -39t-67.5 -32.5t-79.5 -13.5zM199 -13q-37 0 -69.5 11.5t-60.5 36.5t-40.5 72t-3.5 110q42 299 42 301h192l-42 -302q-4 -28 2.5 -48t19 -28 t29.5 -8q18 0 32.5 8.5t26 28t15.5 47.5l42 302h187l-73 -518h-145l-11 52q-22 -29 -61 -47t-82 -18z" />
<glyph unicode="&#x16e;" horiz-adv-x="654" d="M389 708q-50 0 -89 37t-39 89q0 54 39 92t89 38t89 -38t39 -92q0 -34 -18.5 -63.5t-48 -46t-61.5 -16.5zM389 797q17 0 28 11.5t11 28.5t-11 28t-28 11t-28.5 -11t-11.5 -28q0 -7 2 -13t6 -11t8.5 -8.5t10.5 -5.5t13 -2zM277 -10q-57 0 -105 18t-82.5 53t-49.5 93t-4 131 l55 397h177l-56 -396q-10 -65 18 -96.5t71 -31.5q45 0 81 31.5t45 96.5l56 396h177l-56 -397q-9 -59 -31 -108.5t-53 -83.5t-70.5 -57.5t-82.5 -34.5t-90 -11z" />
<glyph unicode="&#x16f;" horiz-adv-x="596" d="M342 570q-50 0 -89 37.5t-39 89.5q0 54 38.5 92t89.5 38q32 0 61.5 -17t48 -47t18.5 -66q0 -52 -39.5 -89.5t-88.5 -37.5zM342 660q17 0 28 11t11 28.5t-11 28.5t-28 11t-28.5 -11t-11.5 -28q0 -9 3.5 -16.5t8.5 -12.5t12.5 -8t15.5 -3zM199 -13q-37 0 -69.5 11.5 t-60.5 36.5t-40.5 72t-3.5 110q42 299 42 301h192l-42 -302q-4 -28 2.5 -48t19 -28t29.5 -8q18 0 32.5 8.5t26 28t15.5 47.5l42 302h187l-73 -518h-145l-11 52q-22 -29 -61 -47t-82 -18z" />
<glyph unicode="&#x170;" horiz-adv-x="654" d="M303 727h-124l66 202l157 -52zM504 727h-126l66 202l159 -52zM277 -10q-57 0 -105 18t-82.5 53t-49.5 93t-4 131l55 397h177l-56 -396q-10 -65 18 -96.5t71 -31.5q45 0 81 31.5t45 96.5l56 396h177l-56 -397q-9 -59 -31 -108.5t-53 -83.5t-70.5 -57.5t-82.5 -34.5 t-90 -11z" />
<glyph unicode="&#x171;" horiz-adv-x="596" d="M289 584h-125l66 202l158 -52zM490 584h-126l66 202l158 -52zM199 -13q-37 0 -69.5 11.5t-60.5 36.5t-40.5 72t-3.5 110q42 299 42 301h192l-42 -302q-4 -28 2.5 -48t19 -28t29.5 -8q18 0 32.5 8.5t26 28t15.5 47.5l42 302h187l-73 -518h-145l-11 52q-22 -29 -61 -47 t-82 -18z" />
<glyph unicode="&#x172;" horiz-adv-x="654" d="M430 -57l-19 -132h-132q-34 0 -57.5 13.5t-32 35t-5 48t20.5 51.5q10 14 29 34q-104 13 -160.5 87.5t-37.5 204.5l55 397h177l-56 -396q-10 -65 18 -96.5t71 -31.5q45 0 81 31.5t45 96.5l56 396h177l-56 -397q-26 -177 -159 -252l-85 -83q-3 -2 -2.5 -4.5t3.5 -2.5h69z " />
<glyph unicode="&#x173;" horiz-adv-x="596" d="M483 -89l-19 -133h-132q-34 0 -57.5 14t-32.5 35t-5 47.5t21 51.5q18 25 90 99l-6 27q-22 -29 -61 -47t-82 -18q-37 0 -69.5 11.5t-60.5 36.5t-40.5 72t-3.5 110q42 299 42 301h192l-42 -302q-4 -28 2.5 -48t19 -28t29.5 -8q18 0 32.5 8.5t26 28t15.5 47.5l42 302h187 l-73 -518l-85 -83q-3 -2 -2.5 -4t3.5 -2h69z" />
<glyph unicode="&#x174;" horiz-adv-x="904" d="M397 705l-53 85l118 104h144l92 -97l-82 -91l-101 50zM147 0l-89 682h183l36 -383l167 372h120l55 -373l137 384h188l-278 -682h-168l-52 289l-133 -289h-166z" />
<glyph unicode="&#x175;" horiz-adv-x="801" d="M331 563l-54 85l119 104h144l92 -97l-82 -91l-102 50zM122 0l-86 518h187l27 -270l117 270h122l42 -270l98 270h186l-228 -518h-167l-39 216l-100 -216h-159z" />
<glyph unicode="&#x176;" horiz-adv-x="635" d="M261 708l-54 85l118 104h144l93 -97l-82 -92l-102 51zM179 0l34 249l-156 433h198l75 -248l142 248h203l-286 -433l-35 -249h-175z" />
<glyph unicode="&#x177;" horiz-adv-x="567" d="M207 563l-53 85l118 104h144l92 -97l-82 -91l-102 50zM219 -200h-158l102 198l-2 2l-125 518h192l36 -312l126 312h191z" />
<glyph unicode="&#x178;" horiz-adv-x="635" d="M275 725q-34 0 -60 25.5t-26 59.5q0 36 26 61.5t60 25.5q33 0 59 -25.5t26 -61.5q0 -34 -26.5 -59.5t-58.5 -25.5zM491.5 725q-32.5 0 -59 25.5t-26.5 59.5q0 36 26 61.5t60 25.5q21 0 40.5 -11.5t32 -31.5t12.5 -44q0 -34 -26.5 -59.5t-59 -25.5zM179 0l34 249l-156 433 h198l75 -248l142 248h203l-286 -433l-35 -249h-175z" />
<glyph unicode="&#x179;" horiz-adv-x="577" d="M249 723l102 202l149 -114l-117 -88h-134zM-22 0l24 169l329 344h-271l24 169h497l-24 -169l-329 -344h290l-24 -169h-516z" />
<glyph unicode="&#x17a;" horiz-adv-x="475" d="M182 570l103 203l149 -114l-117 -89h-135zM-17 0l17 117l242 259h-198l19 142h400l-18 -122l-232 -253h204l-21 -143h-413z" />
<glyph unicode="&#x17b;" horiz-adv-x="577" d="M340 729q-35 0 -60.5 25.5t-25.5 60.5t25.5 60t60.5 25q34 0 59.5 -25t25.5 -60t-25.5 -60.5t-59.5 -25.5zM-22 0l24 169l329 344h-271l24 169h497l-24 -169l-329 -344h290l-24 -169h-516z" />
<glyph unicode="&#x17c;" horiz-adv-x="475" d="M282 581q-34 0 -59.5 25.5t-25.5 60.5t25.5 60.5t59.5 25.5t60 -25.5t26 -60.5t-26 -60.5t-60 -25.5zM-17 0l17 117l242 259h-198l19 142h400l-18 -122l-232 -253h204l-21 -143h-413z" />
<glyph unicode="&#x17d;" horiz-adv-x="577" d="M259 728l-91 97l81 91l100 -51l119 52l53 -86l-118 -103h-144zM-22 0l24 169l329 344h-271l24 169h497l-24 -169l-329 -344h290l-24 -169h-516z" />
<glyph unicode="&#x17e;" horiz-adv-x="475" d="M215 580l-91 97l80 91l101 -51l118 52l54 -85l-118 -104h-144zM-17 0l17 117l242 259h-198l19 142h400l-18 -122l-232 -253h204l-21 -143h-413z" />
<glyph unicode="&#x1dd;" horiz-adv-x="578" d="M285 525q55 0 102 -16t81.5 -47.5t50 -83t5.5 -117.5q-11 -86 -56 -149t-106 -93.5t-129 -30.5q-51 0 -93 15.5t-74 46t-45.5 81t-4.5 116.5l9 59h345q1 18 -6 33.5t-20.5 26t-33 17t-43.5 6.5q-38 0 -76.5 -12t-65.5 -29l-54 118q88 59 214 59zM355 203h-183 q-7 -40 16.5 -61t63.5 -21q23 0 43 9t36 28t24 45z" />
<glyph unicode="&#x1fa;" horiz-adv-x="685" d="M354 1004l103 203l149 -115l-117 -88h-135zM406 712q-50 0 -89 37.5t-39 89.5q0 54 39 92t89 38q32 0 61.5 -17t48.5 -47t19 -66q0 -52 -39.5 -89.5t-89.5 -37.5zM406 802q17 0 28 11.5t11 28.5t-11 28t-28 11t-28 -11t-11 -28t11 -28.5t28 -11.5zM446 0l-19 103h-230 l-47 -103h-186l332 682h185l145 -682h-180zM360 460l-99 -217h139z" />
<glyph unicode="&#x1fb;" horiz-adv-x="621" d="M319 858l102 203l149 -114l-117 -89h-134zM369 560q-33 0 -62 16.5t-47.5 46t-18.5 63.5q0 55 38.5 92.5t89.5 37.5q49 0 88.5 -38t39.5 -92q0 -34 -18.5 -63.5t-48 -46t-61.5 -16.5zM369 649q17 0 28 11.5t11 29t-11 28.5t-28 11t-28.5 -11.5t-11.5 -28.5 q0 -11 5.5 -20.5t14.5 -14.5t20 -5zM239 -7q-42 0 -81.5 16.5t-71.5 48t-47 84.5t-6 118q8 56 29 102.5t48.5 76.5t61.5 50.5t67 29.5t65 9q40 0 78 -16.5t47 -36.5l30 43h140l-80 -518h-133l-10 50q-21 -27 -59 -42t-78 -15zM283.5 141q39.5 0 70 30.5t39.5 89.5 q8 63 -13.5 91.5t-62.5 28.5q-36 0 -67.5 -29t-40.5 -91q-9 -59 13 -89.5t61.5 -30.5z" />
<glyph unicode="&#x1fc;" horiz-adv-x="952" d="M489 734l102 203l149 -114l-117 -89h-134zM-56 0l426 682h585l-22 -159h-301l-16 -103h235l-23 -158h-234l-14 -104h301l-23 -158h-476l17 122h-184l-76 -122h-195zM308 271h112l32 231z" />
<glyph unicode="&#x1fd;" horiz-adv-x="844" d="M361 581l103 202l148 -114l-117 -88h-134zM771 51q-88 -60 -214 -60q-112 0 -179 60q-73 -59 -191 -59q-106 0 -160 45.5t-44 116.5q10 68 74 115.5t171 47.5q15 0 43.5 -2.5t34.5 -5.5l2 16q4 30 -12 45t-46 15q-50 0 -80 -32l-117 70q33 46 91.5 75.5t131.5 29.5 q104 0 158 -60q78 60 175 60q50 0 92.5 -15.5t74.5 -45.5t45.5 -81t4.5 -116l-9 -60h-345q-3 -36 26 -59t77 -23q37 0 76 12t66 28zM487 314h183q7 39 -16.5 60.5t-64.5 21.5q-34 0 -62 -22t-40 -60zM209 117q23 0 40.5 10t26.5 24.5t12 30.5l2 22q-28 7 -55 6 q-79 0 -86 -46q-2 -22 13.5 -34.5t46.5 -12.5z" />
<glyph unicode="&#x1fe;" horiz-adv-x="679" d="M297 731l102 202l149 -114l-117 -88h-134zM300 -11q-90 0 -155 41l-42 -49l-77 63l47 54q-64 95 -43 246q24 167 124 258.5t245 91.5q91 0 159 -41l42 48l76 -63l-47 -53q63 -94 42 -241q-24 -171 -122 -263t-249 -92zM207 344q-7 -53 -1 -93l234 266q-27 18 -64 18 q-59 0 -107 -46t-62 -145zM492 344q7 48 1 85l-232 -266q27 -15 62 -15q64 0 109.5 46.5t59.5 149.5z" />
<glyph unicode="&#x1ff;" d="M240 565l103 203l149 -114l-118 -89h-134zM238 -10q-64 0 -117 29l-36 -40l-62 50l37 41q-59 74 -43 189q10 69 40.5 123t73 84.5t89 46t94.5 15.5q66 0 120 -30l32 36l62 -51l-33 -37q57 -72 41 -187q-10 -68 -37.5 -120.5t-68 -84.5t-89 -48t-103.5 -16zM182 260 q-4 -27 -1 -50l145 165q-15 6 -34 6q-38 0 -69.5 -29t-40.5 -92zM369 260q3 27 2 43l-140 -158q11 -4 26 -4q41 0 72 30t40 89z" />
<glyph unicode="&#x218;" horiz-adv-x="589" d="M250 -12q-82 0 -150 30t-112 77l122 122q27 -28 71.5 -47.5t87.5 -19.5q86 0 93 48q2 18 -5 29.5t-26.5 19.5t-57.5 14q-46 7 -84 23t-69 42t-46 66t-8 90q13 92 89 150.5t194 58.5q72 0 131 -24t98 -64l-117 -120q-20 19 -64.5 37t-77.5 18q-39 0 -62 -14t-26 -36 q-2 -27 19.5 -38t83.5 -19q106 -13 167 -71t44 -154q-18 -106 -95 -162t-200 -56zM129 -218l49 178h158l-85 -178h-122z" />
<glyph unicode="&#x219;" horiz-adv-x="484" d="M190 -14q-50 0 -112.5 17.5t-101.5 45.5l93 128q33 -20 74.5 -34t71.5 -14t41.5 8t14.5 24q1 7 -1.5 12.5t-9 9.5t-13 6.5t-20.5 5.5t-23.5 4.5l-28.5 4.5q-63 10 -102.5 50t-30.5 105q11 75 72.5 124t156.5 49q116 0 193 -46l-76 -120q-5 3 -22 11.5t-49.5 18.5 t-61.5 10q-22 0 -38 -8t-18 -23q-1 -8 4 -14.5t18 -10.5t24.5 -6.5t32.5 -5.5t33 -6q66 -12 100 -55.5t25 -110.5q-26 -180 -246 -180zM61 -222l49 178h159l-86 -178h-122z" />
<glyph unicode="&#x21a;" horiz-adv-x="595" d="M162 0l74 529h-185l21 152h548l-21 -152h-187l-74 -529h-176zM120 -222l49 178h158l-85 -178h-122z" />
<glyph unicode="&#x21b;" horiz-adv-x="368" d="M51 145l34 240h-60l19 133h62l50 138h146l-19 -138h85l-20 -133h-84l-26 -180q-6 -41 6 -53t48 -12h18l-19 -136q-27 -7 -82 -7q-87 0 -127.5 37.5t-30.5 110.5zM18 -226l49 178h159l-86 -178h-122z" />
<glyph unicode="&#x2c6;" horiz-adv-x="364" d="M98 527l-54 85l118 104h144l92 -97l-81 -91l-102 51z" />
<glyph unicode="&#x2c7;" horiz-adv-x="363" d="M137 528l-91 97l81 91l101 -51l118 52l53 -85l-118 -104h-144z" />
<glyph unicode="&#x2d8;" horiz-adv-x="367" d="M215 562q-59 0 -104.5 25.5t-61.5 61.5l95 82q6 -9 16.5 -16.5t22.5 -13t25 -9t25 -3.5q24 0 50.5 12t45.5 31l76 -85q-25 -33 -78 -59t-112 -26z" />
<glyph unicode="&#x2d9;" horiz-adv-x="184" d="M132 539q-34 0 -59.5 25.5t-25.5 60.5t25.5 60t59.5 25q35 0 60.5 -25t25.5 -60t-25.5 -60.5t-60.5 -25.5z" />
<glyph unicode="&#x2da;" horiz-adv-x="270" d="M174 492q-50 0 -89 37.5t-39 89.5q0 36 18.5 66t47.5 47t62 17q32 0 61.5 -17t48 -47t18.5 -66q0 -52 -39.5 -89.5t-88.5 -37.5zM174 582q17 0 28 11.5t11 28.5t-11 28t-28 11t-28.5 -11t-11.5 -28q0 -11 5.5 -20.5t14.5 -14.5t20 -5z" />
<glyph unicode="&#x2db;" horiz-adv-x="315" d="M197 -234h-132q-34 0 -57.5 13.5t-32.5 35t-5 48t21 51.5q28 38 98 106q6 5 28.5 9t42.5 6l20 1l51 -48l-85 -83q-3 -2 -2.5 -4.5t3.5 -2.5h69z" />
<glyph unicode="&#x2dc;" horiz-adv-x="454" d="M33 533q10 53 51 95t95 46q36 2 65 -7.5t54 -21.5t46 -13q24 -2 39.5 10t28.5 39l80 -30q-9 -50 -52.5 -96t-94.5 -49q-36 -3 -60 6.5t-47 21.5t-53 14q-50 3 -84 -40l-17 6t-34 13z" />
<glyph unicode="&#x2dd;" horiz-adv-x="414" d="M155 510h-125l66 202l157 -52zM355 510h-126l67 202l158 -52z" />
<glyph unicode="&#x1e80;" horiz-adv-x="904" d="M440 720l-80 107l184 97l39 -204h-143zM147 0l-89 682h183l36 -383l167 372h120l55 -373l137 384h188l-278 -682h-168l-52 289l-133 -289h-166z" />
<glyph unicode="&#x1e81;" horiz-adv-x="801" d="M378 573l-79 107l184 98l38 -205h-143zM122 0l-86 518h187l27 -270l117 270h122l42 -270l98 270h186l-228 -518h-167l-39 216l-100 -216h-159z" />
<glyph unicode="&#x1e82;" horiz-adv-x="904" d="M428 717l103 203l149 -115l-117 -88h-135zM147 0l-89 682h183l36 -383l167 372h120l55 -373l137 384h188l-278 -682h-168l-52 289l-133 -289h-166z" />
<glyph unicode="&#x1e83;" horiz-adv-x="801" d="M353 570l103 203l149 -114l-117 -89h-135zM122 0l-86 518h187l27 -270l117 270h122l42 -270l98 270h186l-228 -518h-167l-39 216l-100 -216h-159z" />
<glyph unicode="&#x1e84;" horiz-adv-x="904" d="M409 722q-33 0 -59 25.5t-26 59.5q0 36 25.5 61.5t59.5 25.5q33 0 59 -25.5t26 -61.5q0 -34 -26 -59.5t-59 -25.5zM626 722q-33 0 -59.5 25.5t-26.5 59.5q0 36 26.5 61.5t59.5 25.5t59 -25.5t26 -61.5q0 -34 -26 -59.5t-59 -25.5zM147 0l-89 682h183l36 -383l167 372h120 l55 -373l137 384h188l-278 -682h-168l-52 289l-133 -289h-166z" />
<glyph unicode="&#x1e85;" horiz-adv-x="801" d="M346 584q-34 0 -60 25.5t-26 59.5q0 36 26 61.5t60 25.5q33 0 59 -26t26 -61q0 -34 -26.5 -59.5t-58.5 -25.5zM562.5 584q-32.5 0 -59 25.5t-26.5 59.5q0 35 26 61t59.5 26t59.5 -26t26 -61q0 -34 -26.5 -59.5t-59 -25.5zM122 0l-86 518h187l27 -270l117 270h122l42 -270 l98 270h186l-228 -518h-167l-39 216l-100 -216h-159z" />
<glyph unicode="&#x1ef2;" horiz-adv-x="635" d="M303 723l-79 106l184 98l38 -204h-143zM179 0l34 249l-156 433h198l75 -248l142 248h203l-286 -433l-35 -249h-175z" />
<glyph unicode="&#x1ef3;" horiz-adv-x="567" d="M253 574l-79 107l184 98l38 -205h-143zM219 -200h-158l102 198l-2 2l-125 518h192l36 -312l126 312h191z" />
<glyph unicode="&#x2000;" horiz-adv-x="603" />
<glyph unicode="&#x2001;" horiz-adv-x="1207" />
<glyph unicode="&#x2002;" horiz-adv-x="603" />
<glyph unicode="&#x2003;" horiz-adv-x="1207" />
<glyph unicode="&#x2004;" horiz-adv-x="402" />
<glyph unicode="&#x2005;" horiz-adv-x="301" />
<glyph unicode="&#x2006;" horiz-adv-x="201" />
<glyph unicode="&#x2007;" horiz-adv-x="201" />
<glyph unicode="&#x2008;" horiz-adv-x="150" />
<glyph unicode="&#x2009;" horiz-adv-x="241" />
<glyph unicode="&#x200a;" horiz-adv-x="67" />
<glyph unicode="&#x2010;" horiz-adv-x="409" d="M36 239l22 160h311l-22 -160h-311z" />
<glyph unicode="&#x2011;" horiz-adv-x="409" d="M36 239l22 160h311l-22 -160h-311z" />
<glyph unicode="&#x2012;" horiz-adv-x="409" d="M36 239l22 160h311l-22 -160h-311z" />
<glyph unicode="&#x2013;" horiz-adv-x="529" d="M37 238l23 160h426l-23 -160h-426z" />
<glyph unicode="&#x2014;" horiz-adv-x="878" d="M54 239l22 160h743l-22 -160h-743z" />
<glyph unicode="&#x2018;" horiz-adv-x="262" d="M88 682h158l-10 -236h-131z" />
<glyph unicode="&#x2019;" horiz-adv-x="262" d="M75 682h157l-56 -236h-131z" />
<glyph unicode="&#x201a;" horiz-adv-x="274" d="M190 235l-35 -235h-135l37 235h133z" />
<glyph unicode="&#x201c;" horiz-adv-x="477" d="M303 682h158l-10 -236h-131zM88 682h158l-10 -236h-131z" />
<glyph unicode="&#x201d;" horiz-adv-x="475" d="M288 682h157l-56 -236h-131zM75 682h157l-56 -236h-131z" />
<glyph unicode="&#x201e;" horiz-adv-x="500" d="M415 235l-36 -235h-134l36 235h134zM190 235l-35 -235h-135l37 235h133z" />
<glyph unicode="&#x2020;" horiz-adv-x="552" d="M156 91l48 344h-131l21 152h132l17 121h170l-17 -121h132l-21 -152h-132l-49 -344h-170z" />
<glyph unicode="&#x2021;" horiz-adv-x="552" d="M343 212l-17 -122h-170l17 122h-132l21 152h132l10 71h-131l21 152h132l17 121h170l-17 -121h132l-21 -152h-133l-9 -71h131l-21 -152h-132z" />
<glyph unicode="&#x2022;" horiz-adv-x="407" d="M204 230q-36 0 -64 14.5t-44.5 43t-16.5 66.5t16.5 66.5t44.5 43.5t64.5 15t64 -15t43.5 -43.5t16 -66.5q0 -57 -34 -90.5t-90 -33.5z" />
<glyph unicode="&#x2026;" horiz-adv-x="764" d="M106 -7q-39 0 -62 24.5t-21 62.5t26 61.5t62 23.5q39 0 62.5 -23.5t21.5 -61.5q-2 -39 -26.5 -63t-62.5 -24zM362 -7q-38 0 -61.5 24.5t-21.5 62.5q3 38 27 61.5t62 23.5t61.5 -23.5t21.5 -61.5q-2 -39 -26.5 -63t-62.5 -24zM614 -7q-38 0 -61 24t-21 63q2 38 26 61.5 t62 23.5q39 0 62 -23.5t22 -61.5q-3 -39 -27 -63t-63 -24z" />
<glyph unicode="&#x202f;" horiz-adv-x="241" />
<glyph unicode="&#x2039;" horiz-adv-x="339" d="M128 74l-95 166l8 57l141 164l111 -90l-90 -100l56 -107z" />
<glyph unicode="&#x203a;" horiz-adv-x="339" d="M189 456l95 -166l-8 -57l-142 -164l-110 90l90 100l-56 107z" />
<glyph unicode="&#x205f;" horiz-adv-x="301" />
<glyph unicode="&#x20ac;" horiz-adv-x="630" d="M517 12q-74 -23 -168 -23q-55 0 -103 13.5t-87.5 41t-65 74t-32.5 108.5h-56l13 93h43q1 4 2 11t1 11q1 4 2.5 12.5t1.5 12.5h-43l12 93h57q46 119 142 176t223 57q120 0 195 -34l-79 -155q-51 25 -133 25q-57 0 -92 -16t-56 -53h263l-43 -93h-251q0 -3 -0.5 -6l-1 -6 l-1 -6t-1.5 -6q-1 -12 -3 -23h233l-42 -93h-186q11 -37 41 -53.5t81 -16.5q79 0 158 27z" />
<glyph unicode="&#x2190;" horiz-adv-x="742" d="M300 23l-271 311l359 311l99 -116l-133 -116h331l-23 -158h-330l100 -116z" />
<glyph unicode="&#x2191;" horiz-adv-x="669" d="M210 26l47 330l-132 -115l-101 115l355 315l267 -315l-131 -115l-100 115l-46 -330h-159z" />
<glyph unicode="&#x2192;" horiz-adv-x="740" d="M349 23l-99 116l131 116h-330l23 158h330l-99 117l132 115l271 -311z" />
<glyph unicode="&#x2193;" horiz-adv-x="669" d="M288 16l-267 316l133 114l98 -116l48 331h157l-46 -330l131 115l101 -115z" />
<glyph unicode="&#x2212;" horiz-adv-x="604" d="M519 254h-458l21 142h457z" />
<glyph unicode="&#x25fc;" horiz-adv-x="518" d="M0 518h518v-518h-518v518z" />
<glyph unicode="&#xf6c3;" horiz-adv-x="192" d="M-73 -216l49 178h158l-85 -178h-122z" />
<glyph horiz-adv-x="414" d="M-25 -144l13 104l136 114q12 10 23.5 19.5t19 16t15 12.5t12 9.5t8.5 7.5t6 7t3.5 5.5t1.5 5.5q2 15 -6.5 23t-24.5 8q-30 0 -46 -30h-121q7 41 32 74.5t65.5 53t88.5 19.5q77 0 116.5 -43t30.5 -103q-1 -11 -4 -21.5t-9.5 -21t-11 -18t-14.5 -18t-14.5 -15.5 t-17.5 -15.5t-17 -13.5t-18 -14t-16 -12l-51 -44h146l-16 -110h-330z" />
<glyph horiz-adv-x="601" d="M542 206q-11 -84 -69.5 -138t-145.5 -72l-13 -93h-147l13 92q-60 11 -114 37t-85 63l134 130q29 -30 73 -49.5t96 -19.5q19 0 34 5t24.5 15t11.5 23q4 26 -12.5 41t-67.5 19q-46 4 -84.5 18t-70 39t-46.5 65.5t-8 92.5q12 82 67 137.5t144 72.5l12 86h146l-12 -86 q100 -19 161 -89l-134 -117q-19 22 -56 37.5t-71 15.5q-75 0 -80 -49q-2 -16 6.5 -26.5t29.5 -16t57 -7.5q51 -3 90.5 -16.5t69.5 -39t42.5 -69t4.5 -101.5z" />
<glyph horiz-adv-x="569" d="M519 190q-42 -159 -195 -192l-21 -83h-169l21 92q-71 26 -109.5 91.5t-26.5 157.5q16 107 78 175.5t151 88.5l20 95h174l-25 -104q57 -21 90 -68t32 -119h-168q-5 30 -20.5 45t-48.5 15q-35 0 -66 -31t-40 -97q-9 -62 13.5 -91t58.5 -29q20 0 36.5 7t28.5 19t18 28h168z " />
<glyph horiz-adv-x="640" d="M555 -62l-18 -13l-92 117q-62 -46 -156 -48q-41 0 -78.5 11.5t-71.5 37t-55.5 66t-31 98.5t3.5 135q24 177 100.5 261.5t196.5 84.5q53 0 98.5 -20.5t80.5 -61t49.5 -110.5t2.5 -160q-30 -201 -122 -280zM291 13q109 2 180 79t95 248q12 84 -2 150t-47.5 103.5t-76 56.5 t-91.5 19q-107 0 -178 -78.5t-96 -244.5q-12 -75 -4 -131t27.5 -94.5t51 -62.5t66.5 -34.5t75 -10.5z" />
</font>
</defs>
</svg>
