<?xml version="1.0" standalone="no"?>
<!DOCTYPE svg PUBLIC "-//W3C//DTD SVG 1.1//EN" "http://www.w3.org/Graphics/SVG/1.1/DTD/svg11.dtd" >
<svg xmlns="http://www.w3.org/2000/svg">
<metadata></metadata>
<defs>
<font id="klimaultralight_italic" horiz-adv-x="189" >
<font-face units-per-em="1000" ascent="764" descent="-236" />
<missing-glyph horiz-adv-x="500" />
<glyph horiz-adv-x="0" />
<glyph unicode="&#xd;" horiz-adv-x="220" />
<glyph unicode=" " />
<glyph unicode="!" horiz-adv-x="206" d="M63 167l40 278l42 301h22l-42 -301l-40 -278h-22zM54.5 1q-7.5 0 -13 6.5t-5.5 17t5.5 17t13 6.5t13.5 -6.5t6 -17t-6 -17t-13.5 -6.5z" />
<glyph unicode="&#x22;" horiz-adv-x="233" d="M187 570l25 176h21l-25 -176h-21zM80 570l25 176h21l-25 -176h-21z" />
<glyph unicode="#" horiz-adv-x="720" d="M354 0l68 244h-235l-68 -244h-23l68 244h-150l2 21h154l62 219h-185l3 21h187l69 241h23l-69 -241h236l68 241h23l-68 -241h189l-3 -21h-192l-61 -219h221l-2 -21h-226l-68 -244h-23zM193 265h235l62 219h-235z" />
<glyph unicode="$" horiz-adv-x="657" d="M548 192q-7 -48 -32.5 -86.5t-61.5 -62t-76.5 -36.5t-83.5 -14l-21 -151h-21l21 151q-81 2 -140 44t-83 99l20 10q21 -54 79 -93t136 -39q54 0 104 18.5t89.5 60t47.5 99.5q7 52 -2 88t-35.5 57t-63 31t-91.5 14q-107 8 -159 52.5t-40 130.5q9 61 44.5 104.5t89.5 65 t122 21.5l19 134h20l-18 -134q39 -1 69.5 -9.5t51 -23t32.5 -26t25 -29.5l-19 -13q-46 80 -178 80q-99 0 -162 -43.5t-75 -126.5q-11 -78 36.5 -116.5t145.5 -45.5q118 -7 171.5 -56t38.5 -155z" />
<glyph unicode="%" horiz-adv-x="868" d="M251 417q-61 0 -103.5 46t-42.5 121q0 73 42.5 119t103.5 46q63 0 104.5 -45t41.5 -120q0 -78 -40.5 -122.5t-105.5 -44.5zM114 0h-30l672 746h30zM251 438q55 0 90 38.5t35 107.5q0 65 -35.5 104.5t-89.5 39.5q-52 0 -88.5 -39.5t-36.5 -104.5q0 -66 36.5 -106t88.5 -40 zM616 -6q-60 0 -103 46t-43 121q0 73 42.5 119t103.5 46q64 0 105 -45t41 -120q0 -78 -40 -122.5t-106 -44.5zM616 15q55 0 90 38.5t35 107.5q0 32 -9.5 59.5t-26.5 45.5t-39.5 28t-49.5 10q-52 0 -88.5 -39t-36.5 -104q0 -66 37 -106t88 -40z" />
<glyph unicode="&#x26;" horiz-adv-x="716" d="M224 -5q-93 0 -145.5 60t-40.5 139q21 157 194 227q-1 3 -15 21t-27 37t-22 50.5t-4 62.5q10 73 59.5 117t119.5 44q73 0 108.5 -43.5t25.5 -117.5q-16 -111 -207 -181q-1 0 50 -65l102 -130l52 -65l136 127l29 -2l-151 -143l103 -133h-28l-92 120q-61 -59 -120.5 -92 t-126.5 -33zM255 426q33 14 54 23t50 25.5t46.5 32t32 38t18.5 47.5q9 66 -23 103t-93 37q-58 0 -102 -38.5t-53 -101.5q-4 -28 4 -56t16.5 -42.5t28 -39.5t21.5 -28zM227 15q102 0 228 120l-208 267q-56 -20 -96 -51.5t-62.5 -71t-28.5 -85.5q-10 -72 37 -125.5t130 -53.5z " />
<glyph unicode="'" horiz-adv-x="126" d="M80 570l25 176h21l-25 -176h-21z" />
<glyph unicode="(" horiz-adv-x="260" d="M113 -85q-38 56 -64.5 166t-9.5 233q18 131 66.5 232t131.5 198l16 -15q-76 -83 -126 -188.5t-67 -227.5q-17 -116 8 -223t63 -162z" />
<glyph unicode=")" horiz-adv-x="260" d="M134 742q39 -55 65.5 -165.5t9.5 -233.5q-18 -130 -67 -231.5t-132 -198.5l-15 16q160 173 193 415q8 66 5 124t-16 110t-28.5 89.5t-31.5 62.5z" />
<glyph unicode="*" horiz-adv-x="318" d="M112 523l-15 14l77 85l-87 32l9 22l88 -29l14 106h24l-14 -108l99 34l4 -22l-101 -33l58 -83l-20 -15l-55 83z" />
<glyph unicode="+" horiz-adv-x="606" d="M260 140l27 188h-188l3 21h188l25 184h21l-25 -184h188l-3 -21h-188l-27 -188h-21z" />
<glyph unicode="," horiz-adv-x="128" d="M29 74h26l-67 -176h-24z" />
<glyph unicode="-" horiz-adv-x="459" d="M57 254l3 21h313l-3 -21h-313z" />
<glyph unicode="." horiz-adv-x="139" d="M20 -3q-8 0 -15.5 6.5t-7.5 16.5t7.5 17t15.5 7t15.5 -7t7.5 -17t-7.5 -16.5t-15.5 -6.5z" />
<glyph unicode="/" horiz-adv-x="311" d="M-10 0l308 747h24l-308 -747h-24z" />
<glyph unicode="0" horiz-adv-x="584" d="M238 -13q-124 0 -178.5 98.5t-26.5 292.5q25 188 109.5 284t203.5 96q122 0 178 -95.5t30 -284.5q-27 -189 -110 -290t-206 -101zM242 8q113 0 189.5 95t101.5 275q26 182 -25 270.5t-164 88.5q-110 0 -187.5 -89.5t-102.5 -269.5q-27 -185 22.5 -277.5t165.5 -92.5z" />
<glyph unicode="1" horiz-adv-x="359" d="M159 0l101 724l-193 -74l-5 18l202 78h22l-105 -746h-22z" />
<glyph unicode="2" horiz-adv-x="499" d="M-21 0l3 21l237 244q19 18 48 47t47 46.5t41 42t37.5 43t29 40.5t22.5 42.5t11 40.5q9 69 -33.5 120.5t-125.5 49.5q-76 -1 -133 -41.5t-80 -110.5h-21q24 79 88 126t147 47q62 0 106 -27.5t62 -70.5t11 -93q-3 -27 -15.5 -56t-29 -53t-44 -54.5t-49 -51.5t-55.5 -54.5 t-53 -52.5l-221 -224h415l-3 -21h-442z" />
<glyph unicode="3" horiz-adv-x="569" d="M225 -1q-86 0 -144.5 45.5t-66.5 129.5h21q8 -75 61 -114.5t132 -39.5q94 0 155 49t73 134q7 52 -16.5 91t-73.5 61t-123 27l2 16q103 3 166.5 47.5t74.5 123.5q11 76 -30.5 122t-128.5 46q-77 0 -137.5 -44t-79.5 -101h-19q18 65 85.5 115.5t152.5 50.5q95 0 142.5 -53 t35.5 -136q-4 -33 -18 -61t-32.5 -47.5t-41.5 -34.5t-44.5 -23t-43.5 -12q27 -5 53.5 -17.5t52 -34t38 -57.5t6.5 -80q-14 -94 -82 -148.5t-170 -54.5z" />
<glyph unicode="4" horiz-adv-x="584" d="M363 0l28 193h-374l3 22l438 528h31l-74 -529h85l-3 -21h-85l-28 -193h-21zM47 214h347l70 501z" />
<glyph unicode="5" horiz-adv-x="562" d="M213 -13q-81 0 -133.5 48.5t-67.5 124.5h21q19 -68 64 -110t119 -42q96 0 162.5 63t79.5 156q14 100 -36 161t-144 61q-44 0 -83.5 -14t-63.5 -33t-35 -40l-32 2l83 382h363l-3 -22h-341l-76 -336q20 30 73 56t118 26q105 0 159.5 -65.5t39.5 -175.5q-15 -106 -85.5 -174 t-181.5 -68z" />
<glyph unicode="6" horiz-adv-x="561" d="M228 -1q-92 0 -150.5 69.5t-45.5 158.5q11 79 92 184l271 347h25l-271 -348q19 14 32 22.5t44 17.5t69 9q95 0 151.5 -68.5t42.5 -162.5q-13 -99 -81 -164t-179 -65zM232 20q62 0 113.5 28t82.5 74.5t39 104.5q13 88 -36.5 149.5t-138.5 61.5q-93 0 -159.5 -59.5 t-80.5 -151.5q-11 -85 43.5 -146.5t136.5 -60.5z" />
<glyph unicode="7" horiz-adv-x="543" d="M72 0l429 724h-415l3 22h444l-2 -17l-430 -729h-29z" />
<glyph unicode="8" horiz-adv-x="569" d="M229 -8q-94 0 -154.5 55t-47.5 144q4 27 14.5 52t26.5 45.5t35 38t41.5 31t45.5 24t46 17.5q-55 20 -90 63.5t-25 109.5q4 34 22.5 67t46.5 58.5t65.5 41t78.5 15.5q82 0 129.5 -53t37.5 -127q-10 -64 -61.5 -115t-122.5 -64q35 -7 66.5 -21.5t59.5 -37.5t41.5 -59 t6.5 -81q-8 -62 -44.5 -108.5t-93 -71t-124.5 -24.5zM284 405q88 21 138 66t58 102q9 66 -33 113t-115.5 47t-127 -49t-61.5 -112q-9 -61 24.5 -101.5t116.5 -65.5zM231 13q92 0 158 48.5t79 132.5q12 79 -39.5 124.5t-159.5 66.5q-88 -21 -150 -73.5t-71 -120.5 q-11 -80 43.5 -129t139.5 -49z" />
<glyph unicode="9" horiz-adv-x="582" d="M180 0h-27l272 349q-18 -15 -31.5 -23.5t-44.5 -17.5t-70 -9q-94 0 -150.5 68.5t-43.5 162.5q14 97 85.5 163t175.5 66q99 0 154 -65.5t42 -162.5q-11 -77 -87 -178q-2 -4 -3 -5zM282 320q93 0 159.5 59.5t79.5 151.5q13 93 -37.5 149.5t-141 57.5t-157 -58.5 t-79.5 -148.5q-12 -88 38 -149.5t138 -61.5z" />
<glyph unicode=":" horiz-adv-x="140" d="M84 441q-8 0 -15.5 6.5t-7.5 16.5t7.5 17t15.5 7t15.5 -7t7.5 -17q0 -7 -4 -12.5t-9 -8t-10 -2.5zM23 18q-8 0 -15.5 6.5t-7.5 16.5t7.5 17t15.5 7t15.5 -7t7.5 -17t-7.5 -16.5t-15.5 -6.5z" />
<glyph unicode=";" horiz-adv-x="154" d="M91 440q-5 0 -10 2.5t-9 8t-4 12.5q0 10 7.5 17t15.5 7q5 0 10.5 -3t9 -8.5t3.5 -12.5q0 -10 -7.5 -16.5t-15.5 -6.5zM34 98h25l-66 -176h-25z" />
<glyph unicode="&#x3c;" horiz-adv-x="564" d="M421 21l-355 228l3 17l418 224l-4 -24l-385 -210l326 -212z" />
<glyph unicode="=" horiz-adv-x="780" d="M161 471l3 21h485l-3 -21h-485zM130 251l3 21h485l-3 -21h-485z" />
<glyph unicode="&#x3e;" horiz-adv-x="565" d="M110 482l355 -228l-3 -17l-418 -224l4 24l386 210l-327 212z" />
<glyph unicode="?" horiz-adv-x="529" d="M197 165q22 150 147 238q118 82 127 161q12 75 -32 125t-124 50q-78 0 -135 -46t-79 -115l-19 3q22 77 86 128t151 51q85 0 135 -57t38 -139q-11 -88 -137 -178q-52 -36 -89.5 -93t-47.5 -128h-21zM194 12q-7 0 -13 6t-6 16.5t6 17.5t13.5 7t13 -7t5.5 -17 q0 -7 -2.5 -12.5t-7 -8t-9.5 -2.5z" />
<glyph unicode="@" horiz-adv-x="1004" d="M469 -101q-90 0 -164.5 30.5t-125 85t-72.5 135t-9 174.5q17 122 81 219t166 153t223 56q103 0 184 -55t120 -149.5t24 -206.5q-21 -144 -73 -207.5t-124 -63.5q-46 0 -74.5 41t-17.5 114q-6 -19 -16 -36t-27 -34.5t-43.5 -27.5t-59.5 -10q-77 0 -115 53.5t-26 146.5 q14 92 67.5 147t131.5 55q28 0 49.5 -9.5t33 -23t18.5 -30.5t9 -31t2 -26l14 96h21l-38 -268q-6 -43 3.5 -75t28.5 -46.5t44 -14.5q60 0 106 59t65 190q14 106 -22.5 196t-113 142.5t-174.5 52.5q-111 0 -207.5 -53t-159.5 -146.5t-79 -209.5q-10 -71 1.5 -134t41.5 -111.5 t75.5 -84t105.5 -54t128 -18.5q27 0 54 4t41 8l14 4q0 -1 0.5 -3t2 -6.5t2 -7.5l0.5 -3q-9 -4 -30 -8t-45 -6.5t-41 -2.5zM463 138q58 0 101 48t54 126q8 50 0.5 91t-33.5 68t-68 27q-65 0 -114.5 -51t-61.5 -131q-11 -80 24 -129t98 -49z" />
<glyph unicode="A" horiz-adv-x="659" d="M565 0l-53 204h-409l-109 -204h-26l403 746h25l190 -746h-21zM380 721l-266 -496h393z" />
<glyph unicode="B" horiz-adv-x="635" d="M42 0l105 746h221q95 0 147 -56t40 -139q-10 -72 -56 -115.5t-92 -45.5q19 -3 39 -9t44 -20t41 -33.5t25.5 -52t2.5 -71.5q-29 -204 -256 -204h-261zM120 397h226q80 0 129.5 43t58.5 112q10 72 -35 122t-134 50h-199zM67 21h239q207 0 232 185q8 56 -18 95.5t-72 57 t-105 17.5h-226z" />
<glyph unicode="C" horiz-adv-x="745" d="M333 -9q-60 0 -113 23.5t-94 69t-58.5 121.5t-4.5 172q11 77 39 140.5t65.5 107t83.5 73.5t93.5 43.5t95.5 13.5q111 0 184 -61.5t77 -153.5h-23q-5 83 -71 138t-169 55q-57 0 -112 -21t-105.5 -62.5t-87 -112t-49.5 -160.5q-13 -91 3 -163t54 -115t88 -65t109 -22 q102 0 185.5 59t112.5 138h23q-31 -91 -119.5 -154.5t-206.5 -63.5z" />
<glyph unicode="D" horiz-adv-x="689" d="M42 0l105 746h159q173 0 260.5 -90.5t61.5 -272.5q-27 -197 -133.5 -290t-293.5 -93h-159zM66 21h138q353 0 403 362q24 172 -57 257.5t-248 85.5h-137z" />
<glyph unicode="E" horiz-adv-x="607" d="M42 0l105 746h463l-3 -22h-442l-47 -337h350l-3 -21h-351l-48 -345h451l-4 -21h-471z" />
<glyph unicode="F" horiz-adv-x="576" d="M42 0l105 747h440l-3 -21h-419l-45 -321h348l-3 -21h-348l-54 -384h-21z" />
<glyph unicode="G" horiz-adv-x="741" d="M322 -12q-62 0 -114 24.5t-90 70.5t-53 120.5t-2 167.5q13 95 49 170t86 121t109.5 69.5t122.5 23.5q112 0 180 -60t78 -148h-22q-5 35 -21.5 67t-45 59t-73 43.5t-99.5 16.5q-58 0 -113 -22t-102.5 -64.5t-81 -113.5t-46.5 -162q-11 -74 -3 -132t29 -101t54.5 -71.5 t74 -43t87.5 -14.5q133 0 218.5 83t107.5 244h-239l3 21h260l-3 -21q-24 -173 -114.5 -260.5t-236.5 -87.5z" />
<glyph unicode="H" horiz-adv-x="682" d="M42 0l105 746h21l-51 -368h451l52 368h20l-104 -746h-22l51 357h-452l-50 -357h-21z" />
<glyph unicode="I" horiz-adv-x="210" d="M42 0l105 746h21l-105 -746h-21z" />
<glyph unicode="J" horiz-adv-x="471" d="M132 -13q-97 0 -164 89l18 12q60 -80 148 -80q59 0 100 24t70 82t42 154l68 478h21l-67 -478q-22 -153 -77 -217t-159 -64z" />
<glyph unicode="K" horiz-adv-x="635" d="M42 0l105 746h21l-67 -477l516 477h34l-367 -339l262 -407h-26l-254 392l-169 -156l-34 -236h-21z" />
<glyph unicode="L" horiz-adv-x="554" d="M42 0l105 746h21l-102 -725h402l-3 -21h-423z" />
<glyph unicode="M" horiz-adv-x="807" d="M42 0l105 746h26l191 -655l372 655h29l-105 -746h-21l99 706l-368 -648h-18l-190 648l-99 -706h-21z" />
<glyph unicode="N" horiz-adv-x="714" d="M42 0l105 746h25l378 -719l101 719h21l-105 -746h-28l-375 714l-101 -714h-21z" />
<glyph unicode="O" horiz-adv-x="771" d="M332 -6q-45 0 -88 14t-80.5 44.5t-64 73.5t-37 106t-0.5 137q13 90 50.5 164t90 121.5t113.5 73t123 25.5q58 0 111 -25.5t93.5 -72t59 -121.5t5.5 -165q-12 -85 -49.5 -156.5t-89.5 -119t-113.5 -73.5t-123.5 -26zM335 15q44 0 90 15.5t89 46t78.5 72.5t61 99t34.5 121 q12 86 -5 157t-55 114.5t-87.5 67.5t-104.5 24q-58 0 -115 -24t-106 -68.5t-84.5 -115t-47.5 -155.5q-12 -88 5.5 -158t56 -111.5t87.5 -63t103 -21.5z" />
<glyph unicode="P" horiz-adv-x="614" d="M42 0l105 746h238q102 0 154.5 -60t40.5 -152q-9 -58 -39.5 -102.5t-84 -70t-123.5 -25.5h-223l-47 -336h-21zM165 724l-52 -367h222q61 0 109.5 23t77.5 62.5t36 90.5q12 85 -35 138t-142 53h-216z" />
<glyph unicode="Q" horiz-adv-x="771" d="M601 -70l-19 -11l-75 127q-87 -52 -175 -52q-45 0 -88 14t-80.5 44.5t-64 73.5t-37 106t-0.5 137q13 90 50.5 164t90 121.5t113.5 73t123 25.5q58 0 111 -25.5t93.5 -72t59 -121.5t5.5 -165q-15 -101 -63.5 -181t-119.5 -130zM335 15q44 0 90 15.5t89 46t78.5 72.5t61 99 t34.5 121q12 86 -5 157t-55 114.5t-87.5 67.5t-104.5 24q-58 0 -115 -24t-106 -68.5t-84.5 -115t-47.5 -155.5q-12 -88 5.5 -158t56 -111.5t87.5 -63t103 -21.5z" />
<glyph unicode="R" horiz-adv-x="637" d="M42 0l105 746h258q62 0 109 -26t69.5 -71.5t14.5 -101.5q-11 -83 -66 -134t-137 -60l124 -353h-23l-123 349h-261l-49 -349h-21zM114 370h246q88 0 147.5 51t70.5 126q10 74 -38 125.5t-127 51.5h-248z" />
<glyph unicode="S" horiz-adv-x="583" d="M239 -7q-79 0 -139 39t-81 104l21 6q21 -60 75.5 -94t127.5 -34q58 0 109 18.5t89 60t46 99.5q6 41 -2.5 73t-26.5 52t-46.5 34t-56.5 20.5t-63 10.5q-92 10 -143 58t-40 126q12 87 79.5 138.5t175.5 51.5q32 0 60.5 -5.5t43.5 -10.5t37 -19.5t26 -18t24 -21.5l-14 -14 q-69 68 -180 68q-99 0 -159.5 -45t-71.5 -124q-10 -71 35.5 -112.5t130.5 -50.5q47 -5 86 -18t72 -36.5t48 -63.5t7 -93q-10 -67 -52 -113t-97.5 -66t-120.5 -20z" />
<glyph unicode="T" horiz-adv-x="569" d="M220 0l102 726h-236l3 21h496l-3 -21h-239l-101 -726h-22z" />
<glyph unicode="U" horiz-adv-x="625" d="M256 -13q-115 0 -167 81.5t-31 231.5l63 446h21l-63 -448q-20 -137 27 -213.5t153 -76.5q112 0 179.5 75.5t87.5 214.5l63 448h21l-63 -446q-44 -313 -291 -313z" />
<glyph unicode="V" horiz-adv-x="635" d="M256 0l-169 747h21l162 -715l361 715h22l-375 -747h-22z" />
<glyph unicode="W" horiz-adv-x="957" d="M194 0l-107 746h21l105 -718l303 689h23l114 -696l299 725h23l-308 -746h-33l-111 680l-297 -680h-32z" />
<glyph unicode="X" horiz-adv-x="609" d="M-15 0l296 364l-194 382h25l186 -366l302 366h27l-318 -386l183 -360h-25l-174 345l-279 -345h-29z" />
<glyph unicode="Y" horiz-adv-x="599" d="M239 0l42 300l-194 446h23l184 -422l298 422h25l-315 -446l-42 -300h-21z" />
<glyph unicode="Z" horiz-adv-x="569" d="M-10 0l2 15l553 709h-441l3 22h473l-2 -16l-553 -709h449l-4 -21h-480z" />
<glyph unicode="[" horiz-adv-x="341" d="M38 -32l111 791h189l-3 -21h-168l-105 -748h168l-3 -22h-189z" />
<glyph unicode="\" horiz-adv-x="324" d="M209 0l-115 746h22l114 -746h-21z" />
<glyph unicode="]" horiz-adv-x="342" d="M301 758l-111 -791h-189l3 21h168l105 749h-168l3 21h189z" />
<glyph unicode="^" horiz-adv-x="481" d="M83 517l187 226h18l151 -226h-27l-135 202l-167 -201z" />
<glyph unicode="_" horiz-adv-x="500" d="M-60 -21l3 21h510l-4 -21h-509z" />
<glyph unicode="`" horiz-adv-x="107" d="M170 626l-66 116l20 14l71 -130h-25z" />
<glyph unicode="a" horiz-adv-x="576" d="M226 -12q-38 0 -73 16t-64.5 46.5t-43 84t-4.5 121.5q9 66 36 119t63.5 85t77.5 48.5t83 16.5q72 0 119.5 -48t50.5 -101l20 141h21l-72 -517h-21l20 144q-20 -62 -78.5 -109t-134.5 -47zM228 9q35 0 69.5 14.5t67.5 42.5t57 77.5t33 112.5q8 62 -2.5 111t-35 78t-55 44 t-64.5 15q-28 0 -57 -9t-58.5 -29t-54 -48.5t-42.5 -70t-25 -91.5q-9 -63 4.5 -112.5t40.5 -77.5t58.5 -42.5t63.5 -14.5z" />
<glyph unicode="b" horiz-adv-x="585" d="M42 0l105 746h21l-52 -370q20 55 81.5 102t136.5 47q40 0 75 -16.5t62 -48t38.5 -83t2.5 -115.5q-18 -134 -85 -204t-169 -70q-71 0 -120.5 48t-54.5 108l-20 -144h-21zM262 9q87 0 149.5 65t79.5 188q9 60 -2 107.5t-35.5 76t-56 43.5t-66.5 15q-27 0 -55 -9t-57 -28.5 t-53 -47t-42 -68.5t-24 -89q-8 -54 -1.5 -96t22 -71.5t39.5 -48.5t49.5 -28t52.5 -9z" />
<glyph unicode="c" horiz-adv-x="544" d="M232 -18q-40 0 -76.5 16t-66.5 47t-44 85.5t-4 124.5q10 69 37.5 123t65 86.5t80.5 49t87 16.5q53 0 93.5 -22t61.5 -56t24 -75h-22q-8 58 -49 95t-111 37q-41 0 -79.5 -15t-73 -45t-59.5 -80t-34 -114q-9 -66 3.5 -117t40 -79t60.5 -42t68 -14q69 0 122 32t81 89h21 q-18 -43 -50.5 -74.5t-77.5 -49.5t-98 -18z" />
<glyph unicode="d" horiz-adv-x="586" d="M226 -12q-40 0 -75.5 16t-64.5 46.5t-41.5 84t-3.5 121.5q9 66 36 119t64 85t78 48.5t82 16.5q69 0 117.5 -48t52.5 -101l53 370h21l-105 -746h-21l20 144q-20 -63 -77 -109.5t-136 -46.5zM228 9q35 0 69.5 14.5t67.5 42.5t57 77.5t33 112.5q8 62 -2.5 111t-35 78t-55 44 t-64.5 15q-28 0 -57 -9t-58.5 -29t-54 -48.5t-42.5 -70t-25 -91.5q-9 -63 3 -112.5t38 -77.5t58.5 -42.5t67.5 -14.5z" />
<glyph unicode="e" horiz-adv-x="570" d="M250 -15q-107 0 -166 76t-42 197q17 123 94.5 197.5t175.5 74.5q96 0 149 -72.5t37 -188.5l-3 -20h-433q-13 -109 41.5 -176t149.5 -67q65 0 109.5 27.5t81.5 69.5l16 -15q-17 -18 -29.5 -30.5t-32.5 -27.5t-40 -23.5t-48 -15t-60 -6.5zM65 270h412q14 104 -34 171.5 t-133 67.5q-87 0 -157 -66.5t-88 -172.5z" />
<glyph unicode="f" horiz-adv-x="369" d="M82 0l69 494h-97l3 20h97l6 36q13 100 72 156.5t133 56.5h7l-3 -21q-74 0 -124.5 -49t-63.5 -143l-6 -36h159l-3 -20h-159l-69 -494h-21z" />
<glyph unicode="g" horiz-adv-x="584" d="M193 -226q-35 0 -62.5 6.5t-49 20t-33 23.5t-28.5 27l-7 7l17 14l6 -6q16 -17 26.5 -26t30 -21t45.5 -18t59 -6q202 0 240 275l10 72q-17 -56 -78 -103.5t-139 -47.5q-100 0 -153 70t-35 197q18 131 91.5 202.5t172.5 71.5q142 0 175 -138l19 123h21l-63 -448 q-12 -84 -37.5 -143.5t-62 -91.5t-76.5 -46t-89 -14zM232 12q83 0 149.5 67t82.5 179q17 128 -29 190.5t-134 62.5q-89 0 -156 -67t-83 -186q-17 -120 30.5 -183t139.5 -63z" />
<glyph unicode="h" horiz-adv-x="554" d="M32 0l104 746h22l-54 -378q17 63 74 112.5t133 49.5q89 0 131 -67t25 -188l-39 -275h-21l39 277q16 110 -21 171t-117 61q-76 0 -139 -62.5t-78 -169.5l-39 -277h-20z" />
<glyph unicode="i" d="M145 705q-8 0 -15.5 6t-7.5 16.5t7.5 17.5t15.5 7t15.5 -7t7.5 -17q0 -6 -2.5 -10.5t-6 -7t-7 -4t-7.5 -1.5zM30 0l73 517h21l-73 -517h-21z" />
<glyph unicode="j" horiz-adv-x="232" d="M171 705q-8 0 -14.5 6t-5 16.5t10.5 17.5t16.5 7t14 -7t5 -17.5t-10 -16.5t-16.5 -6zM-94 -191l3 21q22 -1 43.5 6t44.5 24.5t40 53.5t24 86l72 517h22l-72 -519q-7 -48 -22 -83.5t-33.5 -55.5t-41 -32t-42 -15.5t-38.5 -2.5z" />
<glyph unicode="k" horiz-adv-x="486" d="M32 0l104 746h22l-75 -530l358 301h29l-261 -222l203 -295h-28l-192 281l-113 -93l-27 -188h-20z" />
<glyph unicode="l" d="M32 0l104 746h22l-106 -746h-20z" />
<glyph unicode="m" horiz-adv-x="843" d="M32 0l72 517h21l-16 -114q14 45 65.5 85t119.5 40q38 0 66.5 -12.5t43 -34t21.5 -43t10 -45.5q15 51 66 93t125 42q80 0 117.5 -53t21.5 -167l-43 -308h-21l43 308q29 199 -120 199q-49 0 -89 -22.5t-67.5 -67t-35.5 -105.5l-45 -312h-21l45 312q15 93 -16.5 144 t-103.5 51q-68 0 -125 -51t-69 -143l-45 -313h-20z" />
<glyph unicode="n" horiz-adv-x="538" d="M32 0l72 517h21l-16 -117q19 53 72 90.5t120 37.5q94 0 133.5 -60t25.5 -166l-42 -302h-21l42 301q14 96 -21.5 151t-117.5 55q-46 0 -89 -23.5t-75 -71.5t-42 -111l-42 -301h-20z" />
<glyph unicode="o" horiz-adv-x="573" d="M232 -8q-40 0 -77 16t-66.5 47t-43 83t-4.5 117q18 129 93.5 201t173.5 72q45 0 83.5 -18t66 -51t39 -86t2.5 -118q-12 -85 -54 -146.5t-96.5 -89t-116.5 -27.5zM235 13q39 0 77 14t72.5 42t59.5 76.5t34 109.5q16 120 -35 186t-139 66q-57 0 -107.5 -27.5t-87 -86 t-47.5 -138.5q-8 -51 -0.5 -90.5t23.5 -68t41 -47.5t52.5 -27.5t56.5 -8.5z" />
<glyph unicode="p" horiz-adv-x="586" d="M72 143l-52 -372h-21l105 746h21l-21 -148q20 61 83 108t142 47q39 0 75.5 -17.5t64 -50t40 -85t3.5 -116.5q-18 -131 -89.5 -199.5t-169.5 -68.5q-70 0 -122 50t-59 106zM256 8q39 0 76.5 15t70.5 44.5t57 78t32 109.5q9 59 -3 108t-37.5 78.5t-58 45.5t-66.5 16 q-35 0 -71.5 -14.5t-71.5 -42.5t-61 -77.5t-35 -113.5q-8 -61 4 -110t39 -78t59 -44t66 -15z" />
<glyph unicode="q" horiz-adv-x="586" d="M397 -229l51 365q-21 -57 -80.5 -103t-142.5 -46q-39 0 -74.5 16.5t-64 48.5t-41.5 85.5t-4 119.5t36 118.5t63.5 84t77.5 48t82 16.5q76 0 127 -47.5t54 -107.5l21 148h21l-105 -746h-21zM61 257q-9 -62 3 -111.5t38 -78.5t58.5 -44t67.5 -15q36 0 73 15t71 43t59 75 t33 105q10 67 -0.5 118.5t-36.5 80.5t-59 43.5t-72 14.5q-35 0 -71.5 -15t-70.5 -43.5t-59 -77.5t-34 -110z" />
<glyph unicode="r" horiz-adv-x="358" d="M32 0l72 517h21l-16 -112q13 41 62 81t114 40q42 0 67 -10l-3 -24q-22 13 -64 13q-67 0 -121.5 -52t-66.5 -143l-43 -310h-22z" />
<glyph unicode="s" horiz-adv-x="450" d="M172 -13q-50 0 -89.5 21t-82.5 64l16 16q28 -27 48.5 -42.5t49.5 -26.5t61 -11q76 0 122.5 35.5t54.5 87.5q6 42 -7.5 68t-47.5 41t-93 20q-48 5 -80 18.5t-49.5 42.5t-11.5 71q6 39 31 71t65.5 50.5t88.5 18.5q30 0 56 -6t45 -18t29 -19.5t22 -19.5l-17 -16 q-20 23 -55 41t-82 18q-60 0 -107 -34.5t-54 -84.5q-8 -54 24 -79.5t99 -32.5q97 -10 135.5 -45t29.5 -105q-9 -63 -60 -103.5t-141 -40.5z" />
<glyph unicode="t" horiz-adv-x="311" d="M84 120l52 372h-93l3 21h94l26 189h21l-26 -189h127l-3 -21h-127l-52 -365q-7 -51 18.5 -81t88.5 -30h6l-3 -21h-8q-64 0 -98 32.5t-26 92.5z" />
<glyph unicode="u" horiz-adv-x="532" d="M196 -9q-89 0 -131.5 62.5t-27.5 172.5q2 18 6.5 48.5t13.5 94.5t15 106l6 42h21l-41 -291q-14 -100 23.5 -157t118.5 -57q76 0 134.5 59.5t71.5 154.5l41 291h21l-72 -517h-21l18 129q-18 -52 -70.5 -95t-126.5 -43z" />
<glyph unicode="v" horiz-adv-x="493" d="M187 0l-130 517h23l120 -475l252 475h25l-275 -517h-15z" />
<glyph unicode="w" horiz-adv-x="780" d="M152 0l-95 517h22l89 -481l229 481h23l102 -475l217 475h24l-237 -517h-19l-103 481l-229 -481h-23z" />
<glyph unicode="x" horiz-adv-x="479" d="M-10 0l225 262l-136 255h25l128 -237l197 237h26l-211 -255l141 -262h-26l-131 245l-213 -245h-25z" />
<glyph unicode="y" horiz-adv-x="512" d="M108 -198h-26l102 183l8 18l-135 514h23l127 -489l264 489h25z" />
<glyph unicode="z" horiz-adv-x="485" d="M0 0l2 18l405 478h-333l3 21h368l-2 -14l-408 -482h348l-3 -21h-380z" />
<glyph unicode="{" horiz-adv-x="361" d="M229 -43h-6q-53 0 -85.5 35.5t-25.5 90.5q1 4 13.5 91t12.5 88q7 53 -15.5 73.5t-82.5 20.5l2 20q38 0 66 13.5t43 36.5t19 54l24 170q8 56 49 92.5t95 36.5h6l-3 -21q-50 0 -84.5 -29.5t-41.5 -78.5l-24 -171q-7 -48 -36.5 -79.5t-60.5 -33.5q33 -1 52.5 -26.5 t12.5 -77.5l-26 -179q-7 -48 22.5 -77.5t76.5 -29.5z" />
<glyph unicode="|" horiz-adv-x="275" d="M51 -159l143 1019h23l-142 -1019h-24z" />
<glyph unicode="}" horiz-adv-x="362" d="M131 781h7q52 0 84.5 -35.5t25.5 -90.5q-1 -4 -13 -91t-12 -88q-8 -53 14.5 -73.5t82.5 -20.5l-2 -20q-38 0 -66 -13.5t-43 -36t-19 -54.5l-24 -170q-8 -56 -49 -92.5t-95 -36.5h-6l3 21q50 0 84.5 29.5t41.5 78.5l24 171q7 49 36.5 80t60.5 33q-33 2 -52.5 27t-11.5 77 l25 179q7 48 -22.5 77.5t-76.5 29.5z" />
<glyph unicode="~" horiz-adv-x="518" d="M60 348q2 7 7 15.5t12.5 18t17 18t21 15t25 10.5t27.5 4q26 0 51 -11.5t41.5 -25.5t39.5 -25.5t46 -11.5q30 0 58.5 22t36.5 44l19 -4q-8 -19 -24.5 -38t-42 -32t-51.5 -13t-51 11.5t-41 25.5t-38.5 25.5t-45.5 11.5q-32 0 -58 -22.5t-32 -43.5z" />
<glyph unicode="&#xa1;" horiz-adv-x="205" d="M132.5 606q7.5 0 13 -6.5t5.5 -17t-5.5 -17t-13 -6.5t-13.5 6.5t-6 17t6 17t13.5 6.5zM124 440l-40 -278l-42 -301h-22l42 301l40 278h22z" />
<glyph unicode="&#xa2;" horiz-adv-x="550" d="M232 -18q-29 0 -52 8l-50 -129h-22l52 135q-64 25 -99 90t-20 169q10 69 37.5 123t65 86.5t80.5 49t87 16.5h10l48 126h23l-49 -128q65 -10 104 -52.5t43 -98.5h-22q-8 58 -49 95t-111 37q-41 0 -79.5 -15t-73 -45t-59.5 -80t-34 -114q-9 -66 3.5 -117t40 -79t60.5 -42 t68 -14q69 0 122 32t81 89h21q-18 -43 -50.5 -74.5t-77.5 -49.5t-98 -18z" />
<glyph unicode="&#xa3;" horiz-adv-x="537" d="M-4 0v14q69 68 103 121.5t41 107.5q13 92 -10 154h-95l3 21h86q-2 5 -6.5 19t-7 22t-6 23.5t-5 28.5t-1.5 30.5t3 36.5q10 76 77 133t158 57q33 0 64.5 -9.5t50.5 -22t28 -24.5l-16 -15q-49 50 -129 50q-82 0 -142 -51.5t-70 -119.5q-11 -74 24 -157h210l-3 -21h-201 q22 -68 9 -155q-15 -105 -131 -222h395l-3 -21h-426z" />
<glyph unicode="&#xa5;" horiz-adv-x="599" d="M488 138h-209l-19 -138h-21l19 138h-214l4 23h213l20 136h-212l5 23h199l-186 426h23l184 -422l298 422h25l-301 -426h202l-5 -23h-211l-20 -136h210z" />
<glyph unicode="&#xa6;" horiz-adv-x="275" d="M131 411l61 434h23l-61 -434h-23zM55 -135l58 421h23l-58 -421h-23z" />
<glyph unicode="&#xa7;" horiz-adv-x="501" d="M405 129q-9 -65 -69 -103.5t-141 -38.5q-112 0 -185 88l18 13q22 -26 45.5 -43t55 -27t69.5 -10q73 0 126 33t60 88q9 64 -23 93.5t-119 29.5h-5q-32 0 -54 6q-58 13 -88.5 49t-24.5 85q7 46 41.5 82.5t92.5 51.5q-47 15 -70 48t-17 77q9 62 64.5 101.5t148.5 39.5 q43 0 78 -13.5t50 -26.5t25 -28l-19 -13q-1 1 -2.5 3t-7 8.5t-12 12t-18.5 12.5t-25 12t-32 8.5t-40 3.5q-83 0 -132.5 -33.5t-56.5 -85.5q-5 -34 10 -60t50.5 -40.5t86.5 -14.5h7q85 -2 127 -41.5t33 -107.5q-7 -46 -40.5 -78t-83.5 -46q94 -27 77 -135zM92 393 q-7 -52 35 -86t119 -34q78 0 127.5 30t56.5 85q12 85 -62 114q-38 12 -74 14h-3h-7h-4q-81 0 -130.5 -35t-57.5 -88z" />
<glyph unicode="&#xa8;" horiz-adv-x="253" d="M127 687q-11 0 -19.5 8t-6.5 19q1 12 10 19.5t20 7.5q8 0 14.5 -3t10.5 -9.5t3 -14.5q-2 -6 -5 -11t-7 -8.5t-9.5 -5.5t-10.5 -2zM322 687q-11 0 -19.5 8t-6.5 19q2 12 10.5 19.5t19.5 7.5t20 -7.5t8 -19.5q-1 -6 -4 -11t-7.5 -8.5t-9.5 -5.5t-11 -2z" />
<glyph unicode="&#xa9;" horiz-adv-x="922" d="M405 -13q-74 0 -138.5 30t-108.5 81t-64.5 123.5t-9.5 153.5q15 105 79.5 193t158 138t194.5 50q74 0 139 -29t109.5 -78.5t65 -121t9.5 -152.5q-15 -110 -79 -199t-157.5 -139t-197.5 -50zM408 8q97 0 185.5 47t149 132t74.5 188q11 78 -8 145.5t-60.5 114t-103 73.5 t-133.5 27q-56 0 -112.5 -18t-105 -51t-88 -77t-66 -99.5t-34.5 -114.5q-11 -79 8.5 -148t61.5 -116.5t102.5 -75t129.5 -27.5zM440 192q-64 0 -105 51t-29 132q11 75 63.5 127.5t118.5 52.5q57 0 93 -32t35 -84h-21q-1 45 -29 70t-80 25q-56 0 -102 -45t-56 -114 q-11 -75 23.5 -118.5t91.5 -43.5q31 0 60 15.5t47.5 37.5t27.5 46h20q-10 -30 -31 -56.5t-54.5 -45t-72.5 -18.5z" />
<glyph unicode="&#xaa;" horiz-adv-x="392" d="M170 319q-46 0 -76.5 29.5t-23.5 75.5q0 8 2 14q7 48 47.5 77.5t104.5 29.5q71 0 95 -24l8 51q8 58 -11.5 86.5t-71.5 28.5q-18 0 -33.5 -3t-26 -6.5t-21.5 -9.5t-17 -10.5t-15 -11.5l-11 19q2 1 12 7.5t13 8.5t12.5 7t14 6.5t14.5 5t18 4.5t19.5 2.5t24.5 1.5 q60 0 84.5 -33.5t15.5 -102.5l-36 -250h-21l7 51q-7 -14 -46 -34t-82 -20zM173 340q39 0 73.5 18.5t54.5 38.5l15 101q-11 13 -40 19.5t-56 6.5q-53 0 -87 -24t-41 -67q-6 -43 18 -68t63 -25zM40 184l2 21h264l-3 -21h-263z" />
<glyph unicode="&#xab;" horiz-adv-x="519" d="M368 135l-116 135l3 23l153 134l12 -14l-149 -133l112 -131zM201 135l-116 135l3 23l154 134l11 -14l-149 -133l112 -131z" />
<glyph unicode="&#xad;" horiz-adv-x="459" d="M57 254l3 21h313l-3 -21h-313z" />
<glyph unicode="&#xae;" horiz-adv-x="921" d="M404 -13q-73 0 -137.5 30t-108.5 81t-64.5 123.5t-9.5 153.5q15 105 78.5 193t157 138t194.5 50q74 0 139 -29t109.5 -78.5t65.5 -121.5t10 -152q-15 -109 -80 -198.5t-158.5 -139.5t-195.5 -50zM407 8q97 0 185.5 47t149.5 132t75 188q9 62 -1.5 118.5t-37.5 100 t-67 75.5t-91 49t-109 17q-95 0 -183 -47.5t-148.5 -130.5t-74.5 -182q-11 -79 8.5 -148t61.5 -116.5t102.5 -75t129.5 -27.5zM308 182l54 387h117q85 0 117.5 -32t25.5 -83q-4 -29 -21 -53t-39 -38t-45 -20l66 -161h-24l-64 155h-144l-22 -155h-21zM354 358h116 q39 0 68.5 14.5t44 35.5t18.5 46q2 19 -2.5 35t-18 30t-40 21.5t-64.5 7.5h-96z" />
<glyph unicode="&#xaf;" horiz-adv-x="316" d="M102 724l3 22h316l-3 -22h-316z" />
<glyph unicode="&#xb0;" horiz-adv-x="438" d="M248 406q-46 0 -86.5 24.5t-63.5 65t-23 86.5q0 70 51.5 123t121.5 53q47 0 87.5 -24.5t63.5 -65t23 -86.5q0 -71 -51 -123.5t-123 -52.5zM249 427q63 0 107.5 47t44.5 108q0 60 -44.5 107.5t-107.5 47.5t-108 -47t-45 -108t44.5 -108t108.5 -47z" />
<glyph unicode="&#xb1;" horiz-adv-x="606" d="M469 141l-3 -20h-383l3 20h174l27 187h-188l3 21h188l25 184h21l-25 -184h188l-3 -21h-188l-27 -187h188z" />
<glyph unicode="&#xb4;" horiz-adv-x="107" d="M88 626l107 130l17 -13l-99 -117h-25z" />
<glyph unicode="&#xb6;" horiz-adv-x="567" d="M378 3l105 746h21l-105 -746h-21zM288 0h-21l49 351h-16q-69 0 -113.5 52.5t-32.5 139.5q13 90 71 146.5t131 56.5h37z" />
<glyph unicode="&#xb7;" horiz-adv-x="138" d="M65 322q-8 0 -14.5 5.5t-6.5 16t6.5 16t14.5 5.5q5 0 9.5 -2t8 -7.5t3.5 -12.5q0 -10 -6.5 -15.5t-14.5 -5.5z" />
<glyph unicode="&#xb8;" horiz-adv-x="172" d="M62 14h21l-11 -53q43 0 65 -23t19 -54q-12 -81 -102 -81q-22 0 -43.5 11.5t-33.5 23.5l16 16q9 -10 27 -19t39 -9q29 0 48.5 14.5t23.5 41.5q2 26 -13 42.5t-58 16.5h-16z" />
<glyph unicode="&#xba;" horiz-adv-x="424" d="M204 332q-67 0 -100 48t-21 132l3 22q11 82 58.5 129.5t112.5 47.5q64 0 101 -48t26 -129l-3 -22q-12 -86 -58.5 -133t-118.5 -47zM207 353q41 0 73.5 19t52.5 54.5t27 85.5l3 22q7 48 -5.5 83.5t-39.5 54t-64 18.5q-55 0 -96 -42t-51 -112l-3 -24q-11 -74 16.5 -116.5 t86.5 -42.5zM50 184l2 21h275l-3 -21h-274z" />
<glyph unicode="&#xbb;" horiz-adv-x="519" d="M122 434l115 -135l-3 -23l-153 -134l-12 14l149 133l-112 131zM289 434l115 -135l-3 -23l-153 -134l-12 14l149 133l-112 131z" />
<glyph unicode="&#xbf;" horiz-adv-x="528" d="M280.5 428q7.5 0 13 -6t5.5 -16.5t-5.5 -17.5t-13 -7t-13.5 7t-6 17.5t6 16.5t13.5 6zM277 275q-21 -150 -147 -238q-62 -43 -92 -82t-35 -79q-11 -75 32.5 -125t124.5 -50q78 0 134.5 46t79.5 115l19 -3q-23 -77 -86.5 -128t-151.5 -51q-84 0 -134.5 57t-38.5 139 q11 88 138 178q52 36 89 93t47 128h21z" />
<glyph unicode="&#xc0;" horiz-adv-x="659" d="M396 810l-66 116l20 14l71 -130h-25zM565 0l-53 204h-409l-109 -204h-26l403 746h25l190 -746h-21zM380 721l-266 -496h393z" />
<glyph unicode="&#xc1;" horiz-adv-x="659" d="M371 810l107 130l17 -13l-99 -117h-25zM565 0l-53 204h-409l-109 -204h-26l403 746h25l190 -746h-21zM380 721l-266 -496h393z" />
<glyph unicode="&#xc2;" horiz-adv-x="659" d="M291 795l-14 12l124 112h16l90 -111l-18 -13l-83 100zM565 0l-53 204h-409l-109 -204h-26l403 746h25l190 -746h-21zM380 721l-266 -496h393z" />
<glyph unicode="&#xc3;" horiz-adv-x="659" d="M238 834q4 14 13.5 27.5t23.5 25t33 20t41 11.5q22 2 42.5 -5.5t32.5 -18t28 -18.5t31 -7q44 5 68 56l20 -5q-11 -26 -33 -47t-55 -25q-24 -2 -46 11.5t-43.5 26.5t-45.5 11q-35 -4 -59.5 -24t-31.5 -43zM565 0l-53 204h-409l-109 -204h-26l403 746h25l190 -746h-21z M380 721l-266 -496h393z" />
<glyph unicode="&#xc4;" horiz-adv-x="659" d="M301 822q-11 0 -19.5 8t-6.5 19q1 9 6 15t11.5 9.5t13.5 3.5q4 0 8 -1.5t8 -3.5t6.5 -5.5t3.5 -8t1 -9.5q-3 -11 -12 -19t-20 -8zM497 822q-11 0 -20 8t-7 19q2 13 10.5 20.5t19.5 7.5q12 0 21 -8t7 -20q-2 -11 -11 -19t-20 -8zM565 0l-53 204h-409l-109 -204h-26 l403 746h25l190 -746h-21zM380 721l-266 -496h393z" />
<glyph unicode="&#xc5;" horiz-adv-x="659" d="M400 784q-44 0 -73 28.5t-29 72.5q0 43 30 73.5t72 30.5t71.5 -31t29.5 -74q0 -28 -13 -51t-36 -36t-52 -13zM400 805q23 0 41.5 10.5t28.5 28.5t10 40q0 34 -23 59t-57 25q-33 0 -57 -24.5t-24 -59.5q0 -33 23 -56t58 -23zM565 0l-53 204h-409l-109 -204h-26l403 746h25 l190 -746h-21zM380 721l-266 -496h393z" />
<glyph unicode="&#xc6;" horiz-adv-x="949" d="M-47 0l601 746h428l-3 -22h-401l-48 -333h328l-3 -21h-328l-48 -349h405l-3 -21h-426l30 215h-334l-172 -215h-26zM171 236h317l67 480z" />
<glyph unicode="&#xc7;" horiz-adv-x="745" d="M418 -129q-12 -82 -103 -82q-21 0 -43 11.5t-34 24.5l16 15q9 -10 27 -19t39 -9q19 0 34.5 6t25.5 19t13 32q2 26 -13 42.5t-59 16.5h-15l15 63q-58 2 -109 27t-90 70.5t-55.5 120t-3.5 168.5q11 77 39 140.5t65.5 107t83.5 73.5t93.5 43.5t95.5 13.5q111 0 184 -61.5 t77 -153.5h-23q-5 83 -71 138t-169 55q-57 0 -112 -21t-105.5 -62.5t-87 -112t-49.5 -160.5q-13 -91 3 -163t54 -115t88 -65t109 -22q102 0 185.5 59t112.5 138h23q-14 -42 -42.5 -80.5t-68.5 -69t-93.5 -49t-112.5 -19.5l-8 -43q43 0 65 -23.5t19 -53.5z" />
<glyph unicode="&#xc8;" horiz-adv-x="607" d="M375 808l-66 117l20 14l71 -131h-25zM42 0l105 746h463l-3 -22h-442l-47 -337h350l-3 -21h-351l-48 -345h451l-4 -21h-471z" />
<glyph unicode="&#xc9;" horiz-adv-x="607" d="M350 808l107 131l17 -13l-99 -118h-25zM42 0l105 746h463l-3 -22h-442l-47 -337h350l-3 -21h-351l-48 -345h451l-4 -21h-471z" />
<glyph unicode="&#xca;" horiz-adv-x="607" d="M270 794l-14 12l124 112h16l90 -111l-18 -13l-83 100zM42 0l105 746h463l-3 -22h-442l-47 -337h350l-3 -21h-351l-48 -345h451l-4 -21h-471z" />
<glyph unicode="&#xcb;" horiz-adv-x="607" d="M280 821q-11 0 -19.5 8t-6.5 19q1 8 6 14.5t11.5 10t13.5 3.5q11 0 19.5 -8t7.5 -20q-3 -11 -12 -19t-20 -8zM476 821q-11 0 -20 8t-7 19q2 13 10.5 20.5t19.5 7.5q12 0 21 -8t7 -20q-1 -7 -6 -13.5t-11.5 -10t-13.5 -3.5zM42 0l105 746h463l-3 -22h-442l-47 -337h350 l-3 -21h-351l-48 -345h451l-4 -21h-471z" />
<glyph unicode="&#xcc;" horiz-adv-x="210" d="M156 800l-42 88l21 13l47 -101h-26zM42 0l105 746h21l-105 -746h-21z" />
<glyph unicode="&#xcd;" horiz-adv-x="210" d="M145 801l79 80l14 -16l-68 -64h-25zM42 0l105 746h21l-105 -746h-21z" />
<glyph unicode="&#xce;" horiz-adv-x="210" d="M109 814l-13 12l75 70h16l55 -69l-18 -13l-48 58zM42 0l105 746h21l-105 -746h-21z" />
<glyph unicode="&#xcf;" horiz-adv-x="210" d="M123 810q-5 0 -9.5 3t-7 8t-2.5 11q0 4 1.5 8t4 7t6 5t7.5 2q5 0 9 -3t7 -8.5t3 -10.5q0 -9 -6 -15.5t-13 -6.5zM217 808q-4 0 -8.5 3.5t-7.5 8.5t-3 11q0 4 2 8t4.5 7t6 5t6.5 2q5 0 9.5 -3.5t7 -8.5t2.5 -10q0 -9 -5.5 -16t-13.5 -7zM42 1l105 746h21l-105 -746h-21z " />
<glyph unicode="&#xd0;" horiz-adv-x="723" d="M662 383q-28 -197 -134 -290t-294 -93h-158l51 366h-117l3 20h117l51 360h158q174 0 261 -90.5t62 -272.5zM100 21h137q353 0 403 362q25 172 -56 257.5t-248 85.5h-138l-47 -340h204l-2 -20h-205z" />
<glyph unicode="&#xd1;" horiz-adv-x="714" d="M260 814q6 19 20.5 36.5t38 30.5t52.5 17q22 2 42.5 -5.5t32.5 -18t28 -18.5t31 -7q44 5 68 56l20 -5q-11 -26 -33 -47t-55 -25q-24 -2 -46 11.5t-43.5 26.5t-45.5 11q-35 -4 -59.5 -24t-31.5 -43zM42 0l105 746h25l378 -719l101 719h21l-105 -746h-28l-375 714 l-101 -714h-21z" />
<glyph unicode="&#xd2;" horiz-adv-x="771" d="M452 807l-67 117l20 14l72 -131h-25zM332 -6q-45 0 -88 14t-80.5 44.5t-64 73.5t-37 106t-0.5 137q13 90 50.5 164t90 121.5t113.5 73t123 25.5q58 0 111 -25.5t93.5 -72t59 -121.5t5.5 -165q-12 -85 -49.5 -156.5t-89.5 -119t-113.5 -73.5t-123.5 -26zM335 15 q44 0 90 15.5t89 46t78.5 72.5t61 99t34.5 121q12 86 -5 157t-55 114.5t-87.5 67.5t-104.5 24q-58 0 -115 -24t-106 -68.5t-84.5 -115t-47.5 -155.5q-12 -88 5.5 -158t56 -111.5t87.5 -63t103 -21.5z" />
<glyph unicode="&#xd3;" horiz-adv-x="771" d="M426 807l107 131l17 -13l-98 -118h-26zM332 -6q-45 0 -88 14t-80.5 44.5t-64 73.5t-37 106t-0.5 137q13 90 50.5 164t90 121.5t113.5 73t123 25.5q58 0 111 -25.5t93.5 -72t59 -121.5t5.5 -165q-12 -85 -49.5 -156.5t-89.5 -119t-113.5 -73.5t-123.5 -26zM335 15 q44 0 90 15.5t89 46t78.5 72.5t61 99t34.5 121q12 86 -5 157t-55 114.5t-87.5 67.5t-104.5 24q-58 0 -115 -24t-106 -68.5t-84.5 -115t-47.5 -155.5q-12 -88 5.5 -158t56 -111.5t87.5 -63t103 -21.5z" />
<glyph unicode="&#xd4;" horiz-adv-x="771" d="M346 793l-13 12l124 112h15l91 -111l-18 -13l-83 99zM332 -6q-45 0 -88 14t-80.5 44.5t-64 73.5t-37 106t-0.5 137q13 90 50.5 164t90 121.5t113.5 73t123 25.5q58 0 111 -25.5t93.5 -72t59 -121.5t5.5 -165q-12 -85 -49.5 -156.5t-89.5 -119t-113.5 -73.5t-123.5 -26z M335 15q44 0 90 15.5t89 46t78.5 72.5t61 99t34.5 121q12 86 -5 157t-55 114.5t-87.5 67.5t-104.5 24q-58 0 -115 -24t-106 -68.5t-84.5 -115t-47.5 -155.5q-12 -88 5.5 -158t56 -111.5t87.5 -63t103 -21.5z" />
<glyph unicode="&#xd5;" horiz-adv-x="771" d="M294 832q8 29 38 53.5t72 30.5q19 2 35.5 -3t28 -13t22.5 -16t23.5 -13t25.5 -4q44 5 68 56l20 -5q-11 -26 -33 -47t-55 -25q-25 -2 -46.5 11t-43 26.5t-46.5 11.5q-34 -4 -58.5 -24t-31.5 -44zM332 -6q-45 0 -88 14t-80.5 44.5t-64 73.5t-37 106t-0.5 137 q13 90 50.5 164t90 121.5t113.5 73t123 25.5q58 0 111 -25.5t93.5 -72t59 -121.5t5.5 -165q-12 -85 -49.5 -156.5t-89.5 -119t-113.5 -73.5t-123.5 -26zM335 15q44 0 90 15.5t89 46t78.5 72.5t61 99t34.5 121q12 86 -5 157t-55 114.5t-87.5 67.5t-104.5 24q-58 0 -115 -24 t-106 -68.5t-84.5 -115t-47.5 -155.5q-12 -88 5.5 -158t56 -111.5t87.5 -63t103 -21.5z" />
<glyph unicode="&#xd6;" horiz-adv-x="771" d="M357 820q-11 0 -19.5 8t-6.5 19q1 6 3.5 11.5t7 9t9.5 5.5t10 2q12 0 20.5 -8t6.5 -20q-2 -11 -11 -19t-20 -8zM552 820q-11 0 -19.5 8t-6.5 19q1 8 5.5 14.5t11 10t12.5 3.5q12 0 21 -8t8 -20q-3 -11 -12 -19t-20 -8zM332 -6q-45 0 -88 14t-80.5 44.5t-64 73.5t-37 106 t-0.5 137q13 90 50.5 164t90 121.5t113.5 73t123 25.5q58 0 111 -25.5t93.5 -72t59 -121.5t5.5 -165q-12 -85 -49.5 -156.5t-89.5 -119t-113.5 -73.5t-123.5 -26zM335 15q44 0 90 15.5t89 46t78.5 72.5t61 99t34.5 121q12 86 -5 157t-55 114.5t-87.5 67.5t-104.5 24 q-58 0 -115 -24t-106 -68.5t-84.5 -115t-47.5 -155.5q-12 -88 5.5 -158t56 -111.5t87.5 -63t103 -21.5z" />
<glyph unicode="&#xd7;" horiz-adv-x="649" d="M84 149l224 196l-169 196l14 13l169 -195l223 194l13 -14l-223 -195l168 -196l-15 -14l-168 197l-223 -197z" />
<glyph unicode="&#xd8;" horiz-adv-x="771" d="M332 -6q-105 0 -182 70l-66 -84l-16 13l67 85q-99 107 -73 291q13 90 50.5 164t90 121.5t113.5 73t123 25.5q100 0 174 -66l49 61l15 -15l-48 -61q49 -51 71 -128t8 -175q-12 -85 -49.5 -156.5t-89.5 -119t-113.5 -73.5t-123.5 -26zM83 369q-23 -176 66 -275l451 575 q-70 63 -164 63q-58 0 -115 -24t-106 -68.5t-84.5 -115t-47.5 -155.5zM688 369q25 180 -73 285l-452 -573q71 -66 172 -66q44 0 90 15.5t89 46t78.5 72.5t61 99t34.5 121z" />
<glyph unicode="&#xd9;" horiz-adv-x="625" d="M372 803l-66 117l20 13l71 -130h-25zM256 -13q-115 0 -167 81.5t-31 231.5l63 446h21l-63 -448q-20 -137 27 -213.5t153 -76.5q112 0 179.5 75.5t87.5 214.5l63 448h21l-63 -446q-44 -313 -291 -313z" />
<glyph unicode="&#xda;" horiz-adv-x="625" d="M346 803l108 130l16 -12l-98 -118h-26zM256 -13q-115 0 -167 81.5t-31 231.5l63 446h21l-63 -448q-20 -137 27 -213.5t153 -76.5q112 0 179.5 75.5t87.5 214.5l63 448h21l-63 -446q-44 -313 -291 -313z" />
<glyph unicode="&#xdb;" horiz-adv-x="625" d="M267 789l-14 12l124 111h16l90 -110l-18 -13l-83 99zM256 -13q-115 0 -167 81.5t-31 231.5l63 446h21l-63 -448q-20 -137 27 -213.5t153 -76.5q112 0 179.5 75.5t87.5 214.5l63 448h21l-63 -446q-44 -313 -291 -313z" />
<glyph unicode="&#xdc;" horiz-adv-x="625" d="M277 816q-11 0 -19.5 8t-6.5 19q1 6 4 11.5t7 9t9 5t10 1.5q12 0 20.5 -7.5t7.5 -19.5q-3 -12 -12 -19.5t-20 -7.5zM472.5 816q-11.5 0 -20 8t-6.5 19q2 12 10.5 19.5t19.5 7.5q12 0 20.5 -7.5t7.5 -19.5q-2 -12 -11 -19.5t-20.5 -7.5zM256 -13q-115 0 -167 81.5 t-31 231.5l63 446h21l-63 -448q-20 -137 27 -213.5t153 -76.5q112 0 179.5 75.5t87.5 214.5l63 448h21l-63 -446q-44 -313 -291 -313z" />
<glyph unicode="&#xdd;" horiz-adv-x="599" d="M339 810l107 130l17 -13l-99 -117h-25zM239 0l42 300l-194 446h23l184 -422l298 422h25l-315 -446l-42 -300h-21z" />
<glyph unicode="&#xde;" horiz-adv-x="641" d="M42 0l105 746h21l-22 -159h245q85 0 142.5 -63t45.5 -153q-14 -96 -78.5 -153t-169.5 -57h-245l-23 -161h-21zM88 182h246q90 0 151 53t71 135q11 83 -38 139.5t-131 56.5h-244z" />
<glyph unicode="&#xdf;" horiz-adv-x="554" d="M32 0l74 527q15 108 79 166t144 58q63 0 104.5 -33.5t53.5 -70.5l-170 -231q77 0 123.5 -57t33.5 -148q-8 -56 -36 -105t-80 -82t-118 -33q-34 0 -76 5l3 21q42 -5 77 -5q82 0 140 60.5t69 138.5q12 85 -30.5 135.5t-118.5 50.5h-18l2 11l175 239q-5 13 -13 25t-23.5 26 t-41.5 23t-58 9q-71 0 -128.5 -51t-71.5 -151l-75 -528h-20z" />
<glyph unicode="&#xe0;" horiz-adv-x="571" d="M397 630l-66 117l20 13l71 -130h-25zM226 -12q-38 0 -73 16t-64.5 46.5t-43 84t-4.5 121.5q9 66 36 119t63.5 85t77.5 48.5t83 16.5q72 0 119.5 -48t50.5 -101l20 141h21l-72 -517h-21l20 144q-20 -62 -78.5 -109t-134.5 -47zM228 9q35 0 69.5 14.5t67.5 42.5t57 77.5 t33 112.5q8 62 -2.5 111t-35 78t-55 44t-64.5 15q-28 0 -57 -9t-58.5 -29t-54 -48.5t-42.5 -70t-25 -91.5q-9 -63 4.5 -112.5t40.5 -77.5t58.5 -42.5t63.5 -14.5z" />
<glyph unicode="&#xe1;" horiz-adv-x="576" d="M303 630l108 130l16 -12l-98 -118h-26zM226 -12q-38 0 -73 16t-64.5 46.5t-43 84t-4.5 121.5q9 66 36 119t63.5 85t77.5 48.5t83 16.5q72 0 119.5 -48t50.5 -101l20 141h21l-72 -517h-21l20 144q-20 -62 -78.5 -109t-134.5 -47zM228 9q35 0 69.5 14.5t67.5 42.5t57 77.5 t33 112.5q8 62 -2.5 111t-35 78t-55 44t-64.5 15q-28 0 -57 -9t-58.5 -29t-54 -48.5t-42.5 -70t-25 -91.5q-9 -63 4.5 -112.5t40.5 -77.5t58.5 -42.5t63.5 -14.5z" />
<glyph unicode="&#xe2;" horiz-adv-x="576" d="M238 634l-13 13l124 111h15l91 -110l-18 -14l-83 100zM226 -12q-38 0 -73 16t-64.5 46.5t-43 84t-4.5 121.5q9 66 36 119t63.5 85t77.5 48.5t83 16.5q72 0 119.5 -48t50.5 -101l20 141h21l-72 -517h-21l20 144q-20 -62 -78.5 -109t-134.5 -47zM228 9q35 0 69.5 14.5 t67.5 42.5t57 77.5t33 112.5q8 62 -2.5 111t-35 78t-55 44t-64.5 15q-28 0 -57 -9t-58.5 -29t-54 -48.5t-42.5 -70t-25 -91.5q-9 -63 4.5 -112.5t40.5 -77.5t58.5 -42.5t63.5 -14.5z" />
<glyph unicode="&#xe3;" horiz-adv-x="576" d="M184 659q4 14 13.5 28t23 25.5t33 20t40.5 10.5q23 3 43 -4.5t32 -18t28 -19t31 -6.5q45 4 69 56l20 -5q-5 -12 -12 -22.5t-18 -21.5t-26 -18.5t-33 -9.5q-24 -3 -45.5 10.5t-43.5 27t-46 10.5q-34 -3 -59 -23t-31 -44zM226 -12q-38 0 -73 16t-64.5 46.5t-43 84 t-4.5 121.5q9 66 36 119t63.5 85t77.5 48.5t83 16.5q72 0 119.5 -48t50.5 -101l20 141h21l-72 -517h-21l20 144q-20 -62 -78.5 -109t-134.5 -47zM228 9q35 0 69.5 14.5t67.5 42.5t57 77.5t33 112.5q8 62 -2.5 111t-35 78t-55 44t-64.5 15q-28 0 -57 -9t-58.5 -29t-54 -48.5 t-42.5 -70t-25 -91.5q-9 -63 4.5 -112.5t40.5 -77.5t58.5 -42.5t63.5 -14.5z" />
<glyph unicode="&#xe4;" horiz-adv-x="576" d="M253 691q-11 0 -19.5 8t-6.5 19q1 12 10 20t20 8q12 0 20.5 -8t7.5 -20q-3 -12 -12 -19.5t-20 -7.5zM448 691q-11 0 -19.5 8t-6.5 19q2 12 10.5 20t19.5 8t20 -8t8 -20q-3 -12 -12 -19.5t-20 -7.5zM226 -12q-38 0 -73 16t-64.5 46.5t-43 84t-4.5 121.5q9 66 36 119 t63.5 85t77.5 48.5t83 16.5q72 0 119.5 -48t50.5 -101l20 141h21l-72 -517h-21l20 144q-20 -62 -78.5 -109t-134.5 -47zM228 9q35 0 69.5 14.5t67.5 42.5t57 77.5t33 112.5q8 62 -2.5 111t-35 78t-55 44t-64.5 15q-28 0 -57 -9t-58.5 -29t-54 -48.5t-42.5 -70t-25 -91.5 q-9 -63 4.5 -112.5t40.5 -77.5t58.5 -42.5t63.5 -14.5z" />
<glyph unicode="&#xe5;" horiz-adv-x="576" d="M341 591q-43 0 -72.5 28.5t-29.5 72.5q0 42 30.5 73t72 31t71 -31t29.5 -74q0 -29 -13 -51.5t-36 -35.5t-52 -13zM341 612q35 0 57.5 22.5t22.5 56.5t-23 59t-57 25q-21 0 -40 -11.5t-30 -30.5t-11 -42q0 -34 23 -56.5t58 -22.5zM226 -12q-38 0 -73 16t-64.5 46.5t-43 84 t-4.5 121.5q9 66 36 119t63.5 85t77.5 48.5t83 16.5q72 0 119.5 -48t50.5 -101l20 141h21l-72 -517h-21l20 144q-20 -62 -78.5 -109t-134.5 -47zM228 9q35 0 69.5 14.5t67.5 42.5t57 77.5t33 112.5q8 62 -2.5 111t-35 78t-55 44t-64.5 15q-28 0 -57 -9t-58.5 -29t-54 -48.5 t-42.5 -70t-25 -91.5q-9 -63 4.5 -112.5t40.5 -77.5t58.5 -42.5t63.5 -14.5z" />
<glyph unicode="&#xe6;" horiz-adv-x="857" d="M790 88q-22 -23 -38 -38t-42 -31.5t-58.5 -25t-71.5 -8.5q-85 0 -141.5 49.5t-67.5 133.5q-57 -176 -243 -176q-79 0 -121 42.5t-29 105.5q9 65 67 106t155 41q105 0 168 -17l1 4q32 233 -138 233q-45 0 -82 -10.5t-52 -20t-33 -24.5l-12 17q1 1 21 14.5t34.5 21 t49.5 15.5t77 8q156 0 162 -179q14 33 33.5 62t43.5 51t51.5 37.5t57 23t60.5 7.5q95 0 148.5 -72.5t36.5 -188.5l-3 -20h-432q-14 -109 40.5 -176t150.5 -67q65 0 109.5 27.5t81.5 69.5zM395 270h411q15 104 -33 171.5t-134 67.5t-156 -66.5t-88 -172.5zM131 13 q98 0 157.5 57t74.5 172l1 5q-21 8 -73 14t-94 5q-181 -6 -199 -131q-7 -54 28 -88t105 -34z" />
<glyph unicode="&#xe7;" horiz-adv-x="544" d="M316 -136q-12 -82 -103 -82q-21 0 -43 11.5t-34 23.5l16 16q9 -10 27 -19t39 -9q30 0 49.5 14.5t23.5 41.5q2 26 -13 42.5t-59 16.5h-15l15 62q-38 3 -72.5 20t-62.5 48.5t-40 84.5t-3 120q10 69 37.5 123t65 86.5t80.5 49t87 16.5q53 0 93.5 -22t61.5 -56t24 -75h-22 q-8 58 -49 95t-111 37q-41 0 -79.5 -15t-73 -45t-59.5 -80t-34 -114q-9 -66 3.5 -117t40 -79t60.5 -42t68 -14q69 0 122 32t81 89h21q-27 -63 -84 -101.5t-134 -40.5l-8 -42q43 0 65 -23t19 -53z" />
<glyph unicode="&#xe8;" horiz-adv-x="570" d="M335 627l-66 116l20 14l71 -130h-25zM250 -15q-107 0 -166 76t-42 197q17 123 94.5 197.5t175.5 74.5q96 0 149 -72.5t37 -188.5l-3 -20h-433q-13 -109 41.5 -176t149.5 -67q65 0 109.5 27.5t81.5 69.5l16 -15q-17 -18 -29.5 -30.5t-32.5 -27.5t-40 -23.5t-48 -15 t-60 -6.5zM65 270h412q14 104 -34 171.5t-133 67.5q-87 0 -157 -66.5t-88 -172.5z" />
<glyph unicode="&#xe9;" horiz-adv-x="570" d="M289 627l107 130l17 -13l-99 -117h-25zM250 -15q-107 0 -166 76t-42 197q17 123 94.5 197.5t175.5 74.5q96 0 149 -72.5t37 -188.5l-3 -20h-433q-13 -109 41.5 -176t149.5 -67q65 0 109.5 27.5t81.5 69.5l16 -15q-17 -18 -29.5 -30.5t-32.5 -27.5t-40 -23.5t-48 -15 t-60 -6.5zM65 270h412q14 104 -34 171.5t-133 67.5q-87 0 -157 -66.5t-88 -172.5z" />
<glyph unicode="&#xea;" horiz-adv-x="570" d="M224 631l-14 13l124 111h16l90 -110l-18 -14l-83 100zM250 -15q-107 0 -166 76t-42 197q17 123 94.5 197.5t175.5 74.5q96 0 149 -72.5t37 -188.5l-3 -20h-433q-13 -109 41.5 -176t149.5 -67q65 0 109.5 27.5t81.5 69.5l16 -15q-17 -18 -29.5 -30.5t-32.5 -27.5 t-40 -23.5t-48 -15t-60 -6.5zM65 270h412q14 104 -34 171.5t-133 67.5q-87 0 -157 -66.5t-88 -172.5z" />
<glyph unicode="&#xeb;" horiz-adv-x="570" d="M238 688q-11 0 -19.5 8t-6.5 19q2 12 11 19.5t20 7.5t19.5 -7.5t7.5 -19.5q-3 -12 -12 -19.5t-20 -7.5zM434 688q-11 0 -20 8t-7 19q2 12 10.5 19.5t19.5 7.5q12 0 21 -7.5t7 -19.5t-11 -19.5t-20 -7.5zM250 -15q-107 0 -166 76t-42 197q17 123 94.5 197.5t175.5 74.5 q96 0 149 -72.5t37 -188.5l-3 -20h-433q-13 -109 41.5 -176t149.5 -67q65 0 109.5 27.5t81.5 69.5l16 -15q-17 -18 -29.5 -30.5t-32.5 -27.5t-40 -23.5t-48 -15t-60 -6.5zM65 270h412q14 104 -34 171.5t-133 67.5q-87 0 -157 -66.5t-88 -172.5z" />
<glyph unicode="&#xec;" d="M125 643l-35 90l19 10l38 -100h-22zM32 0l72 517h21l-73 -517h-20z" />
<glyph unicode="&#xed;" d="M122 653l85 78l12 -19l-72 -59h-25zM32 0l72 517h21l-73 -517h-20z" />
<glyph unicode="&#xee;" d="M79 667l-14 12l76 70h15l55 -69l-18 -13l-47 57zM32 0l72 517h21l-73 -517h-20z" />
<glyph unicode="&#xef;" d="M94 697q-7 0 -12.5 7t-5.5 15.5t5.5 15t13 6.5t13 -6.5t5.5 -15.5q0 -5 -2.5 -10.5t-7 -8.5t-9.5 -3zM189 696q-7 0 -13 7t-6 15q0 6 3 11t7 8t9 3q7 0 13 -6.5t6 -15t-6 -15.5t-13 -7zM32 0l72 517h21l-73 -517h-20z" />
<glyph unicode="&#xf0;" horiz-adv-x="583" d="M512 271q-8 -59 -25.5 -106t-42.5 -79.5t-57.5 -54t-70 -31.5t-80.5 -10t-81 15.5t-67.5 46.5t-42.5 83.5t-4 119.5q9 64 37.5 117.5t68 87.5t85 52.5t90.5 18.5q68 0 119 -41t57 -86q6 143 -43 263l-149 -23l-4 20l144 21q-30 64 -69 106l15 13q44 -44 76 -115l123 18 l4 -19l-118 -18q68 -172 35 -399zM238 10q45 0 85 15t75 45.5t59.5 81.5t33.5 118q15 104 -36.5 172t-135.5 68q-57 0 -110.5 -28.5t-94.5 -88.5t-52 -139q-9 -61 2.5 -109t38 -76.5t61 -43.5t74.5 -15z" />
<glyph unicode="&#xf1;" horiz-adv-x="538" d="M155 656q9 30 39 54.5t72 29.5q22 3 42.5 -5t32.5 -18.5t28 -18.5t31 -6q44 4 68 56l20 -6q-5 -11 -12 -22t-17.5 -21.5t-25.5 -18t-33 -9.5q-24 -3 -46 10.5t-43.5 27t-45.5 10.5q-35 -3 -59.5 -23t-31.5 -44zM32 0l72 517h21l-16 -117q19 53 72 90.5t120 37.5 q94 0 133.5 -60t25.5 -166l-42 -302h-21l42 301q14 96 -21.5 151t-117.5 55q-46 0 -89 -23.5t-75 -71.5t-42 -111l-42 -301h-20z" />
<glyph unicode="&#xf2;" horiz-adv-x="573" d="M333 627l-66 116l20 14l71 -130h-25zM232 -8q-40 0 -77 16t-66.5 47t-43 83t-4.5 117q18 129 93.5 201t173.5 72q45 0 83.5 -18t66 -51t39 -86t2.5 -118q-12 -85 -54 -146.5t-96.5 -89t-116.5 -27.5zM235 13q39 0 77 14t72.5 42t59.5 76.5t34 109.5q16 120 -35 186 t-139 66q-57 0 -107.5 -27.5t-87 -86t-47.5 -138.5q-8 -51 -0.5 -90.5t23.5 -68t41 -47.5t52.5 -27.5t56.5 -8.5z" />
<glyph unicode="&#xf3;" horiz-adv-x="573" d="M287 627l107 130l17 -13l-99 -117h-25zM232 -8q-40 0 -77 16t-66.5 47t-43 83t-4.5 117q18 129 93.5 201t173.5 72q45 0 83.5 -18t66 -51t39 -86t2.5 -118q-12 -85 -54 -146.5t-96.5 -89t-116.5 -27.5zM235 13q39 0 77 14t72.5 42t59.5 76.5t34 109.5q16 120 -35 186 t-139 66q-57 0 -107.5 -27.5t-87 -86t-47.5 -138.5q-8 -51 -0.5 -90.5t23.5 -68t41 -47.5t52.5 -27.5t56.5 -8.5z" />
<glyph unicode="&#xf4;" horiz-adv-x="573" d="M222 631l-14 13l124 111h16l90 -110l-18 -14l-83 100zM232 -8q-40 0 -77 16t-66.5 47t-43 83t-4.5 117q18 129 93.5 201t173.5 72q45 0 83.5 -18t66 -51t39 -86t2.5 -118q-12 -85 -54 -146.5t-96.5 -89t-116.5 -27.5zM235 13q39 0 77 14t72.5 42t59.5 76.5t34 109.5 q16 120 -35 186t-139 66q-57 0 -107.5 -27.5t-87 -86t-47.5 -138.5q-8 -51 -0.5 -90.5t23.5 -68t41 -47.5t52.5 -27.5t56.5 -8.5z" />
<glyph unicode="&#xf5;" horiz-adv-x="573" d="M167 656q8 30 38 54.5t72 29.5q23 3 43 -5t32.5 -18.5t28 -18.5t31.5 -6q44 4 68 56l20 -6q-11 -25 -33 -46.5t-55 -24.5q-20 -2 -38 6t-30 18.5t-30 18t-38 5.5q-23 -2 -42.5 -13t-31.5 -25t-16 -29zM232 -8q-40 0 -77 16t-66.5 47t-43 83t-4.5 117q18 129 93.5 201 t173.5 72q45 0 83.5 -18t66 -51t39 -86t2.5 -118q-12 -85 -54 -146.5t-96.5 -89t-116.5 -27.5zM235 13q39 0 77 14t72.5 42t59.5 76.5t34 109.5q16 120 -35 186t-139 66q-57 0 -107.5 -27.5t-87 -86t-47.5 -138.5q-8 -51 -0.5 -90.5t23.5 -68t41 -47.5t52.5 -27.5t56.5 -8.5 z" />
<glyph unicode="&#xf6;" horiz-adv-x="573" d="M236 688q-11 0 -19.5 8t-6.5 19q1 6 4 11.5t7 8.5t9 5t10 2q12 0 20.5 -7.5t7.5 -19.5q-3 -12 -12 -19.5t-20 -7.5zM431.5 688q-11.5 0 -20 8t-6.5 19q2 12 10.5 19.5t19.5 7.5q12 0 21 -7.5t7 -19.5t-11 -19.5t-20.5 -7.5zM232 -8q-40 0 -77 16t-66.5 47t-43 83 t-4.5 117q18 129 93.5 201t173.5 72q45 0 83.5 -18t66 -51t39 -86t2.5 -118q-12 -85 -54 -146.5t-96.5 -89t-116.5 -27.5zM235 13q39 0 77 14t72.5 42t59.5 76.5t34 109.5q16 120 -35 186t-139 66q-57 0 -107.5 -27.5t-87 -86t-47.5 -138.5q-8 -51 -0.5 -90.5t23.5 -68 t41 -47.5t52.5 -27.5t56.5 -8.5z" />
<glyph unicode="&#xf7;" horiz-adv-x="649" d="M344 499q-16 0 -13 21q3 22 20 22t13 -22q-3 -21 -20 -21zM100 338l3 21h440l-3 -21h-440zM295 147q-16 0 -15 21q4 22 20.5 22t13.5 -22q-2 -21 -19 -21z" />
<glyph unicode="&#xf8;" horiz-adv-x="573" d="M499 255q-12 -85 -54 -146.5t-96.5 -89t-116.5 -27.5q-85 0 -142 60l-47 -51l-15 13l50 54q-53 73 -37 187q18 129 93.5 201t173.5 72q85 0 138 -57l42 47l15 -14l-44 -48q58 -76 40 -201zM62 255q-15 -107 30 -171l340 372q-50 51 -128 51q-57 0 -107.5 -27.5t-87 -86 t-47.5 -138.5zM478 255q16 116 -34 185l-339 -372q51 -55 130 -55q39 0 77 14t72.5 42t59.5 76.5t34 109.5z" />
<glyph unicode="&#xf9;" horiz-adv-x="532" d="M294 626l-66 116l20 14l71 -130h-25zM196 -9q-89 0 -131.5 62.5t-27.5 172.5q2 18 6.5 48.5t13.5 94.5t15 106l6 42h21l-41 -291q-14 -100 23.5 -157t118.5 -57q76 0 134.5 59.5t71.5 154.5l41 291h21l-72 -517h-21l18 129q-18 -52 -70.5 -95t-126.5 -43z" />
<glyph unicode="&#xfa;" horiz-adv-x="532" d="M248 626l107 130l17 -13l-99 -117h-25zM196 -9q-89 0 -131.5 62.5t-27.5 172.5q2 18 6.5 48.5t13.5 94.5t15 106l6 42h21l-41 -291q-14 -100 23.5 -157t118.5 -57q76 0 134.5 59.5t71.5 154.5l41 291h21l-72 -517h-21l18 129q-18 -52 -70.5 -95t-126.5 -43z" />
<glyph unicode="&#xfb;" horiz-adv-x="532" d="M183 630l-14 13l124 111h16l90 -110l-18 -14l-83 100zM196 -9q-89 0 -131.5 62.5t-27.5 172.5q2 18 6.5 48.5t13.5 94.5t15 106l6 42h21l-41 -291q-14 -100 23.5 -157t118.5 -57q76 0 134.5 59.5t71.5 154.5l41 291h21l-72 -517h-21l18 129q-18 -52 -70.5 -95t-126.5 -43 z" />
<glyph unicode="&#xfc;" horiz-adv-x="532" d="M197 687q-11 0 -19.5 8t-6.5 19q1 6 4 11.5t7 8.5t9 5t11 2q11 0 19.5 -7.5t7.5 -19.5q-2 -12 -11.5 -19.5t-20.5 -7.5zM393 687q-11 0 -20 8t-7 19q2 12 10.5 19.5t19.5 7.5q12 0 21 -7.5t7 -19.5q-1 -8 -6 -14t-11.5 -9.5t-13.5 -3.5zM196 -9q-89 0 -131.5 62.5 t-27.5 172.5q2 18 6.5 48.5t13.5 94.5t15 106l6 42h21l-41 -291q-14 -100 23.5 -157t118.5 -57q76 0 134.5 59.5t71.5 154.5l41 291h21l-72 -517h-21l18 129q-18 -52 -70.5 -95t-126.5 -43z" />
<glyph unicode="&#xfd;" horiz-adv-x="512" d="M260 626l108 130l16 -13l-98 -117h-26zM108 -198h-26l102 183l8 18l-135 514h23l127 -489l264 489h25z" />
<glyph unicode="&#xfe;" horiz-adv-x="585" d="M-1 -229l137 976h22l-54 -378q20 60 84.5 107.5t140.5 47.5q39 0 75 -17.5t63.5 -50.5t40 -87.5t2.5 -120.5q-17 -125 -90.5 -193t-166.5 -68q-71 0 -123.5 51t-57.5 106l-52 -373h-21zM256 8q35 0 72 15t70.5 43.5t58.5 75.5t33 106q9 62 -2.5 112t-37 80.5t-57.5 46.5 t-66 16q-35 0 -72 -14.5t-72 -42.5t-61.5 -77.5t-35.5 -112.5q-9 -61 4 -110.5t40 -78.5t59.5 -44t66.5 -15z" />
<glyph unicode="&#xff;" horiz-adv-x="512" d="M210 687q-11 0 -19.5 8t-6.5 19q1 6 3.5 11.5t7 8.5t9.5 5t10 2q12 0 20.5 -7.5t7.5 -19.5q-3 -12 -12 -19.5t-20 -7.5zM405 687q-11 0 -19.5 8t-6.5 19q2 12 10.5 19.5t18.5 7.5q12 0 21 -7.5t8 -19.5q-1 -6 -4 -11t-7.5 -8.5t-9.5 -5.5t-11 -2zM108 -198h-26l102 183 l8 18l-135 514h23l127 -489l264 489h25z" />
<glyph unicode="&#x100;" horiz-adv-x="659" d="M240 852l4 21h316l-4 -21h-316zM565 0l-53 204h-409l-109 -204h-26l403 746h25l190 -746h-21zM380 721l-266 -496h393z" />
<glyph unicode="&#x101;" horiz-adv-x="576" d="M190 708l3 21h316l-3 -21h-316zM226 -12q-38 0 -73 16t-64.5 46.5t-43 84t-4.5 121.5q9 66 36 119t63.5 85t77.5 48.5t83 16.5q72 0 119.5 -48t50.5 -101l20 141h21l-72 -517h-21l20 144q-20 -62 -78.5 -109t-134.5 -47zM228 9q35 0 69.5 14.5t67.5 42.5t57 77.5 t33 112.5q8 62 -2.5 111t-35 78t-55 44t-64.5 15q-28 0 -57 -9t-58.5 -29t-54 -48.5t-42.5 -70t-25 -91.5q-9 -63 4.5 -112.5t40.5 -77.5t58.5 -42.5t63.5 -14.5z" />
<glyph unicode="&#x102;" horiz-adv-x="659" d="M396 832q-100 0 -154 95l16 12q45 -86 142 -86q91 0 163 86l15 -12q-76 -95 -182 -95zM565 0l-53 204h-409l-109 -204h-26l403 746h25l190 -746h-21zM380 721l-266 -496h393z" />
<glyph unicode="&#x103;" horiz-adv-x="576" d="M339 645q-100 0 -154 95l17 12q44 -86 141 -86q92 0 163 86l15 -12q-75 -95 -182 -95zM226 -12q-38 0 -73 16t-64.5 46.5t-43 84t-4.5 121.5q9 66 36 119t63.5 85t77.5 48.5t83 16.5q72 0 119.5 -48t50.5 -101l20 141h21l-72 -517h-21l20 144q-20 -62 -78.5 -109 t-134.5 -47zM228 9q35 0 69.5 14.5t67.5 42.5t57 77.5t33 112.5q8 62 -2.5 111t-35 78t-55 44t-64.5 15q-28 0 -57 -9t-58.5 -29t-54 -48.5t-42.5 -70t-25 -91.5q-9 -63 4.5 -112.5t40.5 -77.5t58.5 -42.5t63.5 -14.5z" />
<glyph unicode="&#x104;" horiz-adv-x="659" d="M583 -195l-4 -21h-63q-36 0 -55.5 17.5t-18.5 42.5t20 47q73 85 100 111l2 2l-52 200h-409l-109 -204h-26l403 746h25l189 -744l2 -2l-107 -121q-14 -13 -16 -30.5t11 -30.5t41 -13h67zM380 721l-266 -496h393z" />
<glyph unicode="&#x105;" horiz-adv-x="576" d="M436 -195l-4 -21h-63q-36 0 -55.5 17.5t-18.5 42.5t20 47q73 85 100 111l5 4l19 138q-20 -62 -78.5 -109t-134.5 -47q-38 0 -73 16t-64.5 46.5t-43 84t-4.5 121.5q9 66 36 119t63.5 85t77.5 48.5t83 16.5q72 0 119.5 -48t50.5 -101l20 141h21l-72 -517l-107 -121 q-14 -13 -16 -30.5t11 -30.5t41 -13h67zM228 9q35 0 69.5 14.5t67.5 42.5t57 77.5t33 112.5q8 62 -2.5 111t-35 78t-55 44t-64.5 15q-28 0 -57 -9t-58.5 -29t-54 -48.5t-42.5 -70t-25 -91.5q-9 -63 4.5 -112.5t40.5 -77.5t58.5 -42.5t63.5 -14.5z" />
<glyph unicode="&#x106;" horiz-adv-x="745" d="M427 810l107 130l17 -13l-98 -117h-26zM333 -9q-60 0 -113 23.5t-94 69t-58.5 121.5t-4.5 172q11 77 39 140.5t65.5 107t83.5 73.5t93.5 43.5t95.5 13.5q111 0 184 -61.5t77 -153.5h-23q-5 83 -71 138t-169 55q-57 0 -112 -21t-105.5 -62.5t-87 -112t-49.5 -160.5 q-13 -91 3 -163t54 -115t88 -65t109 -22q102 0 185.5 59t112.5 138h23q-31 -91 -119.5 -154.5t-206.5 -63.5z" />
<glyph unicode="&#x107;" horiz-adv-x="544" d="M291 630l107 130l17 -12l-99 -118h-25zM232 -18q-40 0 -76.5 16t-66.5 47t-44 85.5t-4 124.5q10 69 37.5 123t65 86.5t80.5 49t87 16.5q53 0 93.5 -22t61.5 -56t24 -75h-22q-8 58 -49 95t-111 37q-41 0 -79.5 -15t-73 -45t-59.5 -80t-34 -114q-9 -66 3.5 -117t40 -79 t60.5 -42t68 -14q69 0 122 32t81 89h21q-18 -43 -50.5 -74.5t-77.5 -49.5t-98 -18z" />
<glyph unicode="&#x10a;" horiz-adv-x="745" d="M456 845q-11 0 -20 8t-7 20t11 19.5t20 7.5q12 0 20.5 -7.5t6.5 -19.5q-1 -8 -6 -14.5t-11.5 -10t-13.5 -3.5zM333 -9q-60 0 -113 23.5t-94 69t-58.5 121.5t-4.5 172q11 77 39 140.5t65.5 107t83.5 73.5t93.5 43.5t95.5 13.5q111 0 184 -61.5t77 -153.5h-23 q-5 83 -71 138t-169 55q-57 0 -112 -21t-105.5 -62.5t-87 -112t-49.5 -160.5q-13 -91 3 -163t54 -115t88 -65t109 -22q102 0 185.5 59t112.5 138h23q-31 -91 -119.5 -154.5t-206.5 -63.5z" />
<glyph unicode="&#x10b;" horiz-adv-x="544" d="M335 691q-11 0 -20 8t-6 19q0 6 3 11.5t7.5 9t9.5 5.5t10 2q12 0 20.5 -8t6.5 -20t-11 -19.5t-20 -7.5zM232 -18q-40 0 -76.5 16t-66.5 47t-44 85.5t-4 124.5q10 69 37.5 123t65 86.5t80.5 49t87 16.5q53 0 93.5 -22t61.5 -56t24 -75h-22q-8 58 -49 95t-111 37 q-41 0 -79.5 -15t-73 -45t-59.5 -80t-34 -114q-9 -66 3.5 -117t40 -79t60.5 -42t68 -14q69 0 122 32t81 89h21q-18 -43 -50.5 -74.5t-77.5 -49.5t-98 -18z" />
<glyph unicode="&#x10c;" horiz-adv-x="745" d="M444 819l-92 111l17 13l87 -100l111 100l14 -14l-121 -110h-16zM333 -9q-60 0 -113 23.5t-94 69t-58.5 121.5t-4.5 172q11 77 39 140.5t65.5 107t83.5 73.5t93.5 43.5t95.5 13.5q111 0 184 -61.5t77 -153.5h-23q-5 83 -71 138t-169 55q-57 0 -112 -21t-105.5 -62.5 t-87 -112t-49.5 -160.5q-13 -91 3 -163t54 -115t88 -65t109 -22q102 0 185.5 59t112.5 138h23q-31 -91 -119.5 -154.5t-206.5 -63.5z" />
<glyph unicode="&#x10d;" horiz-adv-x="544" d="M320 645l-92 111l17 13l87 -100l111 100l14 -14l-121 -110h-16zM232 -18q-40 0 -76.5 16t-66.5 47t-44 85.5t-4 124.5q10 69 37.5 123t65 86.5t80.5 49t87 16.5q53 0 93.5 -22t61.5 -56t24 -75h-22q-8 58 -49 95t-111 37q-41 0 -79.5 -15t-73 -45t-59.5 -80t-34 -114 q-9 -66 3.5 -117t40 -79t60.5 -42t68 -14q69 0 122 32t81 89h21q-18 -43 -50.5 -74.5t-77.5 -49.5t-98 -18z" />
<glyph unicode="&#x10e;" horiz-adv-x="689" d="M362 797l-92 111l17 13l87 -100l111 100l14 -14l-121 -110h-16zM42 0l105 746h159q173 0 260.5 -90.5t61.5 -272.5q-27 -197 -133.5 -290t-293.5 -93h-159zM66 21h138q353 0 403 362q24 172 -57 257.5t-248 85.5h-137z" />
<glyph unicode="&#x10f;" horiz-adv-x="672" d="M681 746h23l-67 -176h-22zM227 -12q-40 0 -75.5 16t-64.5 46.5t-41.5 84t-3.5 121.5q9 66 36 119t64 85t78 48.5t82 16.5q69 0 117.5 -48t52.5 -101l53 370h21l-105 -746h-21l20 144q-13 -40 -40.5 -74t-73.5 -58t-99 -24zM229 9q35 0 69.5 14.5t67.5 42.5t57 77.5 t33 112.5q8 62 -2.5 111t-35 78t-55 44t-64.5 15q-35 0 -72 -15t-71 -44t-59.5 -78t-34.5 -111q-8 -53 -0.5 -93.5t23 -69.5t40 -47.5t50.5 -27.5t54 -9z" />
<glyph unicode="&#x110;" horiz-adv-x="723" d="M662 383q-28 -197 -134 -290t-294 -93h-158l51 366h-117l3 20h117l51 360h158q174 0 261 -90.5t62 -272.5zM100 21h137q353 0 403 362q25 172 -56 257.5t-248 85.5h-138l-47 -340h204l-2 -20h-205z" />
<glyph unicode="&#x111;" horiz-adv-x="592" d="M439 144q-20 -63 -77 -109.5t-136 -46.5q-40 0 -75.5 16t-64.5 46.5t-41.5 84t-3.5 121.5q9 66 36 119t64 85t78 48.5t82 16.5q69 0 117.5 -48t52.5 -101l42 292h-164l4 20h163l16 115h21l-16 -115h115l-4 -20h-114l-94 -668h-21zM228 9q35 0 69.5 14.5t67.5 42.5 t57 77.5t33 112.5q8 62 -2.5 111t-35 78t-55 44t-64.5 15q-28 0 -57 -9t-58.5 -29t-54 -48.5t-42.5 -70t-25 -91.5q-9 -63 3 -112.5t38 -77.5t58.5 -42.5t67.5 -14.5z" />
<glyph unicode="&#x112;" horiz-adv-x="607" d="M219 850l4 22h316l-3 -22h-317zM42 0l105 746h463l-3 -22h-442l-47 -337h350l-3 -21h-351l-48 -345h451l-4 -21h-471z" />
<glyph unicode="&#x113;" horiz-adv-x="570" d="M175 705l3 21h317l-4 -21h-316zM250 -15q-107 0 -166 76t-42 197q17 123 94.5 197.5t175.5 74.5q96 0 149 -72.5t37 -188.5l-3 -20h-433q-13 -109 41.5 -176t149.5 -67q65 0 109.5 27.5t81.5 69.5l16 -15q-17 -18 -29.5 -30.5t-32.5 -27.5t-40 -23.5t-48 -15t-60 -6.5z M65 270h412q14 104 -34 171.5t-133 67.5q-87 0 -157 -66.5t-88 -172.5z" />
<glyph unicode="&#x114;" horiz-adv-x="607" d="M375 831q-100 0 -155 95l17 12q45 -86 142 -86q91 0 163 86l14 -12q-75 -95 -181 -95zM42 0l105 746h463l-3 -22h-442l-47 -337h350l-3 -21h-351l-48 -345h451l-4 -21h-471z" />
<glyph unicode="&#x115;" horiz-adv-x="570" d="M324 642q-100 0 -154 95l17 12q45 -86 142 -86q91 0 162 86l15 -12q-75 -95 -182 -95zM250 -15q-107 0 -166 76t-42 197q17 123 94.5 197.5t175.5 74.5q96 0 149 -72.5t37 -188.5l-3 -20h-433q-13 -109 41.5 -176t149.5 -67q65 0 109.5 27.5t81.5 69.5l16 -15 q-17 -18 -29.5 -30.5t-32.5 -27.5t-40 -23.5t-48 -15t-60 -6.5zM65 270h412q14 104 -34 171.5t-133 67.5q-87 0 -157 -66.5t-88 -172.5z" />
<glyph unicode="&#x116;" horiz-adv-x="607" d="M378 844q-11 0 -19.5 8t-6.5 20q1 12 10 19.5t20 7.5q12 0 20.5 -8t7.5 -19q-2 -8 -6.5 -14.5t-11.5 -10t-14 -3.5zM42 0l105 746h463l-3 -22h-442l-47 -337h350l-3 -21h-351l-48 -345h451l-4 -21h-471z" />
<glyph unicode="&#x117;" horiz-adv-x="570" d="M333 688q-11 0 -20 8t-6 19q0 6 3 11.5t7.5 8.5t9.5 5t10 2q12 0 20.5 -7.5t6.5 -19.5t-11 -19.5t-20 -7.5zM250 -15q-107 0 -166 76t-42 197q17 123 94.5 197.5t175.5 74.5q96 0 149 -72.5t37 -188.5l-3 -20h-433q-13 -109 41.5 -176t149.5 -67q65 0 109.5 27.5 t81.5 69.5l16 -15q-17 -18 -29.5 -30.5t-32.5 -27.5t-40 -23.5t-48 -15t-60 -6.5zM65 270h412q14 104 -34 171.5t-133 67.5q-87 0 -157 -66.5t-88 -172.5z" />
<glyph unicode="&#x118;" horiz-adv-x="607" d="M509 -195l-4 -21h-63q-35 0 -54.5 17.5t-18.5 42.5t19 47q70 81 98 109h-444l105 746h463l-3 -22h-442l-47 -337h350l-3 -21h-351l-48 -345h451l-4 -21l-107 -121q-13 -13 -15.5 -30.5t10.5 -30.5t41 -13h67z" />
<glyph unicode="&#x119;" horiz-adv-x="570" d="M420 -160h-63q-35 0 -54.5 18t-18.5 43t19 47q15 18 50 56q-47 -19 -103 -19q-107 0 -166 76t-42 197q17 123 94.5 197.5t175.5 74.5q96 0 149 -72.5t37 -188.5l-3 -20h-433q-13 -109 41.5 -176t149.5 -67q65 0 109.5 27.5t81.5 69.5l16 -15q-27 -29 -43 -43l-96 -109 q-10 -10 -13.5 -23t-0.5 -24.5t16 -19.5t34 -8h67zM65 270h412q14 104 -34 171.5t-133 67.5q-87 0 -157 -66.5t-88 -172.5z" />
<glyph unicode="&#x11a;" horiz-adv-x="607" d="M366 818l-92 111l17 13l87 -100l111 100l14 -14l-121 -110h-16zM42 0l105 746h463l-3 -22h-442l-47 -337h350l-3 -21h-351l-48 -345h451l-4 -21h-471z" />
<glyph unicode="&#x11b;" horiz-adv-x="570" d="M318 642l-92 111l17 12l87 -99l111 99l14 -13l-121 -110h-16zM250 -15q-107 0 -166 76t-42 197q17 123 94.5 197.5t175.5 74.5q96 0 149 -72.5t37 -188.5l-3 -20h-433q-13 -109 41.5 -176t149.5 -67q65 0 109.5 27.5t81.5 69.5l16 -15q-17 -18 -29.5 -30.5t-32.5 -27.5 t-40 -23.5t-48 -15t-60 -6.5zM65 270h412q14 104 -34 171.5t-133 67.5q-87 0 -157 -66.5t-88 -172.5z" />
<glyph unicode="&#x11e;" horiz-adv-x="741" d="M442 835q-100 0 -154 95l16 12q45 -86 142 -86q91 0 163 86l15 -12q-75 -95 -182 -95zM322 -12q-62 0 -114 24.5t-90 70.5t-53 120.5t-2 167.5q13 95 49 170t86 121t109.5 69.5t122.5 23.5q112 0 180 -60t78 -148h-22q-5 35 -21.5 67t-45 59t-73 43.5t-99.5 16.5 q-58 0 -113 -22t-102.5 -64.5t-81 -113.5t-46.5 -162q-11 -74 -3 -132t29 -101t54.5 -71.5t74 -43t87.5 -14.5q133 0 218.5 83t107.5 244h-239l3 21h260l-3 -21q-24 -173 -114.5 -260.5t-236.5 -87.5z" />
<glyph unicode="&#x11f;" horiz-adv-x="584" d="M353 645q-100 0 -155 95l17 12q45 -86 142 -86q91 0 163 86l14 -12q-75 -95 -181 -95zM193 -226q-35 0 -62.5 6.5t-49 20t-33 23.5t-28.5 27l-7 7l17 14l6 -6q16 -17 26.5 -26t30 -21t45.5 -18t59 -6q202 0 240 275l10 72q-17 -56 -78 -103.5t-139 -47.5q-100 0 -153 70 t-35 197q18 131 91.5 202.5t172.5 71.5q142 0 175 -138l19 123h21l-63 -448q-12 -84 -37.5 -143.5t-62 -91.5t-76.5 -46t-89 -14zM232 12q83 0 149.5 67t82.5 179q17 128 -29 190.5t-134 62.5q-89 0 -156 -67t-83 -186q-17 -120 30.5 -183t139.5 -63z" />
<glyph unicode="&#x120;" horiz-adv-x="741" d="M445 848q-11 0 -19.5 8.5t-6.5 19.5q1 6 4 11t7 8.5t9 5.5t10 2q12 0 20.5 -7.5t7.5 -19.5q-3 -12 -12 -20t-20 -8zM322 -12q-62 0 -114 24.5t-90 70.5t-53 120.5t-2 167.5q13 95 49 170t86 121t109.5 69.5t122.5 23.5q112 0 180 -60t78 -148h-22q-5 35 -21.5 67t-45 59 t-73 43.5t-99.5 16.5q-58 0 -113 -22t-102.5 -64.5t-81 -113.5t-46.5 -162q-11 -74 -3 -132t29 -101t54.5 -71.5t74 -43t87.5 -14.5q133 0 218.5 83t107.5 244h-239l3 21h260l-3 -21q-24 -173 -114.5 -260.5t-236.5 -87.5z" />
<glyph unicode="&#x121;" horiz-adv-x="584" d="M361 691q-11 0 -19.5 8t-6.5 19q1 6 4 11.5t7 9t9 5.5t10 2q12 0 20.5 -8t7.5 -20q-3 -12 -12 -19.5t-20 -7.5zM193 -226q-35 0 -62.5 6.5t-49 20t-33 23.5t-28.5 27l-7 7l17 14l6 -6q16 -17 26.5 -26t30 -21t45.5 -18t59 -6q202 0 240 275l10 72q-17 -56 -78 -103.5 t-139 -47.5q-100 0 -153 70t-35 197q18 131 91.5 202.5t172.5 71.5q142 0 175 -138l19 123h21l-63 -448q-12 -84 -37.5 -143.5t-62 -91.5t-76.5 -46t-89 -14zM232 12q83 0 149.5 67t82.5 179q17 128 -29 190.5t-134 62.5q-89 0 -156 -67t-83 -186q-17 -120 30.5 -183 t139.5 -63z" />
<glyph unicode="&#x122;" horiz-adv-x="741" d="M322 -12q-62 0 -114 24.5t-90 70.5t-53 120.5t-2 167.5q13 95 49 170t86 121t109.5 69.5t122.5 23.5q112 0 180 -60t78 -148h-22q-5 35 -21.5 67t-45 59t-73 43.5t-99.5 16.5q-58 0 -113 -22t-102.5 -64.5t-81 -113.5t-46.5 -162q-11 -74 -3 -132t29 -101t54.5 -71.5 t74 -43t87.5 -14.5q133 0 218.5 83t107.5 244h-239l3 21h260l-3 -21q-24 -173 -114.5 -260.5t-236.5 -87.5zM266 -219l27 120h36l-38 -120h-25z" />
<glyph unicode="&#x123;" horiz-adv-x="584" d="M381 758l-27 -121h-36l38 121h25zM193 -226q-35 0 -62.5 6.5t-49 20t-33 23.5t-28.5 27l-7 7l17 14l6 -6q16 -17 26.5 -26t30 -21t45.5 -18t59 -6q202 0 240 275l10 72q-17 -56 -78 -103.5t-139 -47.5q-100 0 -153 70t-35 197q18 131 91.5 202.5t172.5 71.5 q142 0 175 -138l19 123h21l-63 -448q-12 -84 -37.5 -143.5t-62 -91.5t-76.5 -46t-89 -14zM232 12q83 0 149.5 67t82.5 179q17 128 -29 190.5t-134 62.5q-89 0 -156 -67t-83 -186q-17 -120 30.5 -183t139.5 -63z" />
<glyph unicode="&#x126;" horiz-adv-x="682" d="M113 357l-50 -357h-21l79 560h-88l2 20h89l23 166h21l-23 -166h451l24 166h20l-23 -166h89l-2 -20h-90l-78 -560h-22l51 357h-452zM117 378h451l25 182h-451z" />
<glyph unicode="&#x127;" horiz-adv-x="554" d="M91 277l-39 -277h-20l93 669h-84l4 19h83l16 114h21l-16 -114h208l-4 -19h-207l-42 -301q17 63 74 112.5t133 49.5q89 0 131 -67t25 -188l-39 -275h-21l39 277q16 110 -21 171t-117 61q-76 0 -139 -62.5t-78 -169.5z" />
<glyph unicode="&#x12a;" horiz-adv-x="210" d="M84 824l3 21h168l-3 -21h-168zM42 0l105 746h21l-105 -746h-21z" />
<glyph unicode="&#x12b;" d="M56 693l3 21h168l-3 -21h-168zM32 0l72 517h21l-73 -517h-20z" />
<glyph unicode="&#x12c;" horiz-adv-x="210" d="M167 802q-66 0 -97 70l17 8q26 -57 83 -57q21 0 48.5 14.5t47.5 42.5l14 -8q-21 -37 -52 -53.5t-61 -16.5zM42 0l105 746h21l-105 -746h-21z" />
<glyph unicode="&#x12d;" d="M138 667q-71 0 -98 68l17 6q25 -54 84 -54q21 0 48.5 14t45.5 42l15 -8q-15 -23 -35.5 -39t-39.5 -22.5t-37 -6.5zM32 0l72 517h21l-73 -517h-20z" />
<glyph unicode="&#x12e;" horiz-adv-x="203" d="M55 -195l-5 -21h-63q-35 0 -54.5 17.5t-18.5 42.5t20 47q73 84 100 111l5 4l104 740h21l-105 -746l-107 -121q-14 -13 -16.5 -30.5t11 -30.5t40.5 -13h68z" />
<glyph unicode="&#x12f;" horiz-adv-x="187" d="M144 705q-8 0 -15.5 6t-7.5 17q0 5 2 9.5t5.5 7.5t7.5 5t8 2q5 0 10 -3t9 -8.5t4 -12.5q0 -11 -7.5 -17t-15.5 -6zM45 -195l-4 -21h-63q-36 0 -55.5 17.5t-18.5 42.5t20 47q16 18 55 61.5t45 49.5l6 5l72 510h21l-73 -517h-1l-107 -121q-13 -13 -15.5 -30.5t10.5 -30.5 t41 -13h67z" />
<glyph unicode="&#x130;" horiz-adv-x="210" d="M169 815q-11 0 -19.5 8t-6.5 19q1 12 10 19.5t20 7.5q12 0 20.5 -7.5t7.5 -19.5q-3 -12 -12 -19.5t-20 -7.5zM42 0l105 746h21l-105 -746h-21z" />
<glyph unicode="&#x131;" d="M32 0l72 517h21l-73 -517h-20z" />
<glyph unicode="&#x136;" horiz-adv-x="635" d="M42 0l105 746h21l-67 -477l516 477h34l-367 -339l262 -407h-26l-254 392l-169 -156l-34 -236h-21zM210 -203l27 121h36l-38 -121h-25z" />
<glyph unicode="&#x137;" horiz-adv-x="485" d="M32 0l104 746h22l-75 -530l358 301h29l-261 -222l203 -295h-28l-192 281l-113 -93l-27 -188h-20zM150 -187l27 121h36l-38 -121h-25z" />
<glyph unicode="&#x139;" horiz-adv-x="554" d="M163 805l107 131l17 -13l-99 -118h-25zM42 0l105 746h21l-102 -725h402l-3 -21h-423z" />
<glyph unicode="&#x13a;" d="M145 803l85 78l13 -19l-73 -59h-25zM32 0l104 746h22l-106 -746h-20z" />
<glyph unicode="&#x13b;" horiz-adv-x="554" d="M42 0l105 746h21l-102 -725h402l-3 -21h-423zM197 -197l28 120h35l-37 -120h-26z" />
<glyph unicode="&#x13c;" d="M32 0l104 746h22l-106 -746h-20zM-14 -196l28 120h35l-37 -120h-26z" />
<glyph unicode="&#x13d;" horiz-adv-x="555" d="M469 746h21l-41 -176h-21zM42 0l105 746h21l-102 -725h402l-3 -21h-423z" />
<glyph unicode="&#x13e;" horiz-adv-x="279" d="M274 756h21l-48 -154h-21zM32 0l104 746h22l-106 -746h-20z" />
<glyph unicode="&#x13f;" horiz-adv-x="554" d="M42 0l105 746h21l-102 -725h402l-3 -21h-423zM526 358q-11 0 -19.5 8t-6.5 19q1 12 10 20t20 8q12 0 20.5 -8t7.5 -20q-3 -11 -12 -19t-20 -8z" />
<glyph unicode="&#x140;" horiz-adv-x="364" d="M32 0l104 746h22l-106 -746h-20zM288 322q-8 0 -14.5 5.5t-6.5 16t6.5 16t14.5 5.5q5 0 9.5 -2t8 -7.5t3.5 -12.5q0 -10 -6.5 -15.5t-14.5 -5.5z" />
<glyph unicode="&#x141;" horiz-adv-x="573" d="M487 21l-3 -21h-423l45 323l-65 -20l-6 20l74 22l57 401h21l-56 -393l288 85l6 -19l-297 -89l-43 -309h402z" />
<glyph unicode="&#x142;" d="M244 422l-136 -29l-56 -393h-20l54 387l-126 -27l-4 21l133 30l47 335h22l-47 -331l128 28z" />
<glyph unicode="&#x143;" horiz-adv-x="714" d="M393 790l107 130l17 -13l-99 -117h-25zM42 0l105 746h25l378 -719l101 719h21l-105 -746h-28l-375 714l-101 -714h-21z" />
<glyph unicode="&#x144;" horiz-adv-x="538" d="M275 627l107 130l17 -13l-99 -117h-25zM32 0l72 517h21l-16 -117q19 53 72 90.5t120 37.5q94 0 133.5 -60t25.5 -166l-42 -302h-21l42 301q14 96 -21.5 151t-117.5 55q-46 0 -89 -23.5t-75 -71.5t-42 -111l-42 -301h-20z" />
<glyph unicode="&#x145;" horiz-adv-x="714" d="M42 0l105 746h25l378 -719l101 719h21l-105 -746h-28l-375 714l-101 -714h-21zM245 -215l27 121h36l-38 -121h-25z" />
<glyph unicode="&#x146;" horiz-adv-x="538" d="M32 0l72 517h21l-16 -117q19 53 72 90.5t120 37.5q94 0 133.5 -60t25.5 -166l-42 -302h-21l42 301q14 96 -21.5 151t-117.5 55q-46 0 -89 -23.5t-75 -71.5t-42 -111l-42 -301h-20zM168 -215l27 121h36l-38 -121h-25z" />
<glyph unicode="&#x147;" horiz-adv-x="714" d="M410 799l-93 111l17 13l87 -100l111 100l14 -14l-121 -110h-15zM42 0l105 746h25l378 -719l101 719h21l-105 -746h-28l-375 714l-101 -714h-21z" />
<glyph unicode="&#x148;" horiz-adv-x="538" d="M304 642l-92 111l17 12l87 -99l111 99l14 -13l-121 -110h-16zM32 0l72 517h21l-16 -117q19 53 72 90.5t120 37.5q94 0 133.5 -60t25.5 -166l-42 -302h-21l42 301q14 96 -21.5 151t-117.5 55q-46 0 -89 -23.5t-75 -71.5t-42 -111l-42 -301h-20z" />
<glyph unicode="&#x14c;" horiz-adv-x="771" d="M296 849l3 21h316l-3 -21h-316zM332 -6q-45 0 -88 14t-80.5 44.5t-64 73.5t-37 106t-0.5 137q13 90 50.5 164t90 121.5t113.5 73t123 25.5q58 0 111 -25.5t93.5 -72t59 -121.5t5.5 -165q-12 -85 -49.5 -156.5t-89.5 -119t-113.5 -73.5t-123.5 -26zM335 15q44 0 90 15.5 t89 46t78.5 72.5t61 99t34.5 121q12 86 -5 157t-55 114.5t-87.5 67.5t-104.5 24q-58 0 -115 -24t-106 -68.5t-84.5 -115t-47.5 -155.5q-12 -88 5.5 -158t56 -111.5t87.5 -63t103 -21.5z" />
<glyph unicode="&#x14d;" horiz-adv-x="573" d="M173 705l3 21h316l-3 -21h-316zM232 -8q-40 0 -77 16t-66.5 47t-43 83t-4.5 117q18 129 93.5 201t173.5 72q45 0 83.5 -18t66 -51t39 -86t2.5 -118q-12 -85 -54 -146.5t-96.5 -89t-116.5 -27.5zM235 13q39 0 77 14t72.5 42t59.5 76.5t34 109.5q16 120 -35 186t-139 66 q-57 0 -107.5 -27.5t-87 -86t-47.5 -138.5q-8 -51 -0.5 -90.5t23.5 -68t41 -47.5t52.5 -27.5t56.5 -8.5z" />
<glyph unicode="&#x14e;" horiz-adv-x="771" d="M452 830q-100 0 -155 95l17 12q45 -87 142 -87q91 0 162 87l15 -12q-75 -95 -181 -95zM332 -6q-45 0 -88 14t-80.5 44.5t-64 73.5t-37 106t-0.5 137q13 90 50.5 164t90 121.5t113.5 73t123 25.5q58 0 111 -25.5t93.5 -72t59 -121.5t5.5 -165q-12 -85 -49.5 -156.5 t-89.5 -119t-113.5 -73.5t-123.5 -26zM335 15q44 0 90 15.5t89 46t78.5 72.5t61 99t34.5 121q12 86 -5 157t-55 114.5t-87.5 67.5t-104.5 24q-58 0 -115 -24t-106 -68.5t-84.5 -115t-47.5 -155.5q-12 -88 5.5 -158t56 -111.5t87.5 -63t103 -21.5z" />
<glyph unicode="&#x14f;" horiz-adv-x="573" d="M322 642q-100 0 -154 95l17 12q44 -86 142 -86q91 0 162 86l15 -12q-75 -95 -182 -95zM232 -8q-40 0 -77 16t-66.5 47t-43 83t-4.5 117q18 129 93.5 201t173.5 72q45 0 83.5 -18t66 -51t39 -86t2.5 -118q-12 -85 -54 -146.5t-96.5 -89t-116.5 -27.5zM235 13q39 0 77 14 t72.5 42t59.5 76.5t34 109.5q16 120 -35 186t-139 66q-57 0 -107.5 -27.5t-87 -86t-47.5 -138.5q-8 -51 -0.5 -90.5t23.5 -68t41 -47.5t52.5 -27.5t56.5 -8.5z" />
<glyph unicode="&#x150;" horiz-adv-x="771" d="M392 813h-26l90 130l18 -13zM505 813h-25l89 130l18 -13zM332 -6q-45 0 -88 14t-80.5 44.5t-64 73.5t-37 106t-0.5 137q13 90 50.5 164t90 121.5t113.5 73t123 25.5q58 0 111 -25.5t93.5 -72t59 -121.5t5.5 -165q-12 -85 -49.5 -156.5t-89.5 -119t-113.5 -73.5 t-123.5 -26zM335 15q44 0 90 15.5t89 46t78.5 72.5t61 99t34.5 121q12 86 -5 157t-55 114.5t-87.5 67.5t-104.5 24q-58 0 -115 -24t-106 -68.5t-84.5 -115t-47.5 -155.5q-12 -88 5.5 -158t56 -111.5t87.5 -63t103 -21.5z" />
<glyph unicode="&#x151;" horiz-adv-x="573" d="M251 606h-25l89 130l18 -13zM364 606h-25l89 130l18 -13zM232 -8q-40 0 -77 16t-66.5 47t-43 83t-4.5 117q18 129 93.5 201t173.5 72q45 0 83.5 -18t66 -51t39 -86t2.5 -118q-12 -85 -54 -146.5t-96.5 -89t-116.5 -27.5zM235 13q39 0 77 14t72.5 42t59.5 76.5t34 109.5 q16 120 -35 186t-139 66q-57 0 -107.5 -27.5t-87 -86t-47.5 -138.5q-8 -51 -0.5 -90.5t23.5 -68t41 -47.5t52.5 -27.5t56.5 -8.5z" />
<glyph unicode="&#x152;" horiz-adv-x="1161" d="M605 0l33 235q-33 -74 -88.5 -129.5t-120 -83.5t-129.5 -28q-45 0 -87.5 14t-80.5 44.5t-64 73.5t-37 106t-1 137q13 90 51 164t90 121.5t113 73t123 25.5q97 0 173.5 -65t95.5 -181l34 239h463l-3 -22h-442l-48 -337h351l-3 -21h-351l-48 -345h450l-3 -21h-471zM303 15 q45 0 91 15.5t89 46t78.5 72.5t60.5 99t34 121q12 86 -5 157t-55 114.5t-87.5 67.5t-104.5 24q-45 0 -91 -15t-88.5 -45.5t-77.5 -73t-60.5 -102t-35.5 -127.5q-12 -88 5.5 -158t56 -111.5t87.5 -63t103 -21.5z" />
<glyph unicode="&#x153;" horiz-adv-x="943" d="M870 88q-21 -23 -37.5 -38t-42 -31.5t-58 -25t-72.5 -8.5q-85 0 -141.5 51t-66.5 137q-34 -88 -101.5 -134.5t-145.5 -46.5q-40 0 -77 16t-66.5 47t-43 83t-4.5 117q18 129 93.5 201t172.5 72q77 0 130.5 -48.5t63.5 -137.5q22 58 61 101t87 65t100 22q96 0 149.5 -72.5 t36.5 -188.5l-3 -20h-433q-13 -109 41.5 -176t150.5 -67q65 0 109.5 27.5t81.5 69.5zM476 270h411q15 104 -33 171.5t-134 67.5q-87 0 -157 -66.5t-87 -172.5zM208 13q39 0 77 14t72.5 42t59.5 76.5t33 109.5q17 120 -34 186t-139 66q-58 0 -108 -27.5t-86.5 -86 t-47.5 -138.5q-9 -61 3 -109t38.5 -76.5t60.5 -42.5t71 -14z" />
<glyph unicode="&#x154;" horiz-adv-x="637" d="M339 810l107 130l17 -13l-99 -117h-25zM42 0l105 746h258q62 0 109 -26t69.5 -71.5t14.5 -101.5q-11 -83 -66 -134t-137 -60l124 -353h-23l-123 349h-261l-49 -349h-21zM114 370h246q88 0 147.5 51t70.5 126q10 74 -38 125.5t-127 51.5h-248z" />
<glyph unicode="&#x155;" horiz-adv-x="358" d="M202 628l107 130l17 -12l-99 -118h-25zM32 0l72 517h21l-16 -112q13 41 62 81t114 40q42 0 67 -10l-3 -24q-22 13 -64 13q-67 0 -121.5 -52t-66.5 -143l-43 -310h-22z" />
<glyph unicode="&#x156;" horiz-adv-x="637" d="M42 0l105 746h258q62 0 109 -26t69.5 -71.5t14.5 -101.5q-11 -83 -66 -134t-137 -60l124 -353h-23l-123 349h-261l-49 -349h-21zM114 370h246q88 0 147.5 51t70.5 126q10 74 -38 125.5t-127 51.5h-248zM213 -214l27 121h36l-38 -121h-25z" />
<glyph unicode="&#x157;" horiz-adv-x="358" d="M32 0l72 517h21l-16 -112q13 41 62 81t114 40q42 0 67 -10l-3 -24q-22 13 -64 13q-67 0 -121.5 -52t-66.5 -143l-43 -310h-22zM-16 -215l28 121h35l-38 -121h-25z" />
<glyph unicode="&#x158;" horiz-adv-x="637" d="M356 819l-92 111l16 13l88 -100l111 100l13 -14l-120 -110h-16zM42 0l105 746h258q62 0 109 -26t69.5 -71.5t14.5 -101.5q-11 -83 -66 -134t-137 -60l124 -353h-23l-123 349h-261l-49 -349h-21zM114 370h246q88 0 147.5 51t70.5 126q10 74 -38 125.5t-127 51.5h-248z" />
<glyph unicode="&#x159;" horiz-adv-x="358" d="M231 643l-92 111l16 12l88 -99l111 99l14 -13l-121 -110h-16zM32 0l72 517h21l-16 -112q13 41 62 81t114 40q42 0 67 -10l-3 -24q-22 13 -64 13q-67 0 -121.5 -52t-66.5 -143l-43 -310h-22z" />
<glyph unicode="&#x15a;" horiz-adv-x="583" d="M340 812l107 130l17 -13l-99 -117h-25zM239 -7q-79 0 -139 39t-81 104l21 6q21 -60 75.5 -94t127.5 -34q58 0 109 18.5t89 60t46 99.5q6 41 -2.5 73t-26.5 52t-46.5 34t-56.5 20.5t-63 10.5q-92 10 -143 58t-40 126q12 87 79.5 138.5t175.5 51.5q32 0 60.5 -5.5 t43.5 -10.5t37 -19.5t26 -18t24 -21.5l-14 -14q-69 68 -180 68q-99 0 -159.5 -45t-71.5 -124q-10 -71 35.5 -112.5t130.5 -50.5q47 -5 86 -18t72 -36.5t48 -63.5t7 -93q-10 -67 -52 -113t-97.5 -66t-120.5 -20z" />
<glyph unicode="&#x15b;" horiz-adv-x="450" d="M231 632l107 130l17 -12l-99 -118h-25zM172 -13q-50 0 -89.5 21t-82.5 64l16 16q28 -27 48.5 -42.5t49.5 -26.5t61 -11q76 0 122.5 35.5t54.5 87.5q6 42 -7.5 68t-47.5 41t-93 20q-48 5 -80 18.5t-49.5 42.5t-11.5 71q6 39 31 71t65.5 50.5t88.5 18.5q30 0 56 -6t45 -18 t29 -19.5t22 -19.5l-17 -16q-20 23 -55 41t-82 18q-60 0 -107 -34.5t-54 -84.5q-8 -54 24 -79.5t99 -32.5q97 -10 135.5 -45t29.5 -105q-9 -63 -60 -103.5t-141 -40.5z" />
<glyph unicode="&#x15e;" horiz-adv-x="583" d="M322 -129q-12 -82 -103 -82q-21 0 -43 11.5t-33 24.5l16 15q9 -10 27 -19t39 -9q19 0 34 6t25.5 19t12.5 32q2 26 -13 42.5t-58 16.5h-16l16 65q-76 4 -131.5 42.5t-75.5 100.5l21 6q21 -60 75.5 -94t127.5 -34q58 0 109 18.5t89 60t46 99.5q6 41 -2.5 73t-26.5 52 t-46.5 34t-56.5 20.5t-63 10.5q-92 10 -143 58t-40 126q12 87 79.5 138.5t175.5 51.5q32 0 60.5 -5.5t43.5 -10.5t37 -19.5t26 -18t24 -21.5l-14 -14q-69 68 -180 68q-99 0 -159.5 -45t-71.5 -124q-10 -71 35.5 -112.5t130.5 -50.5q47 -5 86 -18t72 -36.5t48 -63.5t7 -93 q-6 -40 -23.5 -73t-42.5 -55.5t-57.5 -38.5t-66.5 -23.5t-71 -8.5l-10 -45q43 0 65 -23.5t19 -53.5z" />
<glyph unicode="&#x15f;" horiz-adv-x="450" d="M262 -132q-12 -82 -102 -82q-15 0 -31.5 6t-27.5 14t-18 16l16 15q9 -10 27 -19t39 -9q29 0 48.5 14.5t23.5 42.5q1 12 -1 21t-9 18t-22.5 14t-38.5 5h-16l16 63q-48 2 -86 23t-80 62l16 16q28 -27 48.5 -42.5t49.5 -26.5t61 -11q76 0 122.5 35.5t54.5 87.5q6 42 -7.5 68 t-47.5 41t-93 20q-48 5 -80 18.5t-49.5 42.5t-11.5 71q6 39 31 71t65.5 50.5t88.5 18.5q30 0 56 -6t45 -18t29 -19.5t22 -19.5l-17 -16q-20 23 -55 41t-82 18q-60 0 -107 -34.5t-54 -84.5q-8 -54 24 -79.5t99 -32.5q97 -10 135.5 -45t29.5 -105q-9 -61 -56 -100.5 t-130 -43.5l-9 -43q43 0 65 -23t19 -53z" />
<glyph unicode="&#x160;" horiz-adv-x="583" d="M357 821l-92 111l16 13l88 -100l111 100l14 -14l-121 -110h-16zM239 -7q-79 0 -139 39t-81 104l21 6q21 -60 75.5 -94t127.5 -34q58 0 109 18.5t89 60t46 99.5q6 41 -2.5 73t-26.5 52t-46.5 34t-56.5 20.5t-63 10.5q-92 10 -143 58t-40 126q12 87 79.5 138.5t175.5 51.5 q32 0 60.5 -5.5t43.5 -10.5t37 -19.5t26 -18t24 -21.5l-14 -14q-69 68 -180 68q-99 0 -159.5 -45t-71.5 -124q-10 -71 35.5 -112.5t130.5 -50.5q47 -5 86 -18t72 -36.5t48 -63.5t7 -93q-10 -67 -52 -113t-97.5 -66t-120.5 -20z" />
<glyph unicode="&#x161;" horiz-adv-x="450" d="M260 647l-92 111l17 13l87 -100l111 100l14 -14l-121 -110h-16zM172 -13q-50 0 -89.5 21t-82.5 64l16 16q28 -27 48.5 -42.5t49.5 -26.5t61 -11q76 0 122.5 35.5t54.5 87.5q6 42 -7.5 68t-47.5 41t-93 20q-48 5 -80 18.5t-49.5 42.5t-11.5 71q6 39 31 71t65.5 50.5 t88.5 18.5q30 0 56 -6t45 -18t29 -19.5t22 -19.5l-17 -16q-20 23 -55 41t-82 18q-60 0 -107 -34.5t-54 -84.5q-8 -54 24 -79.5t99 -32.5q97 -10 135.5 -45t29.5 -105q-9 -63 -60 -103.5t-141 -40.5z" />
<glyph unicode="&#x162;" horiz-adv-x="569" d="M315 -127q-12 -82 -103 -82q-15 0 -31 6.5t-27.5 14t-18.5 15.5l16 15q9 -10 27 -19t39 -9q30 0 49.5 14.5t23.5 42.5q2 26 -13 42.5t-59 16.5h-15l17 72l102 724h-236l3 21h496l-3 -21h-239l-101 -726l-11 -50q43 0 65 -23.5t19 -53.5z" />
<glyph unicode="&#x163;" horiz-adv-x="318" d="M214 -108q-12 -82 -103 -82q-21 0 -43 11.5t-33 24.5l15 15q6 -6 14.5 -12t23 -11t29.5 -5q19 0 34 6t25 19t13 32q1 12 -1.5 21.5t-9.5 18.5t-22 14t-38 5h-16l18 71q-45 32 -36 100l52 372h-93l3 21h94l26 189h21l-26 -189h127l-3 -21h-127l-52 -365q-7 -51 18.5 -81 t88.5 -30h6l-3 -21h-8q-42 0 -69 13l-9 -40q43 0 65 -23t19 -53z" />
<glyph unicode="&#x164;" horiz-adv-x="569" d="M339 820l-92 111l17 13l87 -100l111 100l14 -14l-121 -110h-16zM220 0l102 726h-236l3 21h496l-3 -21h-239l-101 -726h-22z" />
<glyph unicode="&#x165;" horiz-adv-x="365" d="M391 766h20l-54 -157h-20zM84 120l52 372h-93l3 21h94l26 189h21l-26 -189h127l-3 -21h-127l-52 -365q-7 -51 18.5 -81t88.5 -30h6l-3 -21h-8q-64 0 -98 32.5t-26 92.5z" />
<glyph unicode="&#x16a;" horiz-adv-x="625" d="M216 845l3 21h317l-4 -21h-316zM256 -13q-115 0 -167 81.5t-31 231.5l63 446h21l-63 -448q-20 -137 27 -213.5t153 -76.5q112 0 179.5 75.5t87.5 214.5l63 448h21l-63 -446q-44 -313 -291 -313z" />
<glyph unicode="&#x16b;" horiz-adv-x="532" d="M134 704l4 20h316l-4 -20h-316zM196 -9q-89 0 -131.5 62.5t-27.5 172.5q2 18 6.5 48.5t13.5 94.5t15 106l6 42h21l-41 -291q-14 -100 23.5 -157t118.5 -57q76 0 134.5 59.5t71.5 154.5l41 291h21l-72 -517h-21l18 129q-18 -52 -70.5 -95t-126.5 -43z" />
<glyph unicode="&#x16c;" horiz-adv-x="625" d="M372 825q-100 0 -155 96l17 11q45 -86 142 -86q91 0 163 86l14 -11q-75 -96 -181 -96zM256 -13q-115 0 -167 81.5t-31 231.5l63 446h21l-63 -448q-20 -137 27 -213.5t153 -76.5q112 0 179.5 75.5t87.5 214.5l63 448h21l-63 -446q-44 -313 -291 -313z" />
<glyph unicode="&#x16d;" horiz-adv-x="532" d="M284 640q-100 0 -155 96l17 12q45 -86 142 -86q91 0 162 86l15 -12q-75 -96 -181 -96zM196 -9q-89 0 -131.5 62.5t-27.5 172.5q2 18 6.5 48.5t13.5 94.5t15 106l6 42h21l-41 -291q-14 -100 23.5 -157t118.5 -57q76 0 134.5 59.5t71.5 154.5l41 291h21l-72 -517h-21 l18 129q-18 -52 -70.5 -95t-126.5 -43z" />
<glyph unicode="&#x16e;" horiz-adv-x="625" d="M375.5 778q-43.5 0 -72.5 28.5t-29 72.5q0 28 14 52t37.5 38t50.5 14q42 0 71.5 -31t29.5 -74t-29 -71.5t-72.5 -28.5zM376 799q35 0 57.5 22.5t22.5 56.5t-23.5 59t-56.5 25t-57 -25t-24 -59t23 -56.5t58 -22.5zM256 -13q-115 0 -167 81.5t-31 231.5l63 446h21l-63 -448 q-20 -137 27 -213.5t153 -76.5q112 0 179.5 75.5t87.5 214.5l63 448h21l-63 -446q-44 -313 -291 -313z" />
<glyph unicode="&#x16f;" horiz-adv-x="532" d="M286 587q-29 0 -52.5 13t-36.5 36t-13 52q0 42 30 73t71.5 31t71 -31t29.5 -74.5t-28.5 -71.5t-71.5 -28zM286 608q35 0 57 22.5t22 56.5t-23 59t-56 25q-34 0 -57.5 -25t-23.5 -59t23 -56.5t58 -22.5zM196 -9q-89 0 -131.5 62.5t-27.5 172.5q2 18 6.5 48.5t13.5 94.5 t15 106l6 42h21l-41 -291q-14 -100 23.5 -157t118.5 -57q76 0 134.5 59.5t71.5 154.5l41 291h21l-72 -517h-21l18 129q-18 -52 -70.5 -95t-126.5 -43z" />
<glyph unicode="&#x170;" horiz-adv-x="625" d="M312 808h-25l89 131l18 -13zM425 808h-25l89 131l18 -13zM256 -13q-115 0 -167 81.5t-31 231.5l63 446h21l-63 -448q-20 -137 27 -213.5t153 -76.5q112 0 179.5 75.5t87.5 214.5l63 448h21l-63 -446q-44 -313 -291 -313z" />
<glyph unicode="&#x171;" horiz-adv-x="532" d="M212 605h-25l89 130l18 -13zM326 605h-26l90 130l17 -13zM196 -9q-89 0 -131.5 62.5t-27.5 172.5q2 18 6.5 48.5t13.5 94.5t15 106l6 42h21l-41 -291q-14 -100 23.5 -157t118.5 -57q76 0 134.5 59.5t71.5 154.5l41 291h21l-72 -517h-21l18 129q-18 -52 -70.5 -95 t-126.5 -43z" />
<glyph unicode="&#x172;" horiz-adv-x="625" d="M309 -198l-5 -21h-62q-36 0 -55.5 17.5t-18.5 42.5t20 47q67 75 89 100q-6 -1 -21 -1q-115 0 -167 81.5t-31 231.5l63 446h21l-63 -448q-20 -137 27 -213.5t153 -76.5q112 0 179.5 75.5t87.5 214.5l63 448h21l-63 -446q-39 -278 -239 -308l-102 -116q-14 -13 -16 -30.5 t11 -30.5t41 -13h67z" />
<glyph unicode="&#x173;" horiz-adv-x="532" d="M392 -195l-5 -21h-63q-35 0 -54.5 17.5t-18.5 42.5t20 47q73 84 100 111l5 4l17 123q-18 -52 -70.5 -95t-126.5 -43q-89 0 -131.5 62.5t-27.5 172.5q2 18 6.5 48.5t13.5 94.5t15 106l6 42h21l-41 -291q-14 -100 23.5 -157t118.5 -57q76 0 134.5 59.5t71.5 154.5l41 291 h21l-72 -517l-107 -121q-14 -13 -16.5 -30.5t11 -30.5t40.5 -13h68z" />
<glyph unicode="&#x174;" horiz-adv-x="957" d="M438 785l-14 13l124 111h16l90 -110l-18 -14l-83 100zM194 0l-107 746h21l105 -718l303 689h23l114 -696l299 725h23l-308 -746h-33l-111 680l-297 -680h-32z" />
<glyph unicode="&#x175;" horiz-adv-x="780" d="M326 629l-14 13l124 111h16l90 -110l-18 -14l-83 100zM152 0l-95 517h22l89 -481l229 481h23l102 -475l217 475h24l-237 -517h-19l-103 481l-229 -481h-23z" />
<glyph unicode="&#x176;" horiz-adv-x="599" d="M259 795l-13 12l124 112h15l91 -111l-18 -13l-83 100zM239 0l42 300l-194 446h23l184 -422l298 422h25l-315 -446l-42 -300h-21z" />
<glyph unicode="&#x177;" horiz-adv-x="512" d="M195 630l-13 13l124 111h15l91 -110l-18 -14l-83 100zM108 -198h-26l102 183l8 18l-135 514h23l127 -489l264 489h25z" />
<glyph unicode="&#x178;" horiz-adv-x="599" d="M270 822q-11 0 -20 8t-6 19q1 9 5.5 15t11 9.5t13.5 3.5q4 0 8.5 -1.5t8 -3.5t6.5 -5.5t4 -8t0 -9.5q-2 -11 -11 -19t-20 -8zM465 822q-11 0 -19.5 8t-6.5 19q1 13 10 20.5t19 7.5q12 0 21 -8t8 -20q-3 -11 -12 -19t-20 -8zM239 0l42 300l-194 446h23l184 -422l298 422 h25l-315 -446l-42 -300h-21z" />
<glyph unicode="&#x179;" horiz-adv-x="569" d="M324 810l108 130l16 -13l-98 -117h-26zM-10 0l2 15l553 709h-441l3 22h473l-2 -16l-553 -709h449l-4 -21h-480z" />
<glyph unicode="&#x17a;" horiz-adv-x="485" d="M239 625l107 130l17 -13l-98 -117h-26zM0 0l2 18l405 478h-333l3 21h368l-2 -14l-408 -482h348l-3 -21h-380z" />
<glyph unicode="&#x17b;" horiz-adv-x="569" d="M353 845q-11 0 -20 8t-6 20q1 12 10 19.5t20 7.5q4 0 8.5 -1.5t8 -3.5t6 -5.5t4 -8t0.5 -8.5q-1 -6 -4 -11t-7 -9t-9.5 -6t-10.5 -2zM-10 0l2 15l553 709h-441l3 22h473l-2 -16l-553 -709h449l-4 -21h-480z" />
<glyph unicode="&#x17c;" horiz-adv-x="485" d="M284 686q-12 0 -20.5 8t-6.5 19q2 12 11 19.5t20 7.5t19.5 -7.5t7.5 -19.5q-2 -8 -6.5 -14t-11 -9.5t-13.5 -3.5zM0 0l2 18l405 478h-333l3 21h368l-2 -14l-408 -482h348l-3 -21h-380z" />
<glyph unicode="&#x17d;" horiz-adv-x="569" d="M341 819l-92 111l17 13l87 -100l111 100l14 -14l-121 -110h-16zM-10 0l2 15l553 709h-441l3 22h473l-2 -16l-553 -709h449l-4 -21h-480z" />
<glyph unicode="&#x17e;" horiz-adv-x="485" d="M269 639l-93 112l17 12l87 -99l112 99l13 -13l-120 -111h-16zM0 0l2 18l405 478h-333l3 21h368l-2 -14l-408 -482h348l-3 -21h-380z" />
<glyph unicode="&#x1dd;" horiz-adv-x="569" d="M288 531q107 0 166 -75.5t42 -197.5t-94.5 -197t-175.5 -75q-96 0 -149 73t-37 189l3 20h433q13 108 -41.5 175t-149.5 67q-35 0 -65.5 -8.5t-54 -24.5t-39.5 -30t-33 -33l-15 14q21 24 37.5 39t42 31.5t58 24.5t72.5 8zM472 247h-411q-15 -105 33.5 -172.5t133.5 -67.5 q87 0 157 66.5t87 173.5z" />
<glyph unicode="&#x1fa;" horiz-adv-x="659" d="M385 1025l107 130l17 -13l-98 -117h-26zM395.5 783q-43.5 0 -72.5 28.5t-29 72.5q0 43 30 73.5t72 30.5t71.5 -31t29.5 -74t-29 -71.5t-72.5 -28.5zM396 804q35 0 57.5 22.5t22.5 56.5t-23.5 59t-56.5 25t-57 -24.5t-24 -59.5q0 -33 23 -56t58 -23zM565 0l-53 204h-409 l-109 -204h-26l403 746h25l190 -746h-21zM380 721l-266 -496h393z" />
<glyph unicode="&#x1fb;" horiz-adv-x="576" d="M360 854l107 130l17 -13l-99 -117h-25zM355 587q-44 0 -73 28.5t-29 72.5q0 21 8 40t22 33t32.5 22.5t39.5 8.5q42 0 71.5 -31t29.5 -74q0 -29 -13 -51.5t-36.5 -35.5t-51.5 -13zM355 608q35 0 57.5 22.5t22.5 56.5t-23.5 59t-56.5 25t-57 -25t-24 -59t23 -56.5t58 -22.5 zM226 -12q-38 0 -73 16t-64.5 46.5t-43 84t-4.5 121.5q9 66 36 119t63.5 85t77.5 48.5t83 16.5q72 0 119.5 -48t50.5 -101l20 141h21l-72 -517h-21l20 144q-20 -62 -78.5 -109t-134.5 -47zM228 9q35 0 69.5 14.5t67.5 42.5t57 77.5t33 112.5q8 62 -2.5 111t-35 78t-55 44 t-64.5 15q-28 0 -57 -9t-58.5 -29t-54 -48.5t-42.5 -70t-25 -91.5q-9 -63 4.5 -112.5t40.5 -77.5t58.5 -42.5t63.5 -14.5z" />
<glyph unicode="&#x1fc;" horiz-adv-x="949" d="M647 821l107 130l17 -12l-99 -118h-25zM-47 0l601 746h428l-3 -22h-401l-48 -333h328l-3 -21h-328l-48 -349h405l-3 -21h-426l30 215h-334l-172 -215h-26zM171 236h317l67 480z" />
<glyph unicode="&#x1fd;" horiz-adv-x="857" d="M422 628l107 130l17 -12l-99 -118h-25zM779 88q-14 -15 -24 -25.5t-25.5 -23.5t-31 -21.5t-35.5 -16.5t-43.5 -12t-50.5 -4q-85 0 -141 49.5t-68 133.5q-57 -176 -242 -176q-79 0 -121 42.5t-30 105.5q9 65 67 106t155 41q106 0 168 -17l1 4q32 233 -138 233 q-45 0 -81.5 -10.5t-51.5 -20t-33 -24.5l-12 17q0 1 20 14.5t35 21t50 15.5t77 8q156 0 161 -179q34 84 101 132.5t145 48.5q96 0 149 -72.5t37 -188.5l-3 -20h-433q-13 -109 41.5 -176t149.5 -67q65 0 109.5 27.5t81.5 69.5zM384 270h412q15 104 -33.5 171.5t-133.5 67.5 q-87 0 -157 -66.5t-88 -172.5zM121 13q64 0 112 24.5t78.5 76t41.5 128.5l1 5q-21 8 -73.5 14t-93.5 5q-182 -6 -200 -131q-7 -54 28.5 -88t105.5 -34z" />
<glyph unicode="&#x1fe;" horiz-adv-x="771" d="M432 813l107 130l16 -13l-98 -117h-25zM332 -6q-105 0 -182 70l-66 -84l-16 13l67 85q-99 107 -73 291q13 90 50.5 164t90 121.5t113.5 73t123 25.5q100 0 174 -66l49 61l15 -15l-48 -61q49 -51 71 -128t8 -175q-12 -85 -49.5 -156.5t-89.5 -119t-113.5 -73.5t-123.5 -26 zM83 369q-23 -176 66 -275l451 575q-70 63 -164 63q-58 0 -115 -24t-106 -68.5t-84.5 -115t-47.5 -155.5zM688 369q25 180 -73 285l-452 -573q71 -66 172 -66q44 0 90 15.5t89 46t78.5 72.5t61 99t34.5 121z" />
<glyph unicode="&#x1ff;" horiz-adv-x="562" d="M321 622l107 130l17 -13l-99 -117h-25zM499 255q-12 -85 -54 -146.5t-96.5 -89t-116.5 -27.5q-85 0 -142 60l-47 -51l-15 13l50 54q-53 73 -37 187q18 129 93.5 201t173.5 72q85 0 138 -57l42 47l15 -14l-44 -48q58 -76 40 -201zM62 255q-15 -107 30 -171l340 372 q-50 51 -128 51q-57 0 -107.5 -27.5t-87 -86t-47.5 -138.5zM478 255q16 116 -34 185l-339 -372q51 -55 130 -55q39 0 77 14t72.5 42t59.5 76.5t34 109.5z" />
<glyph unicode="&#x218;" horiz-adv-x="583" d="M239 -7q-79 0 -139 39t-81 104l21 6q21 -60 75.5 -94t127.5 -34q58 0 109 18.5t89 60t46 99.5q6 41 -2.5 73t-26.5 52t-46.5 34t-56.5 20.5t-63 10.5q-92 10 -143 58t-40 126q12 87 79.5 138.5t175.5 51.5q32 0 60.5 -5.5t43.5 -10.5t37 -19.5t26 -18t24 -21.5l-14 -14 q-69 68 -180 68q-99 0 -159.5 -45t-71.5 -124q-10 -71 35.5 -112.5t130.5 -50.5q47 -5 86 -18t72 -36.5t48 -63.5t7 -93q-10 -67 -52 -113t-97.5 -66t-120.5 -20zM181 -217l27 120h36l-38 -120h-25z" />
<glyph unicode="&#x219;" horiz-adv-x="450" d="M172 -13q-50 0 -89.5 21t-82.5 64l16 16q28 -27 48.5 -42.5t49.5 -26.5t61 -11q76 0 122.5 35.5t54.5 87.5q6 42 -7.5 68t-47.5 41t-93 20q-48 5 -80 18.5t-49.5 42.5t-11.5 71q6 39 31 71t65.5 50.5t88.5 18.5q30 0 56 -6t45 -18t29 -19.5t22 -19.5l-17 -16 q-20 23 -55 41t-82 18q-60 0 -107 -34.5t-54 -84.5q-8 -54 24 -79.5t99 -32.5q97 -10 135.5 -45t29.5 -105q-9 -63 -60 -103.5t-141 -40.5zM121 -220l27 120h36l-38 -120h-25z" />
<glyph unicode="&#x21a;" horiz-adv-x="569" d="M220 0l102 726h-236l3 21h496l-3 -21h-239l-101 -726h-22zM173 -215l28 121h35l-38 -121h-25z" />
<glyph unicode="&#x21b;" horiz-adv-x="311" d="M84 120l52 372h-93l3 21h94l26 189h21l-26 -189h127l-3 -21h-127l-52 -365q-7 -51 18.5 -81t88.5 -30h6l-3 -21h-8q-64 0 -98 32.5t-26 92.5zM100 -197l27 120h36l-38 -120h-25z" />
<glyph unicode="&#x2c6;" horiz-adv-x="229" d="M104 630l-14 13l124 111h16l90 -110l-18 -14l-83 100z" />
<glyph unicode="&#x2c7;" horiz-adv-x="229" d="M198 640l-92 112l17 12l87 -99l111 99l14 -13l-121 -111h-16z" />
<glyph unicode="&#x2d8;" horiz-adv-x="336" d="M258 640q-100 0 -154 96l17 12q44 -86 141 -86q92 0 163 86l15 -12q-75 -96 -182 -96z" />
<glyph unicode="&#x2d9;" horiz-adv-x="57" d="M127 687q-11 0 -19.5 8t-6.5 19q1 12 10 19.5t20 7.5q8 0 14.5 -3t10.5 -9.5t3 -14.5q-2 -6 -5 -11t-7 -8.5t-9.5 -5.5t-10.5 -2z" />
<glyph unicode="&#x2da;" horiz-adv-x="204" d="M200 587q-44 0 -73 28.5t-29 72.5q0 42 30 73t72 31q20 0 38.5 -8.5t32 -22.5t21.5 -33.5t8 -40.5q0 -29 -13 -51.5t-36 -35.5t-51 -13zM199.5 608q35.5 0 57.5 22.5t22 56.5t-23 59t-56 25q-34 0 -57.5 -25t-23.5 -59t22.5 -56.5t58 -22.5z" />
<glyph unicode="&#x2db;" horiz-adv-x="571" d="M382 -242h-63q-35 0 -54.5 18t-18.5 43t20 47q73 84 99 111q4 3 7 5t5 2.5t4 0.5h2l1 -1l7 -9l-107 -121q-14 -13 -16.5 -30.5t11 -30.5t40.5 -13h67z" />
<glyph unicode="&#x2dc;" horiz-adv-x="321" d="M92 655q9 30 39 54.5t72 29.5q22 3 42.5 -5t32.5 -18.5t28 -18.5t31 -6q44 4 68 56l20 -6q-5 -11 -12 -22t-17.5 -21.5t-25.5 -18t-33 -9.5q-24 -3 -46 10.5t-43.5 27t-45.5 10.5q-18 -2 -33.5 -8.5t-27 -16t-19 -20.5t-11.5 -22z" />
<glyph unicode="&#x2dd;" horiz-adv-x="220" d="M25 605h-25l89 130l18 -13zM139 605h-26l90 130l17 -13z" />
<glyph unicode="&#x1e80;" horiz-adv-x="957" d="M543 800l-66 117l20 13l71 -130h-25zM194 0l-107 746h21l105 -718l303 689h23l114 -696l299 725h23l-308 -746h-33l-111 680l-297 -680h-32z" />
<glyph unicode="&#x1e81;" horiz-adv-x="780" d="M437 625l-66 116l20 14l71 -130h-25zM152 0l-95 517h22l89 -481l229 481h23l102 -475l217 475h24l-237 -517h-19l-103 481l-229 -481h-23z" />
<glyph unicode="&#x1e82;" horiz-adv-x="957" d="M518 800l107 130l17 -12l-99 -118h-25zM194 0l-107 746h21l105 -718l303 689h23l114 -696l299 725h23l-308 -746h-33l-111 680l-297 -680h-32z" />
<glyph unicode="&#x1e83;" horiz-adv-x="780" d="M391 625l107 130l16 -13l-98 -117h-25zM152 0l-95 517h22l89 -481l229 481h23l102 -475l217 475h24l-237 -517h-19l-103 481l-229 -481h-23z" />
<glyph unicode="&#x1e84;" horiz-adv-x="957" d="M448 813q-11 0 -19.5 8t-6.5 19q2 12 11 19.5t20 7.5q4 0 8 -1t8 -3.5t6.5 -5.5t3.5 -7.5t1 -9.5q-1 -6 -4 -11t-7.5 -8.5t-9.5 -5.5t-11 -2zM644 813q-11 0 -20 8t-7 19q2 12 10.5 19.5t19.5 7.5q12 0 21 -7.5t7 -19.5t-11 -19.5t-20 -7.5zM194 0l-107 746h21l105 -718 l303 689h23l114 -696l299 725h23l-308 -746h-33l-111 680l-297 -680h-32z" />
<glyph unicode="&#x1e85;" horiz-adv-x="780" d="M340 686q-11 0 -19.5 8t-6.5 19q1 12 10.5 19.5t19.5 7.5q12 0 20.5 -7.5t7.5 -19.5q-2 -8 -6.5 -14t-11.5 -9.5t-14 -3.5zM535.5 686q-11.5 0 -20 8t-6.5 19q2 12 10.5 19.5t19.5 7.5q12 0 20.5 -7.5t7.5 -19.5q-2 -12 -11 -19.5t-20.5 -7.5zM152 0l-95 517h22l89 -481 l229 481h23l102 -475l217 475h24l-237 -517h-19l-103 481l-229 -481h-23z" />
<glyph unicode="&#x1ef2;" horiz-adv-x="599" d="M364 810l-66 116l20 14l72 -130h-26zM239 0l42 300l-194 446h23l184 -422l298 422h25l-315 -446l-42 -300h-21z" />
<glyph unicode="&#x1ef3;" horiz-adv-x="512" d="M307 626l-67 116l20 14l72 -130h-25zM108 -198h-26l102 183l8 18l-135 514h23l127 -489l264 489h25z" />
<glyph unicode="&#x2000;" horiz-adv-x="577" />
<glyph unicode="&#x2001;" horiz-adv-x="1155" />
<glyph unicode="&#x2002;" horiz-adv-x="577" />
<glyph unicode="&#x2003;" horiz-adv-x="1155" />
<glyph unicode="&#x2004;" horiz-adv-x="385" />
<glyph unicode="&#x2005;" horiz-adv-x="288" />
<glyph unicode="&#x2006;" horiz-adv-x="192" />
<glyph unicode="&#x2007;" horiz-adv-x="192" />
<glyph unicode="&#x2008;" horiz-adv-x="144" />
<glyph unicode="&#x2009;" horiz-adv-x="231" />
<glyph unicode="&#x200a;" horiz-adv-x="64" />
<glyph unicode="&#x2010;" horiz-adv-x="459" d="M57 254l3 21h313l-3 -21h-313z" />
<glyph unicode="&#x2011;" horiz-adv-x="459" d="M57 254l3 21h313l-3 -21h-313z" />
<glyph unicode="&#x2012;" horiz-adv-x="459" d="M57 254l3 21h313l-3 -21h-313z" />
<glyph unicode="&#x2013;" horiz-adv-x="565" d="M70 254v21h395v-21h-395z" />
<glyph unicode="&#x2014;" horiz-adv-x="954" d="M120 254l3 21h681l-3 -21h-681z" />
<glyph unicode="&#x2018;" horiz-adv-x="117" d="M84 746h21l8 -176h-21z" />
<glyph unicode="&#x2019;" horiz-adv-x="126" d="M125 746h22l-66 -176h-22z" />
<glyph unicode="&#x201a;" horiz-adv-x="127" d="M46 175l-25 -175h-21l25 175h21z" />
<glyph unicode="&#x201c;" horiz-adv-x="224" d="M191 746h21l8 -176h-20zM84 746h21l8 -176h-21z" />
<glyph unicode="&#x201d;" horiz-adv-x="233" d="M163 746h22l-66 -176h-22zM56 746h22l-66 -176h-22z" />
<glyph unicode="&#x201e;" horiz-adv-x="234" d="M153 175l-25 -175h-21l25 175h21zM46 175l-25 -175h-21l25 175h21z" />
<glyph unicode="&#x2020;" horiz-adv-x="477" d="M214 226l45 318h-134l3 21h134l22 150h20l-20 -150h120l-3 -21h-121l-45 -318h-21z" />
<glyph unicode="&#x2021;" horiz-adv-x="477" d="M250 379l-21 -152h-21l21 152h-128l3 21h128l20 144h-126l3 21h126l21 151h21l-21 -151h128l-3 -21h-128l-20 -144h127l-3 -21h-127z" />
<glyph unicode="&#x2022;" horiz-adv-x="239" d="M118 301q-20 0 -36.5 15t-16.5 36t16.5 37t36 16t35 -16t15.5 -37q0 -14 -7.5 -25.5t-19 -18.5t-23.5 -7z" />
<glyph unicode="&#x2026;" horiz-adv-x="395" d="M20 -3q-8 0 -15.5 6.5t-7.5 16.5t7.5 17t15.5 7t15.5 -7t7.5 -17t-7.5 -16.5t-15.5 -6.5zM146 -3q-8 0 -15.5 6.5t-7.5 16.5t7.5 17t15.5 7t15.5 -7t7.5 -17t-7.5 -16.5t-15.5 -6.5zM276 -3q-8 0 -15.5 6.5t-7.5 16.5t7.5 17t15.5 7t15.5 -7t7.5 -17t-7.5 -16.5 t-15.5 -6.5z" />
<glyph unicode="&#x202f;" horiz-adv-x="231" />
<glyph unicode="&#x2039;" horiz-adv-x="352" d="M201 135l-116 135l3 23l154 134l11 -14l-149 -133l112 -131z" />
<glyph unicode="&#x203a;" horiz-adv-x="353" d="M127 428l116 -134l-4 -23l-153 -135l-11 15l149 133l-113 131z" />
<glyph unicode="&#x205f;" horiz-adv-x="288" />
<glyph unicode="&#x20ac;" horiz-adv-x="658" d="M581 28q-73 -42 -193 -42t-194 78.5t-77 213.5h-73l3 21h70q0 29 5 65q5 35 12 66h-68l2 22h72q41 151 139 228t229 77q106 0 181 -49l-11 -21q-16 10 -28 16.5t-34 15t-49.5 13t-61.5 4.5q-78 0 -144 -29t-119 -94.5t-80 -160.5h386l-9 -22h-383q-7 -31 -12 -66 q-5 -36 -5 -65h325l-11 -21h-314q4 -126 73 -198.5t182 -72.5q97 0 190 42z" />
<glyph unicode="&#x2190;" horiz-adv-x="765" d="M279 54l-234 270l310 271l13 -14l-282 -247h610l-2 -21h-610l210 -243z" />
<glyph unicode="&#x2191;" horiz-adv-x="603" d="M239 0l102 726l-278 -245l-15 13l308 271l233 -271l-16 -15l-211 247l-102 -726h-21z" />
<glyph unicode="&#x2192;" horiz-adv-x="765" d="M396 54l-13 14l282 247h-610l3 21h610l-211 243l15 16l234 -271z" />
<glyph unicode="&#x2193;" horiz-adv-x="603" d="M247 -20l-232 272l15 15l212 -247l101 726h21l-102 -726l278 245l15 -13z" />
<glyph unicode="&#x2212;" horiz-adv-x="521" d="M505 328h-406l3 21h406z" />
<glyph unicode="&#x25fc;" horiz-adv-x="514" d="M0 514h514v-514h-514v514z" />
<glyph unicode="&#xf6c3;" horiz-adv-x="34" d="M-41 -215l27 121h36l-38 -121h-25z" />
<glyph horiz-adv-x="368" d="M-25 -203l3 21l176 176q59 58 79.5 87t26.5 64q8 48 -17.5 75.5t-72.5 27.5q-44 0 -76.5 -27t-47.5 -77h-20q13 56 54 90.5t93 34.5q55 0 86.5 -34.5t21.5 -89.5q-7 -42 -30.5 -75.5t-75.5 -84.5l-169 -167h239l-3 -21h-267z" />
</font>
</defs>
</svg>
